<svg width="168" height="406" viewBox="0 0 168 406" fill="none" xmlns="http://www.w3.org/2000/svg">
<g clip-path="url(#svg-cta-clip)">
<path d="M68.3102 127.888C67.7076 127.888 67.1092 127.7 66.5985 127.331C65.6472 126.641 65.2028 125.456 65.4617 124.313L69 108.726L57.0004 98.203C56.1183 97.433 55.7814 96.2136 56.1435 95.0978C56.5056 93.9841 57.4909 93.1956 58.6575 93.0878L74.5345 91.6464L80.8117 76.9565C81.2746 75.8772 82.3287 75.1802 83.4998 75.1802C84.671 75.1802 85.7251 75.8772 86.188 76.9539L92.4652 91.6464L108.34 93.0878C109.509 93.1931 110.494 93.9841 110.856 95.0978C111.218 96.2115 110.883 97.433 110.001 98.203L98.0017 108.724L101.54 124.31C101.799 125.456 101.355 126.641 100.404 127.329C99.4549 128.016 98.1897 128.069 97.1906 127.468L83.4998 119.287L69.8091 127.473C69.3462 127.748 68.8305 127.888 68.3102 127.888ZM83.4998 115.762C84.0202 115.762 84.5355 115.902 84.9988 116.177L97.9195 123.905L94.5801 109.194C94.3418 108.147 94.6972 107.054 95.5062 106.345L106.837 96.4087L91.8462 95.0474C90.7669 94.9488 89.8387 94.2703 89.417 93.2758L83.4998 79.413L77.5755 93.2779C77.1584 94.2657 76.2302 94.9442 75.1535 95.0428L60.161 96.4041L71.4909 106.341C72.3025 107.051 72.6575 108.142 72.4171 109.192L69.0802 123.902L82.0009 116.177C82.4638 115.902 82.9795 115.762 83.4998 115.762ZM74.4132 91.9304C74.4132 91.9304 74.4132 91.933 74.4107 91.9351L74.4132 91.9304ZM92.5818 91.9237L92.5844 91.9283C92.5844 91.9258 92.5844 91.9258 92.5818 91.9237Z" fill="#00DA92"/>
</g>
<g clip-path="url(#svg-cta-clip-1)">
<path d="M95.0492 397.375C72.3948 353.786 55.7378 315.233 45.5032 282.59C32.1243 239.946 29.7447 207.326 38.4374 185.615C39.0201 184.18 40.6591 183.474 42.1281 184.036C43.585 184.598 44.3013 186.225 43.7307 187.672C28.5306 225.615 50.0681 301.047 106 406L95.0492 397.375Z" fill="#009F86"/>
<path d="M36.7862 243.594C36.7862 243.594 14.9451 252.817 0 214.348C0 214.359 37.4903 209.587 36.7862 243.594Z" fill="#00DA92"/>
<path d="M43.4636 263.822C43.4636 263.822 32.9012 242.853 71.0471 225.998C71.0471 225.998 77.9673 262.613 43.4636 263.822Z" fill="#00DA92"/>
<path d="M36.9806 203.713C36.9806 203.713 19.9351 187.409 50.1896 159C50.2018 159 69.1169 191.249 36.9806 203.713Z" fill="#00DA92"/>
<path d="M55.6042 304.91C55.6042 304.91 38.2188 320.867 10.9387 289.647C10.9387 289.659 44.5805 272.673 55.6042 304.91Z" fill="#00DA92"/>
<path d="M65.5594 324.504C65.5594 324.504 51.4763 305.652 86.0893 282.554C86.0893 282.554 99.3347 317.435 65.5594 324.504Z" fill="#00DA92"/>
<path d="M76.4862 352.65C76.4862 352.65 59.4043 368.93 31.5415 338.224C31.5415 338.236 64.8555 320.628 76.4862 352.65Z" fill="#00DA92"/>
</g>
<path d="M166.5 1C159 14.8333 144.1 47.7 144.5 68.5C145 94.5 150 119.5 144.5 129C139 138.5 139 152 136.5 159C134 166 126.5 170.5 119 171.5C111.5 172.5 93.5 198.5 95.5 250.5C97.1 292.1 108.167 368.5 113.5 401.5" stroke="white" stroke-width="2" stroke-dasharray="8 4"/>
<defs>
<clipPath id="svg-cta-clip">
<rect width="55" height="55" fill="white" transform="translate(56 74)"/>
</clipPath>
<clipPath id="svg-cta-clip-1">
<rect width="106" height="247" fill="white" transform="translate(0 159)"/>
</clipPath>
</defs>
</svg>
