<?xml version="1.0" encoding="utf-8"?>
<!-- Generator: Adobe Illustrator 24.1.1, SVG Export Plug-In . SVG Version: 6.00 Build 0)  -->
<svg version="1.1" xmlns="http://www.w3.org/2000/svg" xmlns:xlink="http://www.w3.org/1999/xlink" x="0px" y="0px"
	 viewBox="0 0 1920 1580" style="enable-background:new 0 0 1920 1580;" xml:space="preserve">
<style type="text/css">
	.st0{fill:url(#SVGID_1_);}
	.st1{fill:url(#SVGID_2_);}
	.st2{fill:none;stroke:url(#SVGID_3_);}
	.st3{fill:none;}
</style>
<g id="Слой_1">
	
		<linearGradient id="SVGID_1_" gradientUnits="userSpaceOnUse" x1="1920" y1="790" x2="1.818989e-12" y2="790" gradientTransform="matrix(1 0 0 -1 0 1580)">
		<stop  offset="0.5052" style="stop-color:#00DA92"/>
		<stop  offset="1" style="stop-color:#07B499"/>
	</linearGradient>
	<path class="st0" d="M511.7,257.3C342,332.1,99.9,403.8,0,430.2L0,1309c81.4,0,254.3-65.7,437.3-138.1
		c182.9-72.4,409.1-169.3,794.6-72.4c308.4,77.6,570.6,356.4,688.1,481.4V92.5c-26.5-32.2-149.8-89.6-463.4-92.4
		C1064.5-3.5,723.8,163.9,511.7,257.3z"/>
	<g>
		
			<linearGradient id="SVGID_2_" gradientUnits="userSpaceOnUse" x1="338" y1="359.5" x2="247" y2="359.5" gradientTransform="matrix(1 0 0 -1 0 1580)">
			<stop  offset="0" style="stop-color:#00DA92"/>
			<stop  offset="1" style="stop-color:#009F86"/>
		</linearGradient>
		<circle class="st1" cx="292.5" cy="1220.5" r="45.5"/>
	</g>
	
		<linearGradient id="SVGID_3_" gradientUnits="userSpaceOnUse" x1="374" y1="359.5" x2="211" y2="359.5" gradientTransform="matrix(1 0 0 -1 0 1580)">
		<stop  offset="0" style="stop-color:#00DA92"/>
		<stop  offset="1" style="stop-color:#009F86"/>
	</linearGradient>
	<circle class="st2" cx="292.5" cy="1220.5" r="81"/>
</g>
<g id="Слой_2">
	<path class="st3" d="M0,1309c156.9-7.5,375.9-125.3,552.8-182.6c177-57.2,238.8-74.2,451-65.7c212.2,8.5,416.9,92.2,539.6,184"/>
</g>
</svg>
