<svg width="66" height="147" viewBox="0 0 66 147" fill="none" xmlns="http://www.w3.org/2000/svg">
<g clip-path="url(#svg-cta_2-clip)">
<path d="M43.4908 146.414C43.1731 146.414 42.8576 146.315 42.5883 146.12C42.0867 145.756 41.8524 145.131 41.9889 144.529L43.8546 136.31L37.5275 130.762C37.0624 130.356 36.8847 129.713 37.0757 129.124C37.2666 128.537 37.7861 128.121 38.4012 128.065L46.7727 127.304L50.0825 119.559C50.3266 118.99 50.8824 118.622 51.4999 118.622C52.1174 118.622 52.6732 118.99 52.9173 119.558L56.2271 127.304L64.5973 128.065C65.2137 128.12 65.7332 128.537 65.9242 129.124C66.1151 129.712 65.9386 130.356 65.4735 130.762L59.1464 136.309L61.012 144.527C61.1488 145.131 60.9142 145.756 60.4129 146.119C59.9126 146.481 59.2455 146.509 58.7187 146.192L51.4999 141.879L44.2811 146.195C44.0371 146.34 43.7652 146.414 43.4908 146.414ZM51.4999 140.02C51.7743 140.02 52.046 140.094 52.2902 140.239L59.103 144.313L57.3422 136.557C57.2166 136.005 57.404 135.428 57.8306 135.055L63.8047 129.816L55.9007 129.098C55.3317 129.046 54.8422 128.688 54.6199 128.164L51.4999 120.854L48.3762 128.165C48.1563 128.686 47.6668 129.043 47.0991 129.095L39.194 129.813L45.168 135.052C45.5959 135.427 45.783 136.002 45.6563 136.556L43.8968 144.312L50.7096 140.239C50.9536 140.094 51.2256 140.02 51.4999 140.02ZM46.7088 127.454C46.7088 127.454 46.7088 127.456 46.7075 127.457L46.7088 127.454ZM56.2886 127.451L56.2899 127.453C56.2899 127.452 56.2899 127.452 56.2886 127.451Z" fill="url(#svg-cta_2-bg_2)"/>
</g>
<g clip-path="url(#svg-cta_2-clip_2)">
<path d="M11.3573 14.6966C11.193 14.6966 11.0298 14.6453 10.8905 14.5446C10.6311 14.3566 10.5099 14.0334 10.5805 13.7216L11.5455 9.47076L8.27283 6.60074C8.03227 6.39074 7.94037 6.05816 8.03913 5.75386C8.1379 5.45012 8.40661 5.23508 8.72477 5.20567L13.0549 4.81255L14.7668 0.806218C14.8931 0.511869 15.1805 0.321777 15.5 0.321777C15.8194 0.321777 16.1069 0.511869 16.2331 0.805532L17.945 4.81255L22.2745 5.20567C22.5933 5.23439 22.862 5.45012 22.9608 5.75386C23.0595 6.05759 22.9682 6.39074 22.7277 6.60074L19.455 9.47019L20.42 13.7209C20.4907 14.0334 20.3694 14.3566 20.1101 14.5441C19.8513 14.7315 19.5063 14.7459 19.2338 14.5822L15.5 12.3509L11.7661 14.5834C11.6399 14.6584 11.4992 14.6966 11.3573 14.6966ZM15.5 11.3896C15.6419 11.3896 15.7824 11.4278 15.9088 11.5027L19.4326 13.6103L18.5218 9.59825C18.4568 9.31272 18.5538 9.01459 18.7744 8.82141L21.8645 6.11138L17.7762 5.74012C17.4819 5.71323 17.2287 5.52817 17.1137 5.25694L15.5 1.47617L13.8842 5.25751C13.7705 5.52691 13.5173 5.71197 13.2237 5.73886L9.13482 6.11012L12.2248 8.82015C12.4461 9.0139 12.543 9.31146 12.4774 9.59768L11.5673 13.6096L15.0912 11.5027C15.2174 11.4278 15.358 11.3896 15.5 11.3896ZM13.0218 4.89003C13.0218 4.89003 13.0218 4.89072 13.0211 4.89129L13.0218 4.89003ZM17.9769 4.8882L17.9776 4.88946C17.9776 4.88877 17.9776 4.88877 17.9769 4.8882Z" fill="url(#svg-cta_2-bg)"/>
</g>
<path d="M3.71913 123.067C11.4131 108.243 17.0702 95.132 20.5461 84.0304C25.0899 69.528 25.898 58.4346 22.9458 51.0512C22.7479 50.563 22.1912 50.323 21.6923 50.5142C21.1975 50.7054 20.9543 51.2587 21.1481 51.7509C26.3103 64.6546 18.9957 90.3073 -3.43323e-05 126L3.71913 123.067Z" fill="#F24274"/>
<path d="M23.5066 70.7689C23.5066 70.7689 30.9243 73.9053 36 60.8227C36 60.8267 23.2674 59.2036 23.5066 70.7689Z" fill="#E8749B"/>
<path d="M21.2388 77.6479C21.2388 77.6479 24.826 70.5167 11.8708 64.7849C11.8708 64.7849 9.52053 77.237 21.2388 77.6479Z" fill="#E8749B"/>
<path d="M23.4406 57.2062C23.4406 57.2062 29.2296 51.6615 18.9545 42C18.9504 42 12.5264 52.9673 23.4406 57.2062Z" fill="#E8749B"/>
<path d="M17.1156 91.6213C17.1156 91.6213 23.0201 97.048 32.285 86.4305C32.285 86.4346 20.8595 80.658 17.1156 91.6213Z" fill="#E8749B"/>
<path d="M13.7346 98.2848C13.7346 98.2848 18.5175 91.8736 6.76215 84.0183C6.76215 84.0183 2.2637 95.8806 13.7346 98.2848Z" fill="#E8749B"/>
<path d="M10.0235 107.857C10.0235 107.857 15.8249 113.393 25.2878 102.951C25.2878 102.955 13.9736 96.9667 10.0235 107.857Z" fill="#E8749B"/>
<defs>
<linearGradient id="svg-cta_2-bg_2" x1="66" y1="146.414" x2="37" y2="146.414" gradientUnits="userSpaceOnUse">
<stop stop-color="#FFD200"/>
<stop offset="1" stop-color="#F69F16"/>
</linearGradient>
<linearGradient id="svg-cta_2-bg" x1="23" y1="14.6966" x2="8" y2="14.6966" gradientUnits="userSpaceOnUse">
<stop stop-color="#FFD200"/>
<stop offset="1" stop-color="#F69F16"/>
</linearGradient>
<clipPath id="svg-cta_2-clip">
<rect width="29" height="29" fill="white" transform="translate(37 118)"/>
</clipPath>
<clipPath id="svg-cta_2-clip_2">
<rect width="15" height="15" fill="white" transform="translate(8)"/>
</clipPath>
</defs>
</svg>
