<?xml version="1.0" encoding="utf-8"?>
<!-- Generator: Adobe Illustrator 24.0.2, SVG Export Plug-In . SVG Version: 6.00 Build 0)  -->
<svg version="1.1" id="Слой_1" xmlns="http://www.w3.org/2000/svg" xmlns:xlink="http://www.w3.org/1999/xlink" x="0px" y="0px"
	 viewBox="0 0 2846.7 736.4" style="enable-background:new 0 0 2846.7 736.4;" xml:space="preserve">
<style type="text/css">
	.st1{fill:url(#SVGID_2_);}
</style>
<linearGradient id="SVGID_2_" gradientUnits="userSpaceOnUse" x1="2846.6909" y1="370.222" x2="1.818989e-12" y2="370.222" gradientTransform="matrix(1 0 0 -1 0 738.4384)">
	<stop  offset="0" style="stop-color:#03B5FF"/>
	<stop  offset="1" style="stop-color:#008CD5"/>
</linearGradient>
<path class="st1" d="M812.9,71.2c-144-71.2-346.7-75.7-430-69c-734.6,13-226.6,578.7,0,469c22.3-15.5,104.9-46.5,256.5-46.5
	c189.5,0,375,165.5,709.5,262.5c267.6,77.6,1023.7,70.7,1379.5-73.3c213.9-122.8,120.9-313.5-144-455.3
	c-268.9-122.8-381-125.2-537-108.4c-195,21-468.5,187.5-698.5,216.5S992.9,160.2,812.9,71.2z"/>
</svg>
