<?xml version="1.0" encoding="utf-8"?>
<!-- Generator: Adobe Illustrator 24.0.2, SVG Export Plug-In . SVG Version: 6.00 Build 0)  -->
<svg version="1.1" id="Слой_1" xmlns="http://www.w3.org/2000/svg" xmlns:xlink="http://www.w3.org/1999/xlink" x="0px" y="0px"
	 viewBox="0 0 1920 1031" style="enable-background:new 0 0 1920 1031;" xml:space="preserve">
<style type="text/css">
	.st0{opacity:0.1;fill:url(#SVGID_1_);enable-background:new    ;}
	.st1{fill:none;stroke:url(#SVGID_2_);}
	.st2{fill:url(#SVGID_3_);}
	.st3{fill:url(#SVGID_4_);}
	.st4{fill:url(#SVGID_5_);}
	.st5{fill:url(#SVGID_6_);}
	.st6{fill:none;stroke:url(#SVGID_7_);}
</style>
<linearGradient id="SVGID_1_" gradientUnits="userSpaceOnUse" x1="-597.5" y1="516.5" x2="2018.5" y2="516.5" gradientTransform="matrix(1 0 0 -1 0 1032)">
	<stop  offset="0" style="stop-color:#FFD200"/>
	<stop  offset="1" style="stop-color:#F69F16"/>
</linearGradient>
<path class="st0" d="M1577.1,56.2c198.4-73,377-59.5,441.4-43.6c-4.1,70.4-9.8,263.9,0,474.8c-376.7-10.9-741.2,233.7-957.2,373.3
	C845.4,1000.3,594.5,985.9,447,894c-123.5-77-600.8-473.4-883.5-430.5C-662.7,497.8-548,969-597.5,1031V91.6
	c275.2-62,518.4,17.7,714,89.2c699.6,295.7,852.9,186,905.4,154.6C1074.3,304.1,1329.1,147.4,1577.1,56.2z"/>
<linearGradient id="SVGID_2_" gradientUnits="userSpaceOnUse" x1="1920.1581" y1="215.5128" x2="1496.6581" y2="215.5128" gradientTransform="matrix(1 0 0 -1 0 1032)">
	<stop  offset="0" style="stop-color:#FFD200"/>
	<stop  offset="1" style="stop-color:#F69F16"/>
</linearGradient>
<path class="st1" d="M1920,978.5c-7-2.3-23.2-11.1-32-27.5c-11-20.5-13-39-13-73s-2-82-39-96.5s-73,8.5-104,26s-85.3,36-133.5,28.5
	c-45-7-102-44-102-182"/>
<linearGradient id="SVGID_3_" gradientUnits="userSpaceOnUse" x1="1920.5" y1="577.3584" x2="-1.5" y2="577.3584" gradientTransform="matrix(1 0 0 -1 0 1032)">
	<stop  offset="0" style="stop-color:#FFD200"/>
	<stop  offset="1" style="stop-color:#F69F16"/>
</linearGradient>
<path class="st2" d="M322.5,117.5c-145.6-53.6-276.7-43.7-324-32c3,51.7,7.2,193.7,0,348.5c276.5-8,544,171.5,702.5,274
	s297,84,399.5,57.5s294-132,501.5-100.5c166,25.2,282.2,122.5,318.5,168V143.5c-202-45.5-382.5,13-526,65.5
	C881,426,768.5,345.5,730,322.5S504.5,184.5,322.5,117.5z"/>
<g>
	
		<linearGradient id="SVGID_4_" gradientUnits="userSpaceOnUse" x1="1420" y1="567.1466" x2="1.818989e-12" y2="567.1466" gradientTransform="matrix(1 0 0 -1 0 1032)">
		<stop  offset="0.3021" style="stop-color:#F69F16"/>
		<stop  offset="1" style="stop-color:#FFD200"/>
	</linearGradient>
	<path class="st3" d="M232,652.5c-93.6-37.6-193.7-31-232-23V229c82-11.5,304,105,533.5,178s393-3,886.5-208
		c-189.5,83-499.5,438-709.5,504.5S349,699.5,232,652.5z"/>
</g>
<g>
	
		<linearGradient id="SVGID_5_" gradientUnits="userSpaceOnUse" x1="1701.5" y1="352.5" x2="1610.5" y2="352.5" gradientTransform="matrix(1 0 0 -1 0 1032)">
		<stop  offset="0" style="stop-color:#FFD200"/>
		<stop  offset="1" style="stop-color:#F69F16"/>
	</linearGradient>
	<circle class="st4" cx="1656" cy="679.5" r="45.5"/>
</g>
<g>
	
		<linearGradient id="SVGID_6_" gradientUnits="userSpaceOnUse" x1="207.5" y1="947.5" x2="158.5" y2="947.5" gradientTransform="matrix(1 0 0 -1 0 1032)">
		<stop  offset="0" style="stop-color:#FFD200"/>
		<stop  offset="1" style="stop-color:#F69F16"/>
	</linearGradient>
	<circle class="st5" cx="183" cy="84.5" r="24.5"/>
</g>
<linearGradient id="SVGID_7_" gradientUnits="userSpaceOnUse" x1="255.683" y1="979.7996" x2="-1.5" y2="979.7996" gradientTransform="matrix(1 0 0 -1 0 1032)">
	<stop  offset="0" style="stop-color:#FFD200"/>
	<stop  offset="1" style="stop-color:#F69F16"/>
</linearGradient>
<path class="st6" d="M-1.5,50.5C13.5,68,53,67.7,83,50.5C120.5,29,176-4,212.5,15c33,17.2,46.5,55.5,42.5,80.5"/>
</svg>
