<svg width="392" height="570" viewBox="0 0 392 570" fill="none" xmlns="http://www.w3.org/2000/svg">
<g clip-path="url(#clip0)">
<path d="M166.908 356.495C133.544 332.102 106.553 309.243 86.5697 288.466C60.4611 261.304 46.3388 237.598 44.5735 218.003C44.4499 216.698 45.4208 215.551 46.7095 215.445C48.0158 215.322 49.1632 216.292 49.2691 217.58C52.3584 251.85 96.9496 300.671 178.294 358.911L166.908 356.495Z" fill="#00B98E"/>
<path d="M65.3333 262.327C65.3333 262.327 52.5879 277.425 26.903 254.002C26.903 254.002 52.9586 236.417 65.3333 262.327Z" fill="#00E2A7"/>
<path d="M77.9374 275.079C77.9374 275.079 62.1381 263.209 84.1159 236.276C84.1159 236.276 103.146 261.304 77.9374 275.079Z" fill="#00E2A7"/>
<path d="M50.3637 232.184C50.3637 232.184 31.5104 226.257 43.2319 193.539C43.2319 193.557 69.517 210.807 50.3637 232.184Z" fill="#00E2A7"/>
<path d="M102.546 301.518C102.546 301.518 95.6609 320.037 63.568 306.686C63.568 306.686 82.1388 281.323 102.546 301.518Z" fill="#00E2A7"/>
<path d="M117.374 312.577C117.374 312.577 99.7564 303.617 116.738 273.297C116.738 273.297 139.793 294.639 117.374 312.577Z" fill="#00E2A7"/>
<path d="M136.157 329.721C136.157 329.721 129.625 348.364 97.285 335.612C97.285 335.612 115.379 309.913 136.157 329.721Z" fill="#00E2A7"/>
<path d="M350.551 209.643C360.437 188.848 367.604 170.522 371.893 155.036C377.489 134.823 378.125 119.461 373.8 109.389C373.517 108.719 372.741 108.419 372.07 108.702C371.399 108.984 371.099 109.76 371.381 110.43C378.954 128.033 370.04 163.767 345.608 213.84L350.551 209.643Z" fill="#00B98E"/>
<path d="M375.371 136.605C375.371 136.605 385.61 140.626 392 122.353C392 122.353 374.559 120.642 375.371 136.605Z" fill="#00E2A7"/>
<path d="M372.564 146.2C372.564 146.2 377.154 136.199 359.254 128.809C359.254 128.809 356.553 146.111 372.564 146.2Z" fill="#00E2A7"/>
<path d="M374.718 117.873C374.718 117.873 382.379 109.972 367.974 97.043C367.957 97.0607 359.66 112.458 374.718 117.873Z" fill="#00E2A7"/>
<path d="M367.515 165.672C367.515 165.672 375.795 172.921 387.993 157.893C387.993 157.876 372.158 150.362 367.515 165.672Z" fill="#00E2A7"/>
<path d="M363.173 175.002C363.173 175.002 369.422 165.954 353.075 155.583C353.075 155.583 347.426 172.162 363.173 175.002Z" fill="#00E2A7"/>
<path d="M358.512 188.389C358.512 188.389 366.65 195.797 379.131 180.999C379.131 180.981 363.455 173.168 358.512 188.389Z" fill="#00E2A7"/>
<path d="M141.629 272.327L150.456 303.14L154.163 302.188L157.782 301.236C160.182 300.601 162.565 299.93 164.966 299.26C169.75 297.92 174.516 296.544 179.265 295.115C188.78 292.24 198.242 289.154 207.704 285.75C217.184 282.346 226.628 278.642 236.178 274.215C240.962 271.992 245.746 269.558 250.671 266.648C253.142 265.184 255.632 263.597 258.209 261.727C260.786 259.84 263.452 257.706 266.312 254.725C267.741 253.19 269.224 251.479 270.707 249.187C271.078 248.622 271.449 247.987 271.819 247.37C272.19 246.7 272.543 246.029 272.896 245.271L273.284 244.424L273.479 243.966L273.867 243.066L275.438 239.45C275.95 238.251 276.444 237.016 276.939 235.799C277.945 233.383 278.863 230.914 279.781 228.462C280.257 227.227 280.663 225.993 281.122 224.758C281.564 223.524 282.005 222.289 282.411 221.037L283.629 217.297C284.035 216.063 284.388 214.793 284.776 213.541C285.553 211.054 286.224 208.514 286.948 205.992C288.289 200.947 289.543 195.868 290.602 190.735C292.685 180.505 294.274 170.169 295.245 159.745C295.704 154.525 296.021 149.286 296.163 143.995C296.233 141.349 296.268 138.686 296.251 135.987C296.233 134.629 296.198 133.271 296.163 131.895L296.074 129.761L296.004 128.65L295.915 127.292L254.678 130.661L254.749 131.825L254.819 133.342C254.855 134.382 254.872 135.44 254.89 136.516C254.943 138.668 254.925 140.855 254.89 143.06C254.819 147.469 254.59 151.914 254.272 156.377C253.654 165.301 252.507 174.208 250.936 183.027C250.124 187.437 249.224 191.828 248.217 196.185C247.176 200.542 246.046 204.863 244.793 209.149C244.493 210.225 244.157 211.283 243.822 212.359C243.486 213.417 243.169 214.493 242.816 215.551C242.109 217.668 241.421 219.784 240.644 221.883C240.256 222.924 239.903 223.982 239.497 225.023L238.296 228.145L237.996 228.921L237.943 229.044C237.414 229.626 236.478 230.49 235.384 231.355C234.077 232.395 232.524 233.489 230.865 234.565C227.51 236.734 223.715 238.868 219.796 240.932C215.86 242.996 211.746 244.971 207.563 246.894C203.379 248.798 199.107 250.668 194.782 252.485C186.132 256.101 177.323 259.54 168.409 262.838C163.96 264.496 159.476 266.119 155.01 267.706L148.284 270.052L144.93 271.216L141.629 272.327Z" fill="url(#paint0_linear)"/>
<path d="M169.503 301.482C169.609 301.482 169.732 301.465 169.838 301.43C170.474 301.236 170.827 300.583 170.633 299.948L159.882 263.808C159.688 263.173 159.035 262.821 158.399 263.015C157.764 263.209 157.411 263.861 157.605 264.496L168.355 300.636C168.514 301.147 168.991 301.482 169.503 301.482Z" fill="#B12413"/>
<path d="M149.379 296.597C149.502 296.597 149.626 296.579 149.732 296.544L166.255 291.323C166.873 291.129 167.226 290.459 167.032 289.824C166.837 289.207 166.167 288.854 165.531 289.048L149.008 294.269C148.39 294.463 148.037 295.133 148.231 295.768C148.408 296.279 148.884 296.597 149.379 296.597Z" fill="#B12413"/>
<path d="M152.186 283.721C151.885 285.203 152.839 286.649 154.322 286.967C155.804 287.266 157.252 286.314 157.57 284.832C157.87 283.351 156.917 281.905 155.434 281.587C153.951 281.27 152.486 282.24 152.186 283.721Z" fill="#B12413"/>
<path d="M143.889 544.073C148.337 536.929 188.144 498.867 188.144 498.867C188.144 498.867 196.265 505.234 195.859 512.254C195.47 518.921 195.717 554.056 195.612 557.759H190.792L188.091 541.727C188.091 541.727 177.076 559.294 168.814 565.291C160.553 571.305 132.661 570.176 125.971 569.295C119.298 568.377 139.44 551.216 143.889 544.073Z" fill="url(#paint1_linear)"/>
<path d="M192.928 481.476L187.633 497.138C187.633 497.138 189.857 502.271 187.615 509.838C185.373 517.404 176.917 529.433 168.85 538.34C161.895 546.03 146.978 553.685 142.512 551.674C138.046 549.664 151.003 534.301 154.816 526.276C158.611 518.251 160.165 510.561 161.471 503.788C162.795 496.874 163.642 479.889 163.642 479.889L192.928 481.476Z" fill="#FFA389"/>
<path d="M26.7441 531.744C33.4875 526.699 84.3984 505.693 84.3984 505.693C84.3984 505.693 89.6413 514.582 86.7286 520.967C83.9395 527.052 71.4059 559.876 69.9584 563.28L65.4569 561.516L68.7756 545.589C68.7756 545.589 52.1289 557.953 42.2433 560.546C32.3577 563.139 6.77868 551.992 0.882618 548.729C-5.01345 545.484 20.0183 536.788 26.7441 531.744Z" fill="url(#paint2_linear)"/>
<path d="M95.1843 491.23L84.5573 503.911C84.5573 503.911 84.7691 509.502 79.9322 515.746C75.0953 521.99 62.8442 530.121 52.076 535.501C42.7906 540.139 26.1086 541.868 22.6839 538.376C19.2593 534.883 36.9121 525.271 43.3731 519.186C49.8341 513.101 54.0707 506.486 57.7425 500.648C61.485 494.687 68.4578 479.166 68.4578 479.166L95.1843 491.23Z" fill="#FFA389"/>
<path d="M140.464 298.925C148.708 290.829 279.904 257.688 323.065 269.717C328.008 279.224 268.094 318.344 252.63 340.638C195.894 349.898 164.242 368.965 164.242 368.965C164.242 368.965 144.136 415.405 132.167 432.461C120.216 449.516 97.4438 496.821 97.4438 496.821L65.4215 481.617C65.4215 481.617 118.027 320.99 140.464 298.925Z" fill="#21181E"/>
<path d="M105.282 478.478C105.741 478.478 106.182 478.213 106.376 477.754C106.641 477.155 106.359 476.449 105.758 476.185L73.6125 462.286C73.0123 462.022 72.3062 462.304 72.0414 462.903C71.7766 463.503 72.059 464.209 72.6592 464.473L104.805 478.372C104.964 478.442 105.123 478.478 105.282 478.478Z" fill="#564C54"/>
<path d="M97.4439 475.091C97.9029 475.091 98.3266 474.827 98.5384 474.386C98.6267 474.174 101.151 468.689 119.616 438.493C139.723 405.581 159.882 358.17 160.094 357.712C160.341 357.112 160.059 356.407 159.458 356.16C158.858 355.895 158.152 356.177 157.905 356.795C157.711 357.271 137.604 404.522 117.586 437.276C98.9268 467.807 96.4554 473.239 96.3671 473.451C96.1023 474.05 96.3671 474.756 96.9673 475.021C97.1262 475.056 97.285 475.091 97.4439 475.091Z" fill="#564C54"/>
<path d="M369.034 259.064C369.034 259.064 413.731 357.236 290.973 364.414C235.578 367.642 209.098 359.07 209.098 359.07C209.098 359.07 207.757 408.032 205.179 428.686C202.602 449.34 194.905 486.168 194.905 486.168H161.7C161.7 486.168 148.39 335.241 175.187 318.732C201.967 302.223 248.429 289.842 314.557 283.492C314.557 283.474 359.289 263.773 369.034 259.064Z" fill="#21181E"/>
<path d="M190.792 468.406C191.34 468.406 191.834 468.018 191.958 467.454C196.741 443.766 198.348 414.276 199.654 390.571C200.731 370.922 201.737 352.367 204.262 350.127C206.309 348.328 214.8 349.722 225.551 351.521C246.946 355.066 279.286 360.428 314.928 352.138C334.346 347.623 348.627 338.204 357.365 324.129C372.441 299.86 365.556 269.77 365.485 269.47C365.327 268.835 364.691 268.429 364.056 268.588C363.42 268.747 363.014 269.382 363.173 270.017C363.243 270.317 369.881 299.489 355.335 322.912C346.95 336.423 333.163 345.489 314.398 349.845C279.198 358.029 247.158 352.703 225.939 349.193C213.229 347.094 205.568 345.806 202.673 348.364C199.548 351.115 198.666 364.696 197.271 390.447C195.982 414.064 194.376 443.467 189.627 466.978C189.504 467.613 189.91 468.248 190.563 468.371C190.634 468.389 190.722 468.406 190.792 468.406Z" fill="#564C54"/>
<path d="M161.065 468.406H161.082L198.012 467.613C198.666 467.595 199.195 467.048 199.177 466.396C199.16 465.743 198.63 465.196 197.959 465.232L161.03 466.025C160.376 466.043 159.847 466.59 159.864 467.242C159.9 467.877 160.429 468.406 161.065 468.406Z" fill="#564C54"/>
<path d="M279.463 308.009H151.515C150.385 308.009 149.485 307.109 149.485 305.98V292.858C149.485 291.729 150.385 290.829 151.515 290.829H279.463C280.593 290.829 281.493 291.729 281.493 292.858V305.98C281.493 307.109 280.575 308.009 279.463 308.009Z" fill="#D7E6F7"/>
<path d="M135.698 308.008C130.737 308.008 126.377 304.675 125.106 299.877L100.427 207.508C98.9268 201.864 103.181 196.326 109.024 196.326H168.126C172.116 196.326 175.611 198.972 176.688 202.817L206.256 308.026H135.698V308.008Z" fill="#EDF6FB"/>
<path d="M176.688 202.817L206.009 307.144H212.77L183.431 202.817C182.337 198.972 178.841 196.326 174.869 196.326H168.108C172.098 196.326 175.593 198.972 176.688 202.817Z" fill="#D7E6F7"/>
<path d="M159.988 253.666C161.33 259.469 157.711 264.179 151.903 264.179C146.095 264.179 140.305 259.469 138.963 253.666C137.622 247.864 141.241 243.154 147.049 243.154C152.856 243.172 158.646 247.864 159.988 253.666Z" fill="#D7E6F7"/>
<path d="M239.92 231.478C240.009 231.566 240.062 231.655 240.132 231.743C240.944 232.748 241.809 233.683 242.745 234.582C248.252 239.962 255.384 243.489 258.156 244.742C258.933 245.095 259.374 245.271 259.374 245.271C259.391 245.306 259.391 245.341 259.409 245.394C259.515 245.747 259.621 246.1 259.745 246.47C260.186 247.934 260.68 249.716 261.069 251.744C265.429 275.096 264.829 273.368 266.77 283.245C307.972 304.128 368.61 264.055 370.004 257.564C363.914 234.6 363.914 234.6 358.301 212.271C355.582 201.494 353.323 184.562 352.458 167.118C352.422 166.43 352.387 165.742 352.352 165.054C352.14 159.922 352.034 154.754 352.087 149.727C352.316 127.715 345.961 111.735 331.857 108.684C327.073 107.643 311.697 109.072 306.225 110.13C304.742 110.412 303.294 110.712 301.917 110.995C294.256 112.617 288.378 114.169 288.378 114.169L254.484 128.773C251.289 130.555 248.464 132.23 245.958 133.871C243.751 135.282 241.809 136.675 240.097 138.033C224.757 150.08 227.934 159.481 231.676 177.242C232.736 182.304 233.389 187.454 233.848 192.463C233.971 194.051 234.077 195.603 234.201 197.173C235.278 212.094 235.119 225.34 239.92 231.478Z" fill="url(#paint3_linear)"/>
<path d="M272.507 154.771C272.808 156.165 274.167 157.064 275.561 156.765C276.956 156.465 277.856 155.107 277.556 153.713C277.256 152.32 275.897 151.42 274.502 151.72C273.125 152.002 272.225 153.378 272.507 154.771Z" fill="#DB3A6B"/>
<path d="M273.761 165.689C274.061 167.083 275.42 167.982 276.815 167.682C278.209 167.382 279.11 166.024 278.81 164.631C278.51 163.238 277.15 162.338 275.756 162.638C274.379 162.92 273.478 164.278 273.761 165.689Z" fill="#DB3A6B"/>
<path d="M291.096 113.481C291.096 113.481 308.837 107.59 311.362 118.244C313.886 128.879 296.445 147.646 278.156 146.605C278.156 146.588 295.28 128.544 291.096 113.481Z" fill="white"/>
<path d="M255.19 128.438C255.19 128.438 235.472 136.587 238.967 147.769C242.462 158.952 262.728 158.317 270.583 148.651C270.583 148.669 260.221 144.524 255.19 128.438Z" fill="white"/>
<path d="M254.872 126.992L258.703 139.532C261.828 149.762 275.314 151.949 281.581 143.272C288.872 133.148 294.238 121.26 291.096 113.464L254.872 126.992Z" fill="#FFA389"/>
<path d="M259.374 245.271C259.391 245.306 259.391 245.341 259.409 245.394C259.515 245.747 259.621 246.1 259.744 246.47C266.558 245.288 274.643 242.131 283.293 236.381C300.346 225.023 319.111 227.263 319.288 227.298C319.464 227.333 319.658 227.28 319.817 227.227C320.135 227.104 320.382 226.786 320.417 226.416C320.506 225.869 320.1 225.375 319.552 225.287C318.758 225.181 299.887 222.924 282.164 234.706C273.196 240.685 264.917 243.772 258.173 244.742C258.932 245.094 259.374 245.271 259.374 245.271Z" fill="#DB3A6B"/>
<path d="M270.619 186.202C281.987 181.475 298.404 155.53 299.093 154.436C299.393 153.96 299.252 153.343 298.775 153.043C298.299 152.743 297.681 152.884 297.381 153.36C297.222 153.625 280.61 179.852 269.842 184.332C259.533 188.618 252.542 178.318 252.472 178.212C252.172 177.753 251.536 177.612 251.077 177.93C250.618 178.23 250.477 178.865 250.795 179.323C250.883 179.447 258.791 191.123 270.619 186.202Z" fill="#DB3A6B"/>
<path d="M263.681 272.521C264.264 272.398 264.67 271.851 264.617 271.251C263.734 261.692 260.609 245.341 260.574 245.183C260.486 244.724 260.133 244.354 259.691 244.248C259.568 244.213 247.617 241.214 240.926 230.826C240.573 230.279 239.832 230.12 239.285 230.473C238.737 230.826 238.579 231.566 238.932 232.113C245.234 241.884 255.508 245.5 258.385 246.347C259.003 249.61 261.492 263.156 262.269 271.463C262.322 272.116 262.904 272.592 263.557 272.539C263.593 272.539 263.646 272.521 263.681 272.521Z" fill="#DB3A6B"/>
<path d="M233.548 29.4198C237.202 41.4664 249.947 48.2746 262.004 44.6236C267.688 42.8951 272.207 39.1735 275.014 34.4289C278.157 29.12 279.163 22.5587 277.221 16.1915C273.567 4.14488 260.821 -2.6633 248.764 0.987722C237.979 4.25071 231.394 14.7628 232.736 25.5748C232.895 26.8447 233.159 28.1323 233.548 29.4198Z" fill="#21181E"/>
<path d="M233.548 29.4198C237.202 41.4664 249.947 48.2746 262.004 44.6236C267.688 42.8951 272.207 39.1735 275.014 34.4289C267.441 28.3439 250.918 18.0787 232.736 25.5748C232.894 26.8447 233.159 28.1323 233.548 29.4198Z" fill="white"/>
<path d="M206.768 66.0358C206.768 66.0358 205.285 84.873 216.318 89.2295L211.058 65.2245L206.768 66.0358Z" fill="#21181E"/>
<path d="M212.082 44.9411C212.082 44.9411 228.623 17.5496 259.444 28.8201C290.796 40.2847 299.728 87.695 277.221 99.4771C277.221 99.4771 228.481 74.9429 212.082 44.9411Z" fill="#21181E"/>
<path d="M249.735 116.127L256.496 132.812C256.496 132.812 272.525 143.06 290.761 113.869C283.311 110.589 278.351 100.183 277.45 92.9158C277.45 92.9158 275.844 94.4679 273.567 97.7309C273.125 98.3659 272.49 98.9303 271.89 99.5829C266.612 105.28 258.297 113.023 249.735 116.127Z" fill="#FFA389"/>
<path d="M249.735 116.127L252.948 124.029C259.339 119.231 270.336 109.566 273.567 97.7133C273.055 98.2953 272.49 98.9127 271.89 99.5653C266.612 105.28 258.297 113.023 249.735 116.127Z" fill="#FF8072"/>
<path d="M232.736 116.374C251.924 127.204 276.709 93.9741 277.45 92.9687C277.468 92.9511 277.468 92.9511 277.468 92.9511C277.168 91.5224 276.85 90.129 276.497 88.7709C273.602 77.1476 269.189 67.147 263.805 58.1694C259.797 47.9571 249.629 41.3606 238.685 42.2072C227.334 43.0715 220.555 51.3083 216.036 55.3121C209.222 61.3442 208.887 73.8317 215.471 88.4182C223.538 106.303 227.44 113.376 232.736 116.374Z" fill="#FFA389"/>
<path d="M237.626 104.081C241.845 103.798 243.433 98.3306 240.115 95.7202C238.438 94.415 236.284 93.5331 233.901 94.6972C230.158 96.5316 232.012 100.094 233.565 102.158C234.501 103.393 235.966 104.151 237.52 104.081C237.555 104.081 237.59 104.081 237.626 104.081Z" fill="white"/>
<path d="M232.259 68.0818C231.659 67.8525 231.129 67.4468 230.776 66.9001C230.317 66.1946 230.105 65.1363 231.412 64.0251C233.777 61.9968 237.855 67.8525 244.422 65.3127C244.422 65.3303 242.851 72.1561 232.259 68.0818Z" fill="#21181E"/>
<path d="M221.12 73.5143C221.314 72.8969 221.349 72.2267 221.155 71.627C220.89 70.8157 220.22 70.0043 218.525 70.3042C215.453 70.851 217.413 77.712 211.27 81.1867C211.287 81.169 217.554 84.2733 221.12 73.5143Z" fill="#21181E"/>
<path d="M268.006 88.1889C268.183 88.3476 273.196 92.8982 277.45 92.9687C277.45 92.9511 277.468 92.9334 277.468 92.9334C277.168 91.5048 276.85 90.1114 276.497 88.7533C276.356 88.8062 272.543 89.7939 268.006 88.1889Z" fill="#21181E"/>
<path d="M265.552 73.7964C265.552 73.7964 268.447 60.4799 277.433 65.8418C284.829 70.2513 284 90.8875 272.525 89.1589L265.552 73.7964Z" fill="#FFA389"/>
<path d="M275.032 88.1713C275.615 89.4412 277.115 90.0232 278.404 89.4412C279.675 88.8591 280.257 87.3599 279.675 86.0724C279.092 84.8024 277.592 84.2204 276.303 84.8024C275.014 85.3845 274.449 86.9013 275.032 88.1713Z" fill="white"/>
<path d="M272.19 85.6843C272.578 85.5079 272.772 85.067 272.631 84.6613C270.036 76.7596 275.156 71.2742 275.367 71.045C275.685 70.7098 275.667 70.1807 275.332 69.8632C274.997 69.5457 274.467 69.5457 274.149 69.8809C273.902 70.1454 268.112 76.301 271.025 85.1905C271.166 85.6314 271.643 85.8607 272.084 85.7196C272.137 85.7019 272.155 85.702 272.19 85.6843Z" fill="#21181E"/>
<path d="M277.203 77.8355C277.433 77.7297 277.609 77.5357 277.662 77.2887C277.786 76.8478 277.503 76.3892 277.062 76.2658C276.638 76.1599 272.931 75.2428 270.901 76.8654C270.548 77.1476 270.478 77.6768 270.778 78.0472C271.06 78.3999 271.59 78.4705 271.96 78.1706C273.125 77.2358 275.738 77.6415 276.638 77.8884C276.833 77.9237 277.027 77.9061 277.203 77.8355Z" fill="#21181E"/>
<path d="M237.59 78.3646C238.437 80.2166 239.956 81.3454 240.997 80.8692C242.039 80.393 242.198 78.5234 241.35 76.6538C240.503 74.8018 238.985 73.673 237.943 74.1492C236.919 74.6254 236.76 76.5127 237.59 78.3646Z" fill="#21181E"/>
<path d="M219.249 86.6897C220.096 88.5416 221.614 89.6705 222.656 89.1942C223.697 88.718 223.856 86.8484 223.009 84.9788C222.162 83.1268 220.643 81.998 219.602 82.4742C218.56 82.9505 218.402 84.8377 219.249 86.6897Z" fill="#21181E"/>
<path d="M260.839 47.5691C260.839 47.5691 254.89 61.4147 249.576 61.0796C244.263 60.7269 247.352 49.2094 247.352 49.2094C247.352 49.2094 236.019 64.1662 229.046 64.1662C222.073 64.1662 229.258 52.4547 229.258 52.4547C229.258 52.4547 222.409 67.8702 215.612 70.216C208.798 72.5794 211.605 61.3795 211.605 61.3795C211.605 61.3795 210.881 75.6308 206.486 76.4245C202.09 77.2182 199.848 58.2399 210.369 46.6696C220.855 35.1168 254.572 21.0419 260.839 47.5691Z" fill="#21181E"/>
<path d="M252.56 54.2009C252.56 54.2009 257.061 77.5004 264.264 77.13C272.772 76.6891 268.748 58.3634 259.639 45.3467L252.56 54.2009Z" fill="#21181E"/>
<path d="M230.723 90.0056C231.676 89.5646 232.877 88.8238 233.865 87.5363C234.148 87.1659 234.077 86.6367 233.707 86.3545C233.336 86.0723 232.806 86.1429 232.524 86.5133C231.641 87.6774 230.494 88.2947 229.699 88.5945L228.94 80.2519C228.905 79.7933 228.499 79.4582 228.022 79.4935C227.563 79.5287 227.228 79.9344 227.263 80.4106L228.111 89.7763C228.128 90.0056 228.252 90.2172 228.428 90.3583C228.623 90.4994 228.852 90.5523 229.082 90.5171C229.17 90.5347 229.841 90.4112 230.723 90.0056Z" fill="#21181E"/>
<path d="M204.509 277.76L211.817 303.758C214.712 305.204 218.896 306.086 225.939 304.763L216.76 277.46C216.76 277.442 211.34 277.301 204.509 277.76Z" fill="#FFA389"/>
<path d="M306.313 133.765L306.737 134.735L307.301 136.111C307.672 137.063 308.043 138.033 308.414 139.039C309.155 141.032 309.861 143.078 310.514 145.141C311.838 149.286 312.986 153.537 313.957 157.805C315.951 166.36 317.24 175.055 317.699 183.697C317.823 185.867 317.876 188.019 317.893 190.171C317.929 192.322 317.893 194.474 317.805 196.608C317.734 198.742 317.593 200.877 317.399 203.011C317.222 205.127 316.958 207.244 316.658 209.343C316.375 211.442 316.004 213.523 315.598 215.604C315.175 217.668 314.716 219.731 314.186 221.777C313.656 223.823 313.074 225.852 312.421 227.845C312.103 228.85 311.768 229.838 311.415 230.826L311.291 231.196L311.238 231.355L311.309 231.196C311.415 230.984 311.468 230.843 311.556 230.702C311.697 230.455 311.768 230.349 311.821 230.314C311.874 230.279 311.732 230.526 311.415 230.896C311.114 231.267 310.656 231.725 310.126 232.237C309.049 233.26 307.619 234.424 306.048 235.588C302.888 237.934 299.146 240.262 295.262 242.537C287.442 247.07 278.916 251.285 270.266 255.324C261.581 259.346 252.683 263.191 243.716 266.877C239.232 268.747 234.713 270.564 230.194 272.345L223.397 274.973L220.008 276.278L216.689 277.53L226.575 308.009L230.335 306.915L233.989 305.821C236.425 305.081 238.844 304.322 241.262 303.546C246.099 302.012 250.918 300.424 255.737 298.784C265.358 295.486 274.926 291.993 284.476 288.131C294.044 284.286 303.559 280.106 313.18 275.114C317.999 272.609 322.818 269.858 327.796 266.507C330.286 264.814 332.81 262.962 335.458 260.704C336.782 259.558 338.123 258.323 339.5 256.859C340.877 255.413 342.325 253.719 343.755 251.638C344.478 250.562 345.202 249.398 345.908 248.04C346.261 247.335 346.597 246.647 346.932 245.853L347.179 245.271L347.285 244.989L347.479 244.495C348.009 243.172 348.521 241.832 349.015 240.491C350.004 237.81 350.904 235.094 351.734 232.36C352.563 229.626 353.287 226.857 353.976 224.088C354.629 221.319 355.229 218.532 355.723 215.728C357.718 204.528 358.512 193.204 358.159 182.022C357.824 170.84 356.429 159.781 354.17 148.933C353.005 143.519 351.61 138.157 349.986 132.83C349.174 130.167 348.291 127.503 347.321 124.84C346.826 123.5 346.332 122.159 345.785 120.801C345.52 120.113 345.238 119.425 344.937 118.72L344.478 117.626L344.231 117.044L343.878 116.268L306.313 133.765Z" fill="url(#paint4_linear)"/>
<path d="M327.549 239.433C327.92 239.433 328.308 239.256 328.538 238.921C328.908 238.375 328.767 237.634 328.238 237.263C321.547 232.678 312.474 228.586 312.085 228.409C311.485 228.145 310.779 228.409 310.514 229.009C310.249 229.609 310.514 230.314 311.114 230.579C311.203 230.614 320.382 234.759 326.896 239.221C327.09 239.362 327.32 239.433 327.549 239.433Z" fill="#DB3A6B"/>
<path d="M323.771 231.602C324.372 231.602 324.901 231.143 324.954 230.526C325.025 229.873 324.548 229.291 323.895 229.221C323.63 229.185 317.187 228.568 312.226 228.603C311.573 228.603 311.044 229.15 311.044 229.803C311.044 230.455 311.591 230.967 312.244 230.984C317.081 230.949 323.595 231.584 323.666 231.584C323.683 231.602 323.736 231.602 323.771 231.602Z" fill="#DB3A6B"/>
<path d="M242.833 269.17C243.01 269.17 243.169 269.135 243.327 269.064C284.529 249.892 311.185 231.884 312.385 230.208C312.474 230.067 312.544 229.908 312.58 229.75C313.092 227.104 325.131 164.843 317.258 142.231C317.046 141.614 316.357 141.279 315.74 141.508C315.122 141.72 314.786 142.407 315.016 143.025C322.395 164.19 311.291 223.806 310.32 228.956C307.637 231.302 281.652 248.622 242.339 266.93C241.739 267.212 241.491 267.918 241.756 268.5C241.95 268.905 242.374 269.17 242.833 269.17Z" fill="#DB3A6B"/>
<path d="M314.31 153.819C314.61 153.819 314.91 153.713 315.139 153.484C315.616 153.025 315.616 152.267 315.157 151.808L310.02 146.57C309.561 146.094 308.802 146.094 308.343 146.552C307.866 147.011 307.866 147.769 308.325 148.228L313.462 153.466C313.692 153.696 314.009 153.819 314.31 153.819Z" fill="#DB3A6B"/>
<path d="M244.563 302.893C244.687 302.893 244.81 302.876 244.934 302.823C245.552 302.611 245.887 301.941 245.675 301.324L235.684 271.622C235.472 271.004 234.801 270.669 234.183 270.881C233.565 271.093 233.23 271.763 233.442 272.38L243.433 302.082C243.592 302.576 244.051 302.893 244.563 302.893Z" fill="#DB3A6B"/>
<path d="M225.215 301.535C225.339 301.535 225.48 301.518 225.622 301.465L241.968 295.662C242.586 295.45 242.904 294.763 242.692 294.145C242.48 293.528 241.792 293.21 241.174 293.422L224.827 299.225C224.209 299.437 223.892 300.124 224.103 300.742C224.28 301.236 224.739 301.535 225.215 301.535Z" fill="#DB3A6B"/>
<path d="M227.616 288.554C227.369 290.053 228.376 291.464 229.858 291.711C231.359 291.958 232.771 290.953 233.018 289.471C233.265 287.972 232.259 286.561 230.776 286.314C229.276 286.049 227.864 287.055 227.616 288.554Z" fill="#DB3A6B"/>
</g>
<defs>
<linearGradient id="paint0_linear" x1="296.247" y1="215.239" x2="141.621" y2="215.239" gradientUnits="userSpaceOnUse">
<stop stop-color="#F44776"/>
<stop offset="1" stop-color="#FD6282"/>
</linearGradient>
<linearGradient id="paint1_linear" x1="195.875" y1="534.431" x2="124.632" y2="534.431" gradientUnits="userSpaceOnUse">
<stop stop-color="#F44776"/>
<stop offset="1" stop-color="#FD6282"/>
</linearGradient>
<linearGradient id="paint2_linear" x1="87.622" y1="534.482" x2="-2.54038e-05" y2="534.482" gradientUnits="userSpaceOnUse">
<stop stop-color="#F44776"/>
<stop offset="1" stop-color="#FD6282"/>
</linearGradient>
<linearGradient id="paint3_linear" x1="364.718" y1="198.775" x2="363.835" y2="198.775" gradientUnits="userSpaceOnUse">
<stop stop-color="#F44776"/>
<stop offset="1" stop-color="#FD6282"/>
</linearGradient>
<linearGradient id="paint4_linear" x1="358.196" y1="212.162" x2="216.654" y2="212.162" gradientUnits="userSpaceOnUse">
<stop stop-color="#F44776"/>
<stop offset="1" stop-color="#FD6282"/>
</linearGradient>
<clipPath id="clip0">
<rect width="392" height="570" fill="white"/>
</clipPath>
</defs>
</svg>
