<svg width="11" height="11" viewBox="0 0 11 11" fill="none" xmlns="http://www.w3.org/2000/svg">
<path d="M0.661191 4.72795C0.7062 4.72065 0.751751 4.71728 0.797325 4.71787H8.5576L8.38839 4.63916C8.22299 4.56088 8.07252 4.45433 7.94371 4.32435L5.76753 2.14817C5.48093 1.87457 5.43277 1.43444 5.65341 1.10533C5.91021 0.754633 6.40268 0.678486 6.7534 0.935284C6.78174 0.956042 6.80867 0.97867 6.83398 1.00302L10.7692 4.93824C11.0767 5.24543 11.077 5.74375 10.7698 6.05129C10.7696 6.05149 10.7694 6.05171 10.7692 6.05191L6.83398 9.98713C6.52619 10.294 6.02787 10.2934 5.72093 9.98558C5.69677 9.96135 5.67422 9.93558 5.65341 9.90842C5.43277 9.57932 5.48093 9.13919 5.76753 8.86559L7.93978 6.68548C8.05525 6.56988 8.18801 6.47295 8.3333 6.39821L8.56941 6.29196H0.840637C0.43858 6.30688 0.0858368 6.02603 0.0103051 5.63084C-0.0592745 5.20178 0.232129 4.79756 0.661191 4.72795Z" fill="black"/>
</svg>
