<svg width="14" height="14" viewBox="0 0 14 14" fill="none" xmlns="http://www.w3.org/2000/svg">
<path d="M13.0614 3.48626C12.4354 2.41385 11.5863 1.56475 10.5139 0.938807C9.44126 0.312893 8.27033 0 7.00021 0C5.73021 0 4.55893 0.312893 3.48649 0.938807C2.41398 1.56466 1.56488 2.41376 0.938903 3.48626C0.312893 4.55884 0 5.73012 0 7.00002C0 8.26998 0.312989 9.44107 0.938807 10.5137C1.56475 11.5861 2.41385 12.4352 3.48636 13.0612C4.55893 13.6871 5.73012 14 7.00008 14C8.27004 14 9.44136 13.6871 10.5139 13.0612C11.5863 12.4354 12.4354 11.5861 13.0613 10.5137C13.6871 9.44116 14 8.26991 14 7.00002C14 5.72999 13.6871 4.55868 13.0614 3.48626ZM11.2931 9.48825C10.8495 10.2478 10.248 10.8495 9.48848 11.2931C8.72896 11.7366 7.89956 11.9582 7.00011 11.9582C6.10089 11.9582 5.27143 11.7366 4.51181 11.2931C3.75229 10.8495 3.15077 10.2478 2.70721 9.48825C2.26355 8.72873 2.0418 7.8993 2.0418 7.00002C2.0418 6.10067 2.26365 5.27123 2.70721 4.51172C3.15067 3.7522 3.75236 3.15054 4.51181 2.70702C5.27133 2.26342 6.10076 2.04171 7.00011 2.04171C7.89952 2.04171 8.72896 2.26342 9.48848 2.70702C10.248 3.15058 10.8496 3.7522 11.2931 4.51172C11.7367 5.27123 11.9583 6.10067 11.9583 7.00002C11.9583 7.8993 11.7367 8.72873 11.2931 9.48825Z" fill="black"/>
<path d="M7.8752 3.49976H7.29181C7.2066 3.49976 7.13688 3.52718 7.08206 3.5818C7.0276 3.63649 7.00018 3.70631 7.00018 3.79139V6.99981H4.9585C4.87336 6.99981 4.80357 7.0271 4.74885 7.08166C4.6942 7.13632 4.66687 7.2062 4.66687 7.29144V7.87473C4.66687 7.95985 4.6942 8.02976 4.74885 8.08438C4.8036 8.13901 4.87352 8.1663 4.9585 8.1663H7.87536C7.96034 8.1663 8.03029 8.13901 8.08482 8.08438C8.13944 8.02976 8.16696 7.95985 8.16696 7.87473V3.79139C8.16696 3.70637 8.13944 3.63658 8.08482 3.5818C8.03023 3.52718 7.96031 3.49976 7.8752 3.49976Z" fill="black"/>
</svg>
