<svg width="18" height="17" viewBox="0 0 18 17" fill="none" xmlns="http://www.w3.org/2000/svg">
<path d="M2.31037 0H15.6896C16.9602 0 17.9998 0.888444 17.9998 2.18184V14.8182C17.9998 16.1116 16.9602 17 15.6896 17H2.31037C1.0394 17 0 16.1116 0 14.8182V2.18184C0 0.888444 1.0394 0 2.31037 0ZM13.1122 1.88877C12.6664 1.88877 12.3022 2.23298 12.3022 2.65416V4.48603C12.3022 4.90704 12.6664 5.25142 13.1122 5.25142H15.1467C15.5924 5.25142 15.9571 4.90704 15.9571 4.48603V2.65416C15.9571 2.23298 15.5924 1.88877 15.1467 1.88877H13.1122ZM15.9656 7.18924H14.3813C14.5312 7.65144 14.6124 8.14104 14.6124 8.64758C14.6124 11.4752 12.107 13.7674 9.0171 13.7674C5.92737 13.7674 3.42239 11.4752 3.42239 8.64758C3.42239 8.1407 3.50334 7.65127 3.65341 7.18924H2.00025V14.3703C2.00025 14.7419 2.32219 15.0461 2.71585 15.0461H15.2503C15.644 15.0461 15.9659 14.7421 15.9659 14.3703V7.18924H15.9656ZM9.01691 5.1549C7.02055 5.1549 5.40194 6.63593 5.40194 8.46308C5.40194 10.2902 7.02055 11.7713 9.01691 11.7713C11.0135 11.7713 12.6323 10.2902 12.6323 8.46308C12.6323 6.63593 11.0136 5.1549 9.01691 5.1549Z" fill="black"/>
</svg>
