<svg width="12" height="10" viewBox="0 0 12 10" fill="none" xmlns="http://www.w3.org/2000/svg">
<path d="M1.15176 3.19189C1.30356 3.299 1.76114 3.61714 2.52452 4.14614C3.28792 4.67513 3.87274 5.08245 4.27899 5.3681C4.32363 5.39941 4.41845 5.46748 4.56352 5.57239C4.70861 5.67737 4.82917 5.76221 4.9251 5.82692C5.0211 5.89161 5.13715 5.96418 5.27338 6.04451C5.40955 6.12477 5.53792 6.18514 5.65845 6.22511C5.77901 6.2654 5.89061 6.28536 5.99327 6.28536H6H6.00676C6.10942 6.28536 6.22106 6.26538 6.34162 6.22511C6.4621 6.18514 6.59059 6.1247 6.72665 6.04451C6.86278 5.96408 6.97883 5.89158 7.07483 5.82692C7.17083 5.76221 7.29129 5.67737 7.43643 5.57239C7.58148 5.46738 7.67642 5.39941 7.72105 5.3681C8.1317 5.08245 9.17644 4.35697 10.8549 3.19174C11.1808 2.96416 11.4531 2.68956 11.6718 2.36811C11.8907 2.04681 12 1.70974 12 1.3571C12 1.06242 11.8939 0.810161 11.6818 0.600359C11.4698 0.39051 11.2186 0.285645 10.9285 0.285645H1.07138C0.727657 0.285645 0.463135 0.401698 0.277867 0.633805C0.0926224 0.865959 0 1.15614 0 1.50432C0 1.78557 0.122808 2.09034 0.368308 2.41845C0.613784 2.74658 0.875022 3.00441 1.15176 3.19189Z" fill="url(#paint0_linear)"/>
<path d="M11.3303 3.90825C9.86614 4.89923 8.75439 5.66939 7.99556 6.21855C7.7411 6.40598 7.53468 6.55229 7.37615 6.65713C7.21762 6.76204 7.00679 6.86918 6.74334 6.97851C6.47999 7.08799 6.23457 7.14257 6.00684 7.14257H6.00002H5.99329C5.76561 7.14257 5.52004 7.08799 5.2567 6.97851C4.99335 6.86918 4.78237 6.76204 4.62389 6.65713C4.46545 6.55229 4.25896 6.40598 4.00452 6.21855C3.40181 5.77662 2.29245 5.00642 0.676408 3.90825C0.421878 3.73872 0.196432 3.5444 0 3.32568V8.64249C0 8.93732 0.104866 9.18943 0.314714 9.39926C0.524516 9.60915 0.776793 9.71406 1.07145 9.71406H10.9286C11.2232 9.71406 11.4755 9.60915 11.6853 9.39926C11.8952 9.18936 12 8.93734 12 8.64249V3.32568C11.808 3.53987 11.5849 3.73419 11.3303 3.90825Z" fill="url(#paint1_linear)"/>
<defs>
<linearGradient id="paint0_linear" x1="12" y1="6.28536" x2="0" y2="6.28536" gradientUnits="userSpaceOnUse">
<stop stop-color="#FF6784"/>
<stop offset="0.0001"/>
</linearGradient>
<linearGradient id="paint1_linear" x1="12" y1="9.71406" x2="0" y2="9.71406" gradientUnits="userSpaceOnUse">
<stop stop-color="#FF6784"/>
<stop offset="0.0001"/>
</linearGradient>
</defs>
</svg>
