<svg width="12" height="14" viewBox="0 0 12 14" fill="none" xmlns="http://www.w3.org/2000/svg">
<path d="M6 0C3.10498 0 0.75 2.35525 0.75 5.25C0.75 9.12313 5.59384 13.7266 5.80006 13.9208C5.85645 13.9735 5.92822 14 6 14C6.07178 14 6.14355 13.9735 6.19996 13.9208C6.40616 13.7266 11.25 9.12313 11.25 5.25C11.25 2.35525 8.89502 0 6 0ZM6 8.16668C4.39183 8.16668 3.08332 6.85817 3.08332 5.25C3.08332 3.64183 4.39186 2.33332 6 2.33332C7.60814 2.33332 8.91668 3.64186 8.91668 5.25C8.91668 6.85814 7.60817 8.16668 6 8.16668Z" fill="url(#paint0_linear)"/>
<defs>
<linearGradient id="paint0_linear" x1="11.25" y1="14" x2="0.75" y2="14" gradientUnits="userSpaceOnUse">
<stop stop-color="#03B5FF"/>
<stop offset="0.0001"/>
</linearGradient>
</defs>
</svg>
