<svg width="15" height="15" viewBox="0 0 15 15" fill="none" xmlns="http://www.w3.org/2000/svg">
<path d="M14.3651 0.0248562L0.33312 4.60996C-0.0631627 4.73946 -0.12047 5.27848 0.240189 5.48817L5.54301 8.57168C5.71031 8.66896 5.9194 8.65723 6.07472 8.54186L7.56538 7.43484L6.45836 8.9255C6.34302 9.08085 6.33129 9.28997 6.42854 9.45723L9.51204 14.7601C9.72198 15.121 10.2609 15.0631 10.3903 14.6671L14.9754 0.635127C15.0984 0.25835 14.7401 -0.0977424 14.3651 0.0248562ZM9.80575 13.34L7.42539 9.24642L10.2957 5.38142C10.4387 5.18878 10.419 4.92045 10.2494 4.7508C10.0797 4.58114 9.81134 4.56143 9.61874 4.70447L5.75374 7.5748L1.66014 5.19441L13.7593 1.24086L9.80575 13.34ZM5.08029 10.6042L1.86751 13.8169C1.67856 14.0058 1.37218 14.0059 1.18324 13.8169C0.994257 13.628 0.994257 13.3216 1.18324 13.1327L4.39602 9.9199C4.58503 9.73098 4.8914 9.73092 5.08029 9.9199C5.26927 10.1088 5.26927 10.4152 5.08029 10.6042ZM0.835944 10.7257C0.646965 10.5368 0.646965 10.2304 0.835944 10.0415L2.10366 8.77372C2.29261 8.58474 2.59899 8.58474 2.78793 8.77372C2.97691 8.9627 2.97691 9.26904 2.78793 9.45799L1.52022 10.7257C1.3313 10.9147 1.02489 10.9147 0.835944 10.7257ZM6.22647 12.2122C6.41545 12.4012 6.41545 12.7075 6.22647 12.8965L4.95872 14.1642C4.86425 14.2587 4.74041 14.306 4.6166 14.306C4.18938 14.306 3.9688 13.7856 4.27448 13.4799L5.54223 12.2122C5.73115 12.0232 6.03752 12.0232 6.22647 12.2122Z" fill="#000"/>
</svg>
