<svg width="11" height="11" viewBox="0 0 11 11" fill="none" xmlns="http://www.w3.org/2000/svg">
<g clip-path="url(#clip0)">
<path d="M5.42168 5.29873C6.14963 5.29873 6.77998 5.03765 7.29501 4.52253C7.81005 4.00749 8.07114 3.37731 8.07114 2.64928C8.07114 1.9215 7.81005 1.29124 7.29493 0.776036C6.77981 0.261084 6.14954 0 5.42168 0C4.69364 0 4.06346 0.261084 3.54842 0.77612C3.03339 1.29116 2.77222 1.92142 2.77222 2.64928C2.77222 3.37731 3.03339 4.00758 3.54851 4.52261C4.06363 5.03756 4.69389 5.29873 5.42168 5.29873Z" fill="#000"/>
<path d="M10.0575 8.45849C10.0426 8.24415 10.0126 8.01034 9.96833 7.76344C9.92368 7.51469 9.8662 7.27954 9.79738 7.06461C9.7263 6.84247 9.62962 6.6231 9.51011 6.41287C9.38607 6.19467 9.24038 6.00467 9.0769 5.84832C8.90594 5.68475 8.69664 5.55324 8.45461 5.45732C8.21341 5.3619 7.94611 5.31356 7.66019 5.31356C7.5479 5.31356 7.4393 5.35963 7.22958 5.49618C7.1005 5.58035 6.94952 5.6777 6.78101 5.78538C6.63691 5.87719 6.4417 5.96321 6.20059 6.04109C5.96535 6.11721 5.72651 6.15581 5.49077 6.15581C5.25503 6.15581 5.01627 6.11721 4.78078 6.04109C4.53992 5.96329 4.34471 5.87727 4.20078 5.78546C4.03386 5.67879 3.8828 5.58144 3.75179 5.49609C3.54232 5.35955 3.43364 5.31348 3.32135 5.31348C3.03534 5.31348 2.76813 5.3619 2.52702 5.4574C2.28515 5.55316 2.07576 5.68467 1.90464 5.8484C1.74124 6.00483 1.59547 6.19475 1.4716 6.41287C1.35217 6.6231 1.25549 6.84239 1.18433 7.0647C1.11559 7.27962 1.05811 7.51469 1.01346 7.76344C0.969231 8.01001 0.939186 8.2439 0.924332 8.45874C0.909729 8.66922 0.902344 8.88767 0.902344 9.10831C0.902344 9.68251 1.08488 10.1474 1.44482 10.4902C1.80032 10.8285 2.27071 11.0001 2.84274 11.0001H8.13931C8.71133 11.0001 9.18155 10.8286 9.53713 10.4902C9.89716 10.1476 10.0797 9.68268 10.0797 9.10822C10.0796 8.88658 10.0721 8.66796 10.0575 8.45849Z" fill="#000"/>
</g>
<defs>
<clipPath id="clip0">
<rect width="11" height="11" fill="#000"/>
</clipPath>
</defs>
</svg>
