<svg width="20" height="16" viewBox="0 0 20 16" fill="none" xmlns="http://www.w3.org/2000/svg">
<path d="M19.9888 6.32597C19.9815 5.92423 19.9497 5.41628 19.8941 4.80259C19.8381 4.18855 19.7581 3.63979 19.654 3.15627C19.535 2.61318 19.2764 2.15555 18.8784 1.78352C18.4804 1.41141 18.0172 1.19571 17.4888 1.13609C15.8368 0.950214 13.3406 0.857178 9.99996 0.857178C6.65928 0.857178 4.163 0.950214 2.51121 1.13609C1.98285 1.19567 1.52146 1.41141 1.12723 1.78352C0.73284 2.15543 0.476129 2.61307 0.357058 3.15627C0.24557 3.63995 0.161759 4.18867 0.105976 4.80259C0.0502711 5.41628 0.0186073 5.92403 0.0112191 6.32597C0.00367456 6.72774 0 7.28573 0 8.00008C0 8.71435 0.00367456 9.27249 0.0112582 9.67419C0.0186464 10.0762 0.0503102 10.5839 0.106015 11.1975C0.161798 11.8115 0.241817 12.3603 0.345995 12.8439C0.465066 13.3871 0.723575 13.8447 1.12164 14.2166C1.51978 14.5886 1.98305 14.8043 2.51125 14.8639C4.16304 15.05 6.65916 15.143 10 15.143C13.341 15.143 15.8369 15.05 17.4888 14.8639C18.0172 14.8044 18.4784 14.5886 18.8728 14.2166C19.2672 13.8446 19.5238 13.3869 19.6428 12.8439C19.7544 12.3603 19.8381 11.8115 19.8941 11.1975C19.9497 10.5839 19.9813 10.076 19.9888 9.67419C19.9962 9.27249 20 8.71435 20 8.00008C20 7.28573 19.9963 6.72774 19.9888 6.32597ZM13.9509 8.60278L8.23672 12.1741C8.1325 12.2485 8.00589 12.2857 7.85715 12.2857C7.74562 12.2857 7.6303 12.2558 7.51127 12.1963C7.26578 12.0625 7.14307 11.8541 7.14307 11.5714V4.42876C7.14307 4.14618 7.26581 3.93774 7.51127 3.80386C7.7643 3.66973 8.00604 3.67724 8.23672 3.82618L13.951 7.39753C14.1741 7.52379 14.2857 7.7248 14.2857 8.00012C14.2857 8.27532 14.1741 8.4764 13.9509 8.60278Z" fill="black"/>
</svg>
