<svg width="1920" height="1201" viewBox="0 0 1920 1201" fill="none" xmlns="http://www.w3.org/2000/svg">
<path d="M619 424C275 403.5 77.5 307.5 -2 216.5L-3.5 1122C64 1148.17 230.2 1200.5 355 1200.5C511 1200.5 753 1130.5 844.5 1094C936 1057.5 1204.5 902.5 1473 902.5C1687.8 902.5 1860.5 1045.17 1920 1116.5V403.5C1889.5 375.333 1779.9 319 1585.5 319C1342.5 319 1018.15 447.786 619 424Z" fill="#F2FBFE"/>
<g clip-path="url(#clip0)">
<path d="M1403.91 356.495C1370.54 332.102 1343.55 309.243 1323.57 288.466C1297.46 261.304 1283.34 237.598 1281.57 218.003C1281.45 216.698 1282.42 215.551 1283.71 215.445C1285.02 215.322 1286.16 216.292 1286.27 217.58C1289.36 251.85 1333.95 300.671 1415.29 358.911L1403.91 356.495Z" fill="#00B98E"/>
<path d="M1302.33 262.327C1302.33 262.327 1289.59 277.424 1263.9 254.002C1263.9 254.002 1289.96 236.417 1302.33 262.327Z" fill="#00E2A7"/>
<path d="M1314.94 275.079C1314.94 275.079 1299.14 263.209 1321.12 236.276C1321.12 236.276 1340.15 261.304 1314.94 275.079Z" fill="#00E2A7"/>
<path d="M1287.36 232.184C1287.36 232.184 1268.51 226.257 1280.23 193.539C1280.23 193.557 1306.52 210.807 1287.36 232.184Z" fill="#00E2A7"/>
<path d="M1339.55 301.518C1339.55 301.518 1332.66 320.037 1300.57 306.686C1300.57 306.686 1319.14 281.322 1339.55 301.518Z" fill="#00E2A7"/>
<path d="M1354.37 312.577C1354.37 312.577 1336.76 303.617 1353.74 273.297C1353.74 273.297 1376.79 294.639 1354.37 312.577Z" fill="#00E2A7"/>
<path d="M1373.16 329.721C1373.16 329.721 1366.63 348.364 1334.29 335.612C1334.29 335.612 1352.38 309.913 1373.16 329.721Z" fill="#00E2A7"/>
<path d="M1587.55 209.643C1597.44 188.848 1604.6 170.522 1608.89 155.036C1614.49 134.823 1615.12 119.461 1610.8 109.389C1610.52 108.719 1609.74 108.419 1609.07 108.702C1608.4 108.984 1608.1 109.76 1608.38 110.43C1615.95 128.033 1607.04 163.767 1582.61 213.84L1587.55 209.643Z" fill="#00B98E"/>
<path d="M1612.37 136.605C1612.37 136.605 1622.61 140.626 1629 122.353C1629 122.353 1611.56 120.642 1612.37 136.605Z" fill="#00E2A7"/>
<path d="M1609.56 146.2C1609.56 146.2 1614.15 136.199 1596.25 128.809C1596.25 128.809 1593.55 146.111 1609.56 146.2Z" fill="#00E2A7"/>
<path d="M1611.72 117.873C1611.72 117.873 1619.38 109.972 1604.97 97.043C1604.96 97.0607 1596.66 112.458 1611.72 117.873Z" fill="#00E2A7"/>
<path d="M1604.52 165.672C1604.52 165.672 1612.79 172.921 1624.99 157.893C1624.99 157.876 1609.16 150.362 1604.52 165.672Z" fill="#00E2A7"/>
<path d="M1600.17 175.002C1600.17 175.002 1606.42 165.954 1590.08 155.583C1590.08 155.583 1584.43 172.162 1600.17 175.002Z" fill="#00E2A7"/>
<path d="M1595.51 188.389C1595.51 188.389 1603.65 195.797 1616.13 180.999C1616.13 180.981 1600.46 173.168 1595.51 188.389Z" fill="#00E2A7"/>
<path d="M1378.63 272.327L1387.46 303.14L1391.16 302.188L1394.78 301.236C1397.18 300.601 1399.57 299.93 1401.97 299.26C1406.75 297.92 1411.52 296.544 1416.27 295.115C1425.78 292.24 1435.24 289.154 1444.7 285.75C1454.18 282.346 1463.63 278.642 1473.18 274.214C1477.96 271.992 1482.75 269.558 1487.67 266.648C1490.14 265.184 1492.63 263.597 1495.21 261.727C1497.79 259.84 1500.45 257.706 1503.31 254.725C1504.74 253.19 1506.22 251.479 1507.71 249.186C1508.08 248.622 1508.45 247.987 1508.82 247.37C1509.19 246.7 1509.54 246.029 1509.9 245.271L1510.28 244.424L1510.48 243.966L1510.87 243.066L1512.44 239.45C1512.95 238.251 1513.44 237.016 1513.94 235.799C1514.94 233.383 1515.86 230.914 1516.78 228.462C1517.26 227.227 1517.66 225.993 1518.12 224.758C1518.56 223.524 1519 222.289 1519.41 221.037L1520.63 217.297C1521.04 216.063 1521.39 214.793 1521.78 213.541C1522.55 211.054 1523.22 208.514 1523.95 205.992C1525.29 200.947 1526.54 195.867 1527.6 190.735C1529.68 180.505 1531.27 170.169 1532.24 159.745C1532.7 154.525 1533.02 149.286 1533.16 143.995C1533.23 141.349 1533.27 138.686 1533.25 135.987C1533.23 134.629 1533.2 133.271 1533.16 131.895L1533.07 129.761L1533 128.65L1532.92 127.292L1491.68 130.661L1491.75 131.825L1491.82 133.342C1491.85 134.382 1491.87 135.44 1491.89 136.516C1491.94 138.668 1491.93 140.855 1491.89 143.06C1491.82 147.469 1491.59 151.914 1491.27 156.377C1490.65 165.301 1489.51 174.208 1487.94 183.027C1487.12 187.437 1486.22 191.828 1485.22 196.185C1484.18 200.542 1483.05 204.863 1481.79 209.149C1481.49 210.225 1481.16 211.283 1480.82 212.359C1480.49 213.417 1480.17 214.493 1479.82 215.551C1479.11 217.668 1478.42 219.784 1477.64 221.883C1477.26 222.924 1476.9 223.982 1476.5 225.023L1475.3 228.145L1475 228.921L1474.94 229.044C1474.41 229.626 1473.48 230.49 1472.38 231.355C1471.08 232.395 1469.52 233.489 1467.86 234.565C1464.51 236.734 1460.72 238.868 1456.8 240.932C1452.86 242.996 1448.75 244.971 1444.56 246.894C1440.38 248.798 1436.11 250.668 1431.78 252.485C1423.13 256.1 1414.32 259.54 1405.41 262.838C1400.96 264.496 1396.48 266.119 1392.01 267.706L1385.28 270.052L1381.93 271.216L1378.63 272.327Z" fill="url(#paint0_linear)"/>
<path d="M1406.5 301.482C1406.61 301.482 1406.73 301.465 1406.84 301.43C1407.47 301.236 1407.83 300.583 1407.63 299.948L1396.88 263.808C1396.69 263.173 1396.03 262.821 1395.4 263.015C1394.76 263.209 1394.41 263.861 1394.6 264.496L1405.36 300.636C1405.51 301.147 1405.99 301.482 1406.5 301.482Z" fill="#B12413"/>
<path d="M1386.38 296.597C1386.5 296.597 1386.63 296.579 1386.73 296.544L1403.25 291.323C1403.87 291.129 1404.23 290.459 1404.03 289.824C1403.84 289.207 1403.17 288.854 1402.53 289.048L1386.01 294.269C1385.39 294.463 1385.04 295.133 1385.23 295.768C1385.41 296.279 1385.88 296.597 1386.38 296.597Z" fill="#B12413"/>
<path d="M1389.19 283.721C1388.89 285.203 1389.84 286.649 1391.32 286.967C1392.8 287.266 1394.25 286.314 1394.57 284.832C1394.87 283.351 1393.92 281.905 1392.43 281.587C1390.95 281.27 1389.49 282.24 1389.19 283.721Z" fill="#B12413"/>
<path d="M1380.89 544.072C1385.34 536.929 1425.14 498.867 1425.14 498.867C1425.14 498.867 1433.26 505.234 1432.86 512.254C1432.47 518.921 1432.72 554.055 1432.61 557.759H1427.79L1425.09 541.727C1425.09 541.727 1414.08 559.294 1405.81 565.291C1397.55 571.305 1369.66 570.176 1362.97 569.294C1356.3 568.377 1376.44 551.216 1380.89 544.072Z" fill="url(#paint1_linear)"/>
<path d="M1429.93 481.476L1424.63 497.138C1424.63 497.138 1426.86 502.271 1424.61 509.838C1422.37 517.404 1413.92 529.433 1405.85 538.34C1398.89 546.03 1383.98 553.685 1379.51 551.674C1375.05 549.664 1388 534.301 1391.82 526.276C1395.61 518.251 1397.16 510.561 1398.47 503.788C1399.79 496.874 1400.64 479.889 1400.64 479.889L1429.93 481.476Z" fill="#FFA389"/>
<path d="M1263.74 531.744C1270.49 526.699 1321.4 505.693 1321.4 505.693C1321.4 505.693 1326.64 514.582 1323.73 520.967C1320.94 527.052 1308.41 559.876 1306.96 563.28L1302.46 561.516L1305.78 545.589C1305.78 545.589 1289.13 557.953 1279.24 560.546C1269.36 563.139 1243.78 551.992 1237.88 548.729C1231.99 545.483 1257.02 536.788 1263.74 531.744Z" fill="url(#paint2_linear)"/>
<path d="M1332.18 491.23L1321.56 503.911C1321.56 503.911 1321.77 509.502 1316.93 515.746C1312.1 521.99 1299.84 530.121 1289.08 535.501C1279.79 540.139 1263.11 541.868 1259.68 538.376C1256.26 534.883 1273.91 525.271 1280.37 519.186C1286.83 513.101 1291.07 506.486 1294.74 500.648C1298.48 494.687 1305.46 479.166 1305.46 479.166L1332.18 491.23Z" fill="#FFA389"/>
<path d="M1377.46 298.925C1385.71 290.829 1516.9 257.688 1560.07 269.717C1565.01 279.224 1505.09 318.344 1489.63 340.638C1432.89 349.898 1401.24 368.965 1401.24 368.965C1401.24 368.965 1381.14 415.405 1369.17 432.461C1357.22 449.516 1334.44 496.821 1334.44 496.821L1302.42 481.617C1302.42 481.617 1355.03 320.99 1377.46 298.925Z" fill="#21181E"/>
<path d="M1342.28 478.478C1342.74 478.478 1343.18 478.213 1343.38 477.754C1343.64 477.155 1343.36 476.449 1342.76 476.185L1310.61 462.286C1310.01 462.022 1309.31 462.304 1309.04 462.903C1308.78 463.503 1309.06 464.209 1309.66 464.473L1341.81 478.372C1341.96 478.442 1342.12 478.478 1342.28 478.478Z" fill="#564C54"/>
<path d="M1334.44 475.091C1334.9 475.091 1335.33 474.826 1335.54 474.386C1335.63 474.174 1338.15 468.689 1356.62 438.493C1376.72 405.581 1396.88 358.17 1397.09 357.712C1397.34 357.112 1397.06 356.406 1396.46 356.16C1395.86 355.895 1395.15 356.177 1394.91 356.795C1394.71 357.271 1374.6 404.522 1354.59 437.276C1335.93 467.807 1333.46 473.239 1333.37 473.451C1333.1 474.05 1333.37 474.756 1333.97 475.021C1334.13 475.056 1334.29 475.091 1334.44 475.091Z" fill="#564C54"/>
<path d="M1606.03 259.064C1606.03 259.064 1650.73 357.236 1527.97 364.414C1472.58 367.642 1446.1 359.07 1446.1 359.07C1446.1 359.07 1444.76 408.032 1442.18 428.686C1439.6 449.34 1431.91 486.168 1431.91 486.168H1398.7C1398.7 486.168 1385.39 335.241 1412.19 318.732C1438.97 302.223 1485.43 289.842 1551.56 283.492C1551.56 283.474 1596.29 263.773 1606.03 259.064Z" fill="#21181E"/>
<path d="M1427.79 468.406C1428.34 468.406 1428.83 468.018 1428.96 467.454C1433.74 443.766 1435.35 414.276 1436.65 390.571C1437.73 370.922 1438.74 352.367 1441.26 350.127C1443.31 348.328 1451.8 349.722 1462.55 351.521C1483.95 355.066 1516.29 360.428 1551.93 352.138C1571.35 347.623 1585.63 338.204 1594.37 324.129C1609.44 299.86 1602.56 269.77 1602.49 269.47C1602.33 268.835 1601.69 268.429 1601.06 268.588C1600.42 268.747 1600.01 269.382 1600.17 270.017C1600.24 270.317 1606.88 299.489 1592.33 322.912C1583.95 336.423 1570.16 345.489 1551.4 349.845C1516.2 358.029 1484.16 352.703 1462.94 349.193C1450.23 347.094 1442.57 345.806 1439.67 348.364C1436.55 351.115 1435.67 364.696 1434.27 390.447C1432.98 414.064 1431.38 443.467 1426.63 466.978C1426.5 467.613 1426.91 468.248 1427.56 468.371C1427.63 468.389 1427.72 468.406 1427.79 468.406Z" fill="#564C54"/>
<path d="M1398.06 468.406H1398.08L1435.01 467.613C1435.67 467.595 1436.2 467.048 1436.18 466.396C1436.16 465.743 1435.63 465.196 1434.96 465.232L1398.03 466.025C1397.38 466.043 1396.85 466.59 1396.86 467.242C1396.9 467.877 1397.43 468.406 1398.06 468.406Z" fill="#564C54"/>
<path d="M1516.46 308.008H1388.51C1387.38 308.008 1386.48 307.109 1386.48 305.98V292.858C1386.48 291.729 1387.38 290.829 1388.51 290.829H1516.46C1517.59 290.829 1518.49 291.729 1518.49 292.858V305.98C1518.49 307.109 1517.57 308.008 1516.46 308.008Z" fill="#D7E6F7"/>
<path d="M1372.7 308.008C1367.74 308.008 1363.38 304.675 1362.11 299.877L1337.43 207.508C1335.93 201.864 1340.18 196.326 1346.02 196.326H1405.13C1409.12 196.326 1412.61 198.972 1413.69 202.817L1443.26 308.026H1372.7V308.008Z" fill="#EDF6FB"/>
<path d="M1413.69 202.817L1443.01 307.144H1449.77L1420.43 202.817C1419.34 198.972 1415.84 196.326 1411.87 196.326H1405.11C1409.1 196.326 1412.59 198.972 1413.69 202.817Z" fill="#D7E6F7"/>
<path d="M1396.99 253.666C1398.33 259.469 1394.71 264.179 1388.9 264.179C1383.1 264.179 1377.31 259.469 1375.96 253.666C1374.62 247.864 1378.24 243.154 1384.05 243.154C1389.86 243.172 1395.65 247.864 1396.99 253.666Z" fill="#D7E6F7"/>
<path d="M1476.92 231.478C1477.01 231.566 1477.06 231.655 1477.13 231.743C1477.94 232.748 1478.81 233.683 1479.74 234.582C1485.25 239.962 1492.38 243.489 1495.16 244.742C1495.93 245.094 1496.37 245.271 1496.37 245.271C1496.39 245.306 1496.39 245.341 1496.41 245.394C1496.52 245.747 1496.62 246.1 1496.74 246.47C1497.19 247.934 1497.68 249.716 1498.07 251.744C1502.43 275.096 1501.83 273.368 1503.77 283.245C1544.97 304.128 1605.61 264.055 1607 257.564C1600.91 234.6 1600.91 234.6 1595.3 212.271C1592.58 201.494 1590.32 184.562 1589.46 167.118C1589.42 166.43 1589.39 165.742 1589.35 165.054C1589.14 159.922 1589.03 154.754 1589.09 149.727C1589.32 127.715 1582.96 111.735 1568.86 108.684C1564.07 107.643 1548.7 109.072 1543.22 110.13C1541.74 110.412 1540.29 110.712 1538.92 110.995C1531.26 112.617 1525.38 114.169 1525.38 114.169L1491.48 128.773C1488.29 130.555 1485.46 132.23 1482.96 133.871C1480.75 135.282 1478.81 136.675 1477.1 138.033C1461.76 150.08 1464.93 159.481 1468.68 177.242C1469.74 182.304 1470.39 187.454 1470.85 192.463C1470.97 194.051 1471.08 195.603 1471.2 197.173C1472.28 212.094 1472.12 225.34 1476.92 231.478Z" fill="url(#paint3_linear)"/>
<path d="M1509.51 154.771C1509.81 156.165 1511.17 157.064 1512.56 156.765C1513.96 156.465 1514.86 155.107 1514.56 153.713C1514.26 152.32 1512.9 151.42 1511.5 151.72C1510.13 152.002 1509.23 153.378 1509.51 154.771Z" fill="#DB3A6B"/>
<path d="M1510.76 165.689C1511.06 167.083 1512.42 167.982 1513.81 167.682C1515.21 167.382 1516.11 166.024 1515.81 164.631C1515.51 163.238 1514.15 162.338 1512.76 162.638C1511.38 162.92 1510.48 164.278 1510.76 165.689Z" fill="#DB3A6B"/>
<path d="M1528.1 113.481C1528.1 113.481 1545.84 107.59 1548.36 118.244C1550.89 128.879 1533.44 147.646 1515.16 146.605C1515.16 146.588 1532.28 128.544 1528.1 113.481Z" fill="white"/>
<path d="M1492.19 128.438C1492.19 128.438 1472.47 136.587 1475.97 147.769C1479.46 158.952 1499.73 158.317 1507.58 148.651C1507.58 148.669 1497.22 144.524 1492.19 128.438Z" fill="white"/>
<path d="M1491.87 126.992L1495.7 139.532C1498.83 149.762 1512.31 151.949 1518.58 143.272C1525.87 133.148 1531.24 121.26 1528.1 113.464L1491.87 126.992Z" fill="#FFA389"/>
<path d="M1496.37 245.271C1496.39 245.306 1496.39 245.341 1496.41 245.394C1496.52 245.747 1496.62 246.1 1496.74 246.47C1503.56 245.289 1511.64 242.131 1520.29 236.381C1537.35 225.023 1556.11 227.263 1556.29 227.298C1556.46 227.333 1556.66 227.28 1556.82 227.227C1557.14 227.104 1557.38 226.786 1557.42 226.416C1557.51 225.869 1557.1 225.375 1556.55 225.287C1555.76 225.181 1536.89 222.924 1519.16 234.706C1510.2 240.685 1501.92 243.772 1495.17 244.742C1495.93 245.094 1496.37 245.271 1496.37 245.271Z" fill="#DB3A6B"/>
<path d="M1507.62 186.202C1518.99 181.475 1535.4 155.53 1536.09 154.436C1536.39 153.96 1536.25 153.343 1535.78 153.043C1535.3 152.743 1534.68 152.884 1534.38 153.36C1534.22 153.625 1517.61 179.852 1506.84 184.332C1496.53 188.618 1489.54 178.318 1489.47 178.212C1489.17 177.753 1488.54 177.612 1488.08 177.93C1487.62 178.23 1487.48 178.865 1487.79 179.323C1487.88 179.447 1495.79 191.123 1507.62 186.202Z" fill="#DB3A6B"/>
<path d="M1500.68 272.521C1501.26 272.398 1501.67 271.851 1501.62 271.251C1500.73 261.692 1497.61 245.341 1497.57 245.183C1497.49 244.724 1497.13 244.354 1496.69 244.248C1496.57 244.213 1484.62 241.214 1477.93 230.826C1477.57 230.279 1476.83 230.12 1476.28 230.473C1475.74 230.826 1475.58 231.566 1475.93 232.113C1482.23 241.884 1492.51 245.5 1495.39 246.347C1496 249.61 1498.49 263.156 1499.27 271.463C1499.32 272.116 1499.9 272.592 1500.56 272.539C1500.59 272.539 1500.65 272.521 1500.68 272.521Z" fill="#DB3A6B"/>
<path d="M1470.55 29.4198C1474.2 41.4664 1486.95 48.2746 1499 44.6236C1504.69 42.8951 1509.21 39.1735 1512.01 34.4289C1515.16 29.12 1516.16 22.5587 1514.22 16.1915C1510.57 4.14487 1497.82 -2.66331 1485.76 0.987707C1474.98 4.2507 1468.39 14.7628 1469.74 25.5748C1469.89 26.8447 1470.16 28.1322 1470.55 29.4198Z" fill="#21181E"/>
<path d="M1470.55 29.4198C1474.2 41.4664 1486.95 48.2746 1499 44.6236C1504.69 42.8951 1509.21 39.1735 1512.01 34.4289C1504.44 28.3439 1487.92 18.0787 1469.74 25.5748C1469.89 26.8447 1470.16 28.1323 1470.55 29.4198Z" fill="white"/>
<path d="M1443.77 66.0358C1443.77 66.0358 1442.29 84.873 1453.32 89.2295L1448.06 65.2245L1443.77 66.0358Z" fill="#21181E"/>
<path d="M1449.08 44.941C1449.08 44.941 1465.62 17.5496 1496.44 28.8201C1527.8 40.2847 1536.73 87.695 1514.22 99.477C1514.22 99.477 1465.48 74.9429 1449.08 44.941Z" fill="#21181E"/>
<path d="M1486.74 116.127L1493.5 132.812C1493.5 132.812 1509.53 143.06 1527.76 113.869C1520.31 110.589 1515.35 100.183 1514.45 92.9158C1514.45 92.9158 1512.84 94.4679 1510.57 97.7309C1510.13 98.3659 1509.49 98.9303 1508.89 99.5829C1503.61 105.28 1495.3 113.023 1486.74 116.127Z" fill="#FFA389"/>
<path d="M1486.74 116.127L1489.95 124.029C1496.34 119.231 1507.34 109.566 1510.57 97.7133C1510.05 98.2953 1509.49 98.9127 1508.89 99.5653C1503.61 105.28 1495.3 113.023 1486.74 116.127Z" fill="#FF8072"/>
<path d="M1469.74 116.374C1488.92 127.204 1513.71 93.9741 1514.45 92.9687C1514.47 92.9511 1514.47 92.9511 1514.47 92.9511C1514.17 91.5224 1513.85 90.129 1513.5 88.7709C1510.6 77.1476 1506.19 67.147 1500.8 58.1694C1496.8 47.9571 1486.63 41.3606 1475.68 42.2072C1464.33 43.0714 1457.56 51.3083 1453.04 55.3121C1446.22 61.3442 1445.89 73.8317 1452.47 88.4182C1460.54 106.303 1464.44 113.376 1469.74 116.374Z" fill="#FFA389"/>
<path d="M1474.63 104.08C1478.84 103.798 1480.43 98.3306 1477.11 95.7202C1475.44 94.415 1473.28 93.5331 1470.9 94.6972C1467.16 96.5315 1469.01 100.094 1470.57 102.158C1471.5 103.393 1472.97 104.151 1474.52 104.08C1474.55 104.08 1474.59 104.08 1474.63 104.08Z" fill="white"/>
<path d="M1469.26 68.0818C1468.66 67.8525 1468.13 67.4468 1467.78 66.9001C1467.32 66.1946 1467.11 65.1363 1468.41 64.0251C1470.78 61.9968 1474.86 67.8525 1481.42 65.3127C1481.42 65.3303 1479.85 72.1561 1469.26 68.0818Z" fill="#21181E"/>
<path d="M1458.12 73.5143C1458.31 72.8969 1458.35 72.2267 1458.16 71.627C1457.89 70.8157 1457.22 70.0043 1455.53 70.3042C1452.45 70.851 1454.41 77.712 1448.27 81.1867C1448.29 81.169 1454.55 84.2733 1458.12 73.5143Z" fill="#21181E"/>
<path d="M1505.01 88.1889C1505.18 88.3476 1510.2 92.8982 1514.45 92.9687C1514.45 92.9511 1514.47 92.9334 1514.47 92.9334C1514.17 91.5048 1513.85 90.1114 1513.5 88.7533C1513.36 88.8062 1509.54 89.7939 1505.01 88.1889Z" fill="#21181E"/>
<path d="M1502.55 73.7964C1502.55 73.7964 1505.45 60.4799 1514.43 65.8418C1521.83 70.2513 1521 90.8875 1509.53 89.1589L1502.55 73.7964Z" fill="#FFA389"/>
<path d="M1512.03 88.1712C1512.61 89.4412 1514.11 90.0232 1515.4 89.4411C1516.67 88.8591 1517.26 87.3599 1516.67 86.0723C1516.09 84.8024 1514.59 84.2204 1513.3 84.8024C1512.01 85.3845 1511.45 86.9013 1512.03 88.1712Z" fill="white"/>
<path d="M1509.19 85.6843C1509.58 85.5079 1509.77 85.067 1509.63 84.6613C1507.04 76.7596 1512.16 71.2742 1512.37 71.0449C1512.69 70.7098 1512.67 70.1807 1512.33 69.8632C1512 69.5457 1511.47 69.5457 1511.15 69.8808C1510.9 70.1454 1505.11 76.301 1508.02 85.1904C1508.17 85.6314 1508.64 85.8607 1509.08 85.7196C1509.14 85.7019 1509.15 85.7019 1509.19 85.6843Z" fill="#21181E"/>
<path d="M1514.2 77.8355C1514.43 77.7297 1514.61 77.5357 1514.66 77.2887C1514.79 76.8478 1514.5 76.3892 1514.06 76.2658C1513.64 76.1599 1509.93 75.2428 1507.9 76.8654C1507.55 77.1476 1507.48 77.6768 1507.78 78.0472C1508.06 78.3999 1508.59 78.4705 1508.96 78.1706C1510.13 77.2358 1512.74 77.6415 1513.64 77.8884C1513.83 77.9237 1514.03 77.9061 1514.2 77.8355Z" fill="#21181E"/>
<path d="M1474.59 78.3646C1475.44 80.2166 1476.96 81.3454 1478 80.8692C1479.04 80.393 1479.2 78.5234 1478.35 76.6538C1477.5 74.8018 1475.98 73.673 1474.94 74.1492C1473.92 74.6254 1473.76 76.5127 1474.59 78.3646Z" fill="#21181E"/>
<path d="M1456.25 86.6896C1457.1 88.5416 1458.61 89.6704 1459.66 89.1942C1460.7 88.718 1460.86 86.8484 1460.01 84.9788C1459.16 83.1268 1457.64 81.998 1456.6 82.4742C1455.56 82.9504 1455.4 84.8377 1456.25 86.6896Z" fill="#21181E"/>
<path d="M1497.84 47.5691C1497.84 47.5691 1491.89 61.4147 1486.58 61.0796C1481.26 60.7268 1484.35 49.2094 1484.35 49.2094C1484.35 49.2094 1473.02 64.1662 1466.05 64.1662C1459.07 64.1662 1466.26 52.4547 1466.26 52.4547C1466.26 52.4547 1459.41 67.8701 1452.61 70.216C1445.8 72.5794 1448.61 61.3794 1448.61 61.3794C1448.61 61.3794 1447.88 75.6308 1443.49 76.4245C1439.09 77.2182 1436.85 58.2399 1447.37 46.6695C1457.86 35.1168 1491.57 21.0418 1497.84 47.5691Z" fill="#21181E"/>
<path d="M1489.56 54.2009C1489.56 54.2009 1494.06 77.5004 1501.26 77.13C1509.77 76.689 1505.75 58.3634 1496.64 45.3467L1489.56 54.2009Z" fill="#21181E"/>
<path d="M1467.72 90.0056C1468.68 89.5646 1469.88 88.8238 1470.87 87.5363C1471.15 87.1659 1471.08 86.6367 1470.71 86.3545C1470.34 86.0723 1469.81 86.1429 1469.52 86.5133C1468.64 87.6774 1467.49 88.2947 1466.7 88.5945L1465.94 80.2519C1465.9 79.7933 1465.5 79.4582 1465.02 79.4935C1464.56 79.5287 1464.23 79.9344 1464.26 80.4106L1465.11 89.7763C1465.13 90.0056 1465.25 90.2172 1465.43 90.3583C1465.62 90.4994 1465.85 90.5523 1466.08 90.5171C1466.17 90.5347 1466.84 90.4112 1467.72 90.0056Z" fill="#21181E"/>
<path d="M1441.51 277.76L1448.82 303.758C1451.71 305.204 1455.9 306.086 1462.94 304.763L1453.76 277.46C1453.76 277.442 1448.34 277.301 1441.51 277.76Z" fill="#FFA389"/>
<path d="M1543.31 133.765L1543.74 134.735L1544.3 136.111C1544.67 137.063 1545.04 138.033 1545.41 139.039C1546.16 141.032 1546.86 143.078 1547.51 145.141C1548.84 149.286 1549.99 153.537 1550.96 157.805C1552.95 166.36 1554.24 175.055 1554.7 183.697C1554.82 185.867 1554.88 188.019 1554.89 190.171C1554.93 192.322 1554.89 194.474 1554.8 196.608C1554.73 198.742 1554.59 200.877 1554.4 203.011C1554.22 205.127 1553.96 207.244 1553.66 209.343C1553.38 211.442 1553 213.523 1552.6 215.604C1552.17 217.668 1551.72 219.731 1551.19 221.777C1550.66 223.823 1550.07 225.852 1549.42 227.845C1549.1 228.85 1548.77 229.838 1548.41 230.826L1548.29 231.196L1548.24 231.355L1548.31 231.196C1548.41 230.984 1548.47 230.843 1548.56 230.702C1548.7 230.455 1548.77 230.349 1548.82 230.314C1548.87 230.279 1548.73 230.526 1548.41 230.896C1548.11 231.267 1547.66 231.725 1547.13 232.237C1546.05 233.26 1544.62 234.424 1543.05 235.588C1539.89 237.934 1536.15 240.262 1532.26 242.537C1524.44 247.07 1515.92 251.285 1507.27 255.324C1498.58 259.346 1489.68 263.191 1480.72 266.877C1476.23 268.747 1471.71 270.564 1467.19 272.345L1460.4 274.973L1457.01 276.278L1453.69 277.53L1463.57 308.009L1467.33 306.915L1470.99 305.821C1473.43 305.081 1475.84 304.322 1478.26 303.546C1483.1 302.012 1487.92 300.424 1492.74 298.784C1502.36 295.486 1511.93 291.993 1521.48 288.131C1531.04 284.286 1540.56 280.106 1550.18 275.114C1555 272.609 1559.82 269.858 1564.8 266.507C1567.29 264.814 1569.81 262.962 1572.46 260.704C1573.78 259.558 1575.12 258.323 1576.5 256.859C1577.88 255.413 1579.32 253.719 1580.75 251.638C1581.48 250.562 1582.2 249.398 1582.91 248.04C1583.26 247.335 1583.6 246.647 1583.93 245.853L1584.18 245.271L1584.29 244.989L1584.48 244.495C1585.01 243.172 1585.52 241.832 1586.02 240.491C1587 237.81 1587.9 235.094 1588.73 232.36C1589.56 229.626 1590.29 226.857 1590.98 224.088C1591.63 221.319 1592.23 218.532 1592.72 215.728C1594.72 204.528 1595.51 193.204 1595.16 182.022C1594.82 170.839 1593.43 159.781 1591.17 148.933C1590 143.519 1588.61 138.157 1586.99 132.83C1586.17 130.167 1585.29 127.503 1584.32 124.84C1583.83 123.5 1583.33 122.159 1582.78 120.801C1582.52 120.113 1582.24 119.425 1581.94 118.72L1581.48 117.626L1581.23 117.044L1580.88 116.268L1543.31 133.765Z" fill="url(#paint4_linear)"/>
<path d="M1564.55 239.433C1564.92 239.433 1565.31 239.256 1565.54 238.921C1565.91 238.375 1565.77 237.634 1565.24 237.263C1558.55 232.678 1549.47 228.586 1549.09 228.409C1548.49 228.145 1547.78 228.409 1547.51 229.009C1547.25 229.609 1547.51 230.314 1548.11 230.579C1548.2 230.614 1557.38 234.759 1563.9 239.221C1564.09 239.362 1564.32 239.433 1564.55 239.433Z" fill="#DB3A6B"/>
<path d="M1560.77 231.602C1561.37 231.602 1561.9 231.143 1561.95 230.526C1562.02 229.873 1561.55 229.291 1560.9 229.221C1560.63 229.185 1554.19 228.568 1549.23 228.603C1548.57 228.603 1548.04 229.15 1548.04 229.803C1548.04 230.455 1548.59 230.967 1549.24 230.984C1554.08 230.949 1560.6 231.584 1560.67 231.584C1560.68 231.602 1560.74 231.602 1560.77 231.602Z" fill="#DB3A6B"/>
<path d="M1479.83 269.17C1480.01 269.17 1480.17 269.135 1480.33 269.064C1521.53 249.892 1548.19 231.884 1549.39 230.208C1549.47 230.067 1549.54 229.908 1549.58 229.75C1550.09 227.104 1562.13 164.843 1554.26 142.231C1554.05 141.614 1553.36 141.279 1552.74 141.508C1552.12 141.72 1551.79 142.407 1552.02 143.025C1559.39 164.19 1548.29 223.806 1547.32 228.956C1544.64 231.302 1518.65 248.622 1479.34 266.93C1478.74 267.212 1478.49 267.918 1478.76 268.5C1478.95 268.905 1479.37 269.17 1479.83 269.17Z" fill="#DB3A6B"/>
<path d="M1551.31 153.819C1551.61 153.819 1551.91 153.713 1552.14 153.484C1552.62 153.025 1552.62 152.267 1552.16 151.808L1547.02 146.57C1546.56 146.094 1545.8 146.094 1545.34 146.552C1544.87 147.011 1544.87 147.769 1545.33 148.228L1550.46 153.466C1550.69 153.696 1551.01 153.819 1551.31 153.819Z" fill="#DB3A6B"/>
<path d="M1481.56 302.893C1481.69 302.893 1481.81 302.876 1481.93 302.823C1482.55 302.611 1482.89 301.941 1482.68 301.324L1472.68 271.622C1472.47 271.004 1471.8 270.669 1471.18 270.881C1470.57 271.093 1470.23 271.763 1470.44 272.38L1480.43 302.082C1480.59 302.576 1481.05 302.893 1481.56 302.893Z" fill="#DB3A6B"/>
<path d="M1462.22 301.535C1462.34 301.535 1462.48 301.518 1462.62 301.465L1478.97 295.662C1479.59 295.45 1479.9 294.763 1479.69 294.145C1479.48 293.528 1478.79 293.21 1478.17 293.422L1461.83 299.225C1461.21 299.437 1460.89 300.124 1461.1 300.742C1461.28 301.236 1461.74 301.535 1462.22 301.535Z" fill="#DB3A6B"/>
<path d="M1464.62 288.554C1464.37 290.053 1465.38 291.464 1466.86 291.711C1468.36 291.958 1469.77 290.953 1470.02 289.471C1470.27 287.972 1469.26 286.561 1467.78 286.314C1466.28 286.049 1464.86 287.055 1464.62 288.554Z" fill="#DB3A6B"/>
</g>
<defs>
<linearGradient id="paint0_linear" x1="1533.25" y1="215.239" x2="1378.62" y2="215.239" gradientUnits="userSpaceOnUse">
<stop stop-color="#F44776"/>
<stop offset="1" stop-color="#FD6282"/>
</linearGradient>
<linearGradient id="paint1_linear" x1="1432.88" y1="534.431" x2="1361.63" y2="534.431" gradientUnits="userSpaceOnUse">
<stop stop-color="#F44776"/>
<stop offset="1" stop-color="#FD6282"/>
</linearGradient>
<linearGradient id="paint2_linear" x1="1324.62" y1="534.482" x2="1237" y2="534.482" gradientUnits="userSpaceOnUse">
<stop stop-color="#F44776"/>
<stop offset="1" stop-color="#FD6282"/>
</linearGradient>
<linearGradient id="paint3_linear" x1="1601.72" y1="198.775" x2="1600.84" y2="198.775" gradientUnits="userSpaceOnUse">
<stop stop-color="#F44776"/>
<stop offset="1" stop-color="#FD6282"/>
</linearGradient>
<linearGradient id="paint4_linear" x1="1595.2" y1="212.162" x2="1453.65" y2="212.162" gradientUnits="userSpaceOnUse">
<stop stop-color="#F44776"/>
<stop offset="1" stop-color="#FD6282"/>
</linearGradient>
<clipPath id="clip0">
<rect width="392" height="570" fill="white" transform="translate(1237)"/>
</clipPath>
</defs>
</svg>
