<svg id="Слой_1" data-name="Слой 1" xmlns="http://www.w3.org/2000/svg" xmlns:xlink="http://www.w3.org/1999/xlink"
    viewBox="0 0 272.09 62.28">
    <defs>
        <style>
            .cls-1 {
                fill: url(#gradient-layer_116);
            }

            .cls-2 {
                fill: url(#gradient-layer_116-2);
            }

            .cls-3 {
                fill: url(#gradient-layer_3);
            }

            .cls-4 {
                fill: url(#gradient-layer_3-2);
            }

            .cls-5 {
                fill: url(#gradient-layer_36);
            }

            .cls-6 {
                fill: url(#gradient-layer_36-2);
            }

            .cls-7 {
                fill: url(#gradient-layer_9);
            }

            .cls-8 {
                fill: url(#gradient-layer_84);
            }

            .cls-9 {
                fill: #3d3d3d;
            }

            .cls-10 {
                fill: #00b189;
            }
        </style>
        <radialGradient id="gradient-layer_116" cx="6.62" cy="44.18" r="13.67" gradientUnits="userSpaceOnUse">
            <stop offset="0" stop-color="#82e7ff" />
            <stop offset="0.72" stop-color="#44a1e9" />
            <stop offset="0.98" stop-color="#008bd1" />
        </radialGradient>
        <radialGradient id="gradient-layer_116-2" cx="1037.55" cy="-94.72" r="30.57"
            gradientTransform="translate(1040.65 -44.61) rotate(180)" xlink:href="#gradient-layer_116" />
        <radialGradient id="gradient-layer_3" cx="54.46" cy="44.18" r="16.81" gradientUnits="userSpaceOnUse">
            <stop offset="0" stop-color="#fff359" />
            <stop offset="0.05" stop-color="#fae353" />
            <stop offset="0.12" stop-color="#f5d04b" />
            <stop offset="0.2" stop-color="#f1c546" />
            <stop offset="0.28" stop-color="#f0c145" />
            <stop offset="0.67" stop-color="#dc8a52" />
            <stop offset="0.89" stop-color="#d46d50" />
            <stop offset="1" stop-color="#cf584f" />
        </radialGradient>
        <radialGradient id="gradient-layer_3-2" cx="-410.96" cy="-94.72" r="30.57"
            gradientTransform="matrix(1, 0, 0, -1, 481.91, -44.61)" xlink:href="#gradient-layer_3" />
        <radialGradient id="gradient-layer_36" cx="55.14" cy="-1.72" r="15.78" gradientUnits="userSpaceOnUse">
            <stop offset="0" stop-color="#d4b6c1" />
            <stop offset="0.37" stop-color="#ea5e7c" />
            <stop offset="0.99" stop-color="#cf4171" />
        </radialGradient>
        <radialGradient id="gradient-layer_36-2" cx="-344.39" cy="-486.41" r="30.57"
            gradientTransform="translate(415.35 498.58)" xlink:href="#gradient-layer_36" />
        <linearGradient id="gradient-layer_9" x1="952.33" y1="-490.59" x2="961.33" y2="-490.59"
            gradientTransform="matrix(-1, 0, 0, 1, 974.09, 498.58)" gradientUnits="userSpaceOnUse">
            <stop offset="0" stop-color="#00ce89" />
            <stop offset="1" stop-color="#00b089" />
        </linearGradient>
        <radialGradient id="gradient-layer_84" cx="970.98" cy="-486.41" r="30.57"
            gradientTransform="matrix(-1, 0, 0, 1, 974.09, 498.58)" gradientUnits="userSpaceOnUse">
            <stop offset="0" stop-color="#00ce89" />
            <stop offset="0.72" stop-color="#00b089" />
            <stop offset="0.94" stop-color="#27a290" />
            <stop offset="0.98" stop-color="#008b76" />
        </radialGradient>
    </defs>
    <title>logo_LX</title>
    <circle class="cls-1" cx="17.26" cy="54.29" r="4.5" />
    <path class="cls-2"
        d="M4.76,61.26c.07,4-7.53-4.51-3.66-14.23S21.61,44.36,28,36.76c5.8-6.89.52-14.27.52-17.51,0-2,8,8.79,5.8,23.65-1.18,8-5.66,14.82-8.36,14.6-2-.17,4.83-8.26-2.35-11.6C20.1,44.26,4.51,46.43,4.76,61.26Z" />
    <circle class="cls-3" cx="56.8" cy="54.29" r="4.5" />
    <path class="cls-4"
        d="M69.3,61.26c-.06,4,7.54-4.51,3.66-14.23S52.45,44.36,46,36.76c-5.79-6.89-.52-14.27-.52-17.51,0-2-8,8.79-5.8,23.65,1.18,8,5.67,14.82,8.36,14.6,2-.17-4.83-8.26,2.35-11.6C54,44.26,69.55,46.43,69.3,61.26Z" />
    <circle class="cls-5" cx="56.8" cy="7.99" r="4.5" />
    <path class="cls-6"
        d="M74,8a15.19,15.19,0,0,1-1,7.26C69.14,24.83,52.45,17.92,46,25.52c-5.79,6.89-.52,14.27-.52,17.51,0,2-8-8.79-5.8-23.65,1.18-7.95,5.67-14.82,8.36-14.6,2,.17-4.83,8.26,2.35,11.6C54,18,69.55,15.85,69.3,1c0-3,4,.87,4.68,7" />
    <circle class="cls-7" cx="17.26" cy="7.99" r="4.5" />
    <path class="cls-8"
        d="M4.76,1C4.83-3-2.77,5.53,1.1,15.25S21.61,17.92,28,25.52c5.8,6.89.52,14.27.52,17.51,0,2,8-8.79,5.8-23.65C33.16,11.43,28.68,4.56,26,4.78,24,5,30.81,13,23.63,16.38,20.1,18,4.51,15.85,4.76,1Z" />
    <path class="cls-9"
        d="M117.06,18.23c0,.34,0,1-.06,1.94s0,2.52,0,4.69,0,3.72-.11,4.69c-.17,2.92-.29,5.55-.29,7.84l.06,1V41a25.76,25.76,0,0,1-.12,3.66.12.12,0,0,1-.11.12h-7a.12.12,0,0,1-.11-.12c0-.17,0-1,.11-2.46a5,5,0,0,1,.06-.91l.06-1.09a5.2,5.2,0,0,1,.05-.91c.12-2.69.12-4.92.06-6.64a4.76,4.76,0,0,0-.06-.86l-.05-1a4.44,4.44,0,0,1-.06-.8c0-.74,0-1.83.06-3.32V20.8c-.52,0-1.72.06-3.67.11l-1.31.06-1.26.06c-1.09.06-1.89.06-2.46.11a109,109,0,0,1-1,11.56,19.21,19.21,0,0,1-2.58,7.89,8.4,8.4,0,0,1-2.68,2.63,12.7,12.7,0,0,1-4.35,1.72l-1.15.17H88.8l-.34.06h-.29a3.19,3.19,0,0,1-1-.06,2.35,2.35,0,0,1-.4-.4A7.78,7.78,0,0,1,86,42.77a6.31,6.31,0,0,1,.11-4.12,9.84,9.84,0,0,0,1.83-.35l.52-.17.23-.11h.11a6.56,6.56,0,0,0,2.92-2.4,10,10,0,0,0,1.6-5.32c0-.63,0-1.49.06-2.64l.17-2.45c.06-1.32.17-3,.34-5,.23-2.8.34-4.35.29-4.63l0-.12a13.08,13.08,0,0,1,4.41-.8l2.46-.11c3-.17,5.15-.23,6.41-.29,3-.17,5.26-.34,6.92-.4a18.62,18.62,0,0,1,2.46-.06c.06,0,.06.06.06.12C117,14.39,117.06,15.88,117.06,18.23Z" />
    <path class="cls-9"
        d="M149.56,27.38a14.84,14.84,0,0,1,.8,4.4c0,.63-.06,1.26-.12,1.89a14.56,14.56,0,0,1-2.8,6.81,11.76,11.76,0,0,1-5.72,4.17,11.19,11.19,0,0,1-7.15.06,9.87,9.87,0,0,1-5.67-4.29,11.91,11.91,0,0,1-1.6-4.63H126a11.34,11.34,0,0,1-.06,1.37c-.06,1.32-.06,2.29-.11,2.86,0,.4.05,1.26.11,2.46a15,15,0,0,1,0,2.4c-.06.06-.06.12-.11.12h-6.47a.12.12,0,0,1-.11-.12c.17-1.31.23-2.57.28-3.83a48.17,48.17,0,0,0,0-4.86c-.06-1.55-.06-3.15,0-4.81,0-1.2-.06-2.91-.18-5.09s-.11-3.6-.17-4.17l.06-.06V22a13.71,13.71,0,0,1,2.75-.86,19.21,19.21,0,0,1,3.83-.45c.06,0,.11,0,.11,0a16.76,16.76,0,0,0,0,2.29c.06,1.09.06,1.83.06,2.35q-.09,1.55,0,4.29H128a15.05,15.05,0,0,1,1.94-3.78,12.88,12.88,0,0,1,5.95-4.63,11.23,11.23,0,0,1,7.67-.46,8,8,0,0,1,3.66,2.52A11.61,11.61,0,0,1,149.56,27.38Zm-6,5.66a9.11,9.11,0,0,0-.17-4.29,3.72,3.72,0,0,0-2.63-2.63,3.78,3.78,0,0,0-3.21.57,8.2,8.2,0,0,0-2.46,2.75,9.07,9.07,0,0,0-.91,7.15,3.82,3.82,0,0,0,1.66,2.52,3.57,3.57,0,0,0,3.54-.06C141.43,38.08,142.81,36.07,143.55,33Z" />
    <path class="cls-9"
        d="M175.93,22.17c-.23,1.83-.34,3.95-.4,6.41-.06,4.63-.11,7.15-.17,7.49a55.35,55.35,0,0,1-.92,6.87,18.33,18.33,0,0,1-1.66,5,7.75,7.75,0,0,1-3.66,3.15,15.9,15.9,0,0,1-6,1.54,17.57,17.57,0,0,1-6.23-.4A15,15,0,0,1,151.56,50a7.24,7.24,0,0,1-1.77-1.71l-.4-.63-.29-.58a2.08,2.08,0,0,1,.34-.85,9.62,9.62,0,0,1,4.12-3.84c.06,0,.06,0,.12.06,1.77,2.63,3.77,4.12,5.95,4.52a7.45,7.45,0,0,0,5.77-1.14,4.51,4.51,0,0,0,1.95-2.35,7.26,7.26,0,0,0,.34-1.49c.06-.4.17-.91.23-1.48a7.56,7.56,0,0,1-2.29,1.31,11,11,0,0,1-6.29.46,10.08,10.08,0,0,1-5.43-3c-3-3.66-2.87-8.41-.35-12.36A14,14,0,0,1,159,21.83,9.64,9.64,0,0,1,169.81,23L170,20.8c0-.06,0-.06.05-.06a19.77,19.77,0,0,1,5.73,1.32A.13.13,0,0,1,175.93,22.17Zm-8.24,6.75c-2.34-4.17-6.46-3.31-8.64-.23A7.12,7.12,0,0,0,158,35a3.3,3.3,0,0,0,2.29,2.23,6,6,0,0,0,3.43-.17c2.29-.63,4.4-2.35,4.8-4.41A6,6,0,0,0,167.69,28.92Z" />
    <path class="cls-9"
        d="M200.3,44.94a.12.12,0,0,1-.11.11H194a.11.11,0,0,1-.11-.11c-.06-1.2-.06-2.17-.06-2.86a6.6,6.6,0,0,1,.06-1,10,10,0,0,1-2.75,3,9.54,9.54,0,0,1-4.35,1.49,6.88,6.88,0,0,1-4.92-1.2,8.16,8.16,0,0,1-3.08-5.15,38.06,38.06,0,0,1-.69-5.95c-.06-.4,0-2.06.06-5a17.25,17.25,0,0,0,0-2.28c0-1,0-3.32,0-3.84,0-.05,0-.11.06-.11a16.32,16.32,0,0,1,6.29-1.32c.06,0,.06,0,.06.06a25.47,25.47,0,0,0,.11,2.92c0,.86-.05,2.46-.05,3.37-.06,1.09-.06,3,0,5.72a15.6,15.6,0,0,0,.17,2.75A3.26,3.26,0,0,0,187,38.71a4.83,4.83,0,0,0,3.6-.75,5.37,5.37,0,0,0,2.64-3.2,17.93,17.93,0,0,0,.51-4.46c.06-1.21.06-3.89.06-8.13,0-.05,0-.11,0-.11A15.68,15.68,0,0,1,200,20.74c.06,0,.11,0,.11.06,0,2.17,0,4.29,0,6.35-.06,3.37-.06,6.64.11,9.78C200.24,38.82,200.3,41.51,200.3,44.94Z" />
    <path class="cls-10"
        d="M224.67,44.94a.11.11,0,0,1-.11.11h-6.24a.12.12,0,0,1-.11-.11c-.06-1.2-.06-2.17-.06-2.86a6.6,6.6,0,0,1,.06-1,10,10,0,0,1-2.75,3,9.54,9.54,0,0,1-4.34,1.49,6.85,6.85,0,0,1-4.92-1.2,8.13,8.13,0,0,1-3.09-5.15,38.06,38.06,0,0,1-.69-5.95c-.06-.4,0-2.06.06-5a17.25,17.25,0,0,0,0-2.28c0-1,.05-3.32.05-3.84,0-.05,0-.11.06-.11a16.32,16.32,0,0,1,6.29-1.32c.06,0,.06,0,.06.06a23.36,23.36,0,0,0,.12,2.92c0,.86-.06,2.46-.06,3.37-.06,1.09-.06,3,0,5.72a15.6,15.6,0,0,0,.17,2.75,3.26,3.26,0,0,0,2.23,3.15A4.83,4.83,0,0,0,215,38a5.37,5.37,0,0,0,2.64-3.2,17.93,17.93,0,0,0,.51-4.46c.06-1.21.06-3.89.06-8.13,0-.05,0-.11.06-.11a15.64,15.64,0,0,1,6.06-1.32c.06,0,.11,0,.11.06,0,2.17,0,4.29-.05,6.35-.06,3.37-.06,6.64.11,9.78C224.62,38.82,224.67,41.51,224.67,44.94Z" />
    <path class="cls-10"
        d="M248.42,44.88c.05.06.05.06,0,.12s0,0-.06,0h-6.75a1,1,0,0,1-.86-.34,8.94,8.94,0,0,1-1.26-1.94,29.74,29.74,0,0,0-2.46-4c-1-1.43-1.66-2.46-2.17-3.15l-1.26,1.55h-.06c-.06,1.37-.06,2.34-.11,2.86s0,1.26.11,2.46a15,15,0,0,1,0,2.4c-.06.06-.06.11-.11.11h-6.58a.12.12,0,0,1-.12-.11,84.24,84.24,0,0,0,.35-8.58c-.06-2.92-.12-5.26-.06-7,0-.85-.06-1.83-.11-3-.06-2.23-.12-3.6-.18-4.18l.06-.05v-.06a13.08,13.08,0,0,1,2.75-.86,18.55,18.55,0,0,1,3.83-.46c.06,0,.11,0,.11.06a17.68,17.68,0,0,0,0,2.35c.06,1.08.06,1.83.06,2.28a30.45,30.45,0,0,0-.06,3.32l.92-.8,1.43-1.43,3.72-3.6,1.6-1.55.17-.17.23-.29.23-.17a4.29,4.29,0,0,1,1.09.06,15.92,15.92,0,0,1,4.92,1.26c.05,0,.05,0,.05.06v.11c-.17.11-.74.69-1.77,1.66l-2.23,2.23L240,30.24l-1,1c0,.06.34.51,1,1.43l1,1.6c.52.8,1,1.43,1.26,1.83l.69.86.74.8,1.15,1.66C246.36,42,247.56,43.8,248.42,44.88Z" />
    <path class="cls-10"
        d="M272,38.53a12.17,12.17,0,0,1-3.66,4.87,10.72,10.72,0,0,1-5.55,2.17,11.21,11.21,0,0,1-9.66-3.6,12.23,12.23,0,0,1-3-9.56c.4-3.49,2.06-7.09,4.75-9.09a11.79,11.79,0,0,1,10.7-2.06A10.16,10.16,0,0,1,271.07,26c.06.06,0,.11-.06.11-1.83,1.2-3.49,2.29-4.92,3.15,0,.06-.11,0-.11-.06a4.07,4.07,0,0,0-5.55-2.34,6.81,6.81,0,0,0-3.26,4.29,9,9,0,0,0,.06,5.77c.74,2.18,1.94,3.21,3.71,3s3.44-1.32,4.52-3.61c.06,0,.06,0,.12,0a10.59,10.59,0,0,1,3.54.68A11.51,11.51,0,0,1,272,38.36.1.1,0,0,1,272,38.53Z" />
</svg>