<?xml version="1.0" encoding="utf-8"?>
<!-- Generator: Adobe Illustrator 24.0.2, SVG Export Plug-In . SVG Version: 6.00 Build 0)  -->
<svg version="1.1" id="Слой_1" xmlns="http://www.w3.org/2000/svg" xmlns:xlink="http://www.w3.org/1999/xlink" x="0px" y="0px"
	 viewBox="0 0 325 519" style="enable-background:new 0 0 325 519;" xml:space="preserve">
<style type="text/css">
	.st0{fill:none;stroke:url(#SVGID_1_);}
	.st1{fill:url(#SVGID_2_);}
	.st2{display:none;fill:none;stroke:url(#SVGID_3_);}
	.st3{display:none;fill:url(#SVGID_4_);}
</style>
<linearGradient id="SVGID_1_" gradientUnits="userSpaceOnUse" x1="382.1691" y1="268.3325" x2="62.9406" y2="268.3325" gradientTransform="matrix(1 0 0 1 0 -16.482)">
	<stop  offset="0" style="stop-color:#FFD200"/>
	<stop  offset="1" style="stop-color:#F69F16"/>
</linearGradient>
<path class="st0" d="M112.9-32C7.9,96,91.2,169.4,153,167.7c53-2,78,0,99,20s29,53.5,7,89c-20.1,32.4-77,77-44,179
	c26.4,81.6,126.4,84.2,167.1,77.5"/>
<linearGradient id="SVGID_2_" gradientUnits="userSpaceOnUse" x1="407.0288" y1="286.8307" x2="114.8666" y2="286.8307" gradientTransform="matrix(1 0 0 -1 0 503.518)">
	<stop  offset="0" style="stop-color:#FFD200"/>
	<stop  offset="1" style="stop-color:#F69F16"/>
</linearGradient>
<path class="st1" d="M339.1,80.7c-1.4-3.6-2.2-7.8-2-12.4s1.7-9.6,4.8-14.9s7.9-11,15-16.9c7.1-5.9,16.5-12,28.7-18.3
	c-14.3,6,53.1-22.9,2-41.5c-21.5-7.8-84.9,2.4-109.9,0.3c-20.1-1.7-50.4,35.3-81.9,36.7c-21.2,0.9-42.4-6.6-61.2,12.6
	c-2,2.1-4.6,7.4-7.8,14c-3.3,6.5-6.8,14.7-9.1,23.5s-3.5,18.5-2.3,28s5.1,19,12.7,27.5c7.6,8.5,18.9,12.1,32.2,14s28.6,2.1,44.4,4
	s31.8,5.3,46.7,13.6c14.9,8.3,28.5,21.6,39.2,42.9c5.8,11.5,7.5,24,7,37.3s-3,27.6-5.7,42.7s-5.5,31.1-6.3,47.9
	c-0.9,16.8,0.1,34.5,5,53c4.2,15.9,10.3,29,17.7,39.9c7.4,10.9,15.9,19.4,25,26c9.1,6.6,18.6,11.2,27.9,14.3s18.4,4.5,26.4,4.8
	l-0.5-87.9l-0.5-87.9l-0.5-87.9l-0.5-87.9c-3.5-0.9-7.7-1.8-12-2.9c-4.4-1.1-9-2.5-13.5-4.4s-8.7-4.4-12.3-7.6
	C344.1,90,341.1,85.9,339.1,80.7z"/>
<linearGradient id="SVGID_3_" gradientUnits="userSpaceOnUse" x1="71.711" y1="243.8899" x2="391.5145" y2="243.8899">
	<stop  offset="0" style="stop-color:#52B689"/>
	<stop  offset="1" style="stop-color:#009F86"/>
</linearGradient>
<path class="st2" d="M122.2-40C17.3,88,100.6,161.4,162.4,159.7c53-2,78,0,99,20s29,53.5,7,89c-20.1,32.4-77,77-44,179
	c26.4,81.6,126.4,84.2,167.1,77.5"/>
<linearGradient id="SVGID_4_" gradientUnits="userSpaceOnUse" x1="489.4007" y1="279.7679" x2="106.502" y2="279.7679" gradientTransform="matrix(1 0 0 -1 0 520)">
	<stop  offset="0" style="stop-color:#03B5FF"/>
	<stop  offset="1" style="stop-color:#008CD5"/>
</linearGradient>
<path class="st3" d="M489.4-1.3c-734.6,13-226.6,578.7,0,469"/>
</svg>
