<svg width="133" height="101" viewBox="0 0 133 101" fill="none" xmlns="http://www.w3.org/2000/svg">
<path opacity="0.3" d="M60.1327 85.7473C60.1327 85.7473 44.6156 39.2335 127.952 15.832C127.952 15.832 131.381 93.5973 60.1327 85.7473Z" fill="#008CD5"/>
<path opacity="0.3" d="M28.3019 94.463C28.3019 94.463 35.5461 76.3765 2.93814 65.269C2.93814 65.269 -0.218569 96.0034 28.3019 94.463Z" fill="#03B5FF" fill-opacity="0.7"/>
<path opacity="0.3" d="M21.4061 63.8964C21.4061 63.8964 26.9333 58.5055 16.9008 49.2482C16.9008 49.2482 10.8249 59.8778 21.4061 63.8964Z" fill="#03B5FF" fill-opacity="0.7"/>
<rect x="31.9492" y="96.9507" width="66.7852" height="84.7032" transform="rotate(-90 31.9492 96.9507)" fill="#B3E5FB" fill-opacity="0.31"/>
<rect x="38.8711" y="91.249" width="55.3828" height="70.8575" rx="2" transform="rotate(-90 38.8711 91.249)" fill="url(#paint0_linear)"/>
<rect x="74.3008" y="91.249" width="55.3828" height="0.814454" rx="0.407227" transform="rotate(-90 74.3008 91.249)" fill="#83DAFF"/>
<rect x="40.9082" y="39.1245" width="66.7852" height="0.814454" rx="0.407227" fill="#00A0E4"/>
<rect x="81.6309" y="53.7847" width="23.6192" height="3.25781" fill="white"/>
<rect x="81.6309" y="59.4858" width="23.6192" height="3.25781" fill="white"/>
<rect x="81.6309" y="65.187" width="23.6192" height="3.25781" fill="white"/>
<rect x="81.6309" y="70.8882" width="23.6192" height="3.25781" fill="white"/>
<rect x="101.992" y="82.2905" width="3.25781" height="3.25781" fill="#ECECEC"/>
<rect x="41.7715" y="41.9512" width="29.4641" height="45.1782" fill="#B2E0F6"/>
<g clip-path="url(#clip0)">
<path d="M56.6345 63.563C58.0897 63.563 59.3499 63.041 60.3795 62.0113C61.4091 60.9816 61.931 59.7218 61.931 58.2664C61.931 56.8115 61.4091 55.5515 60.3793 54.5216C59.3495 53.4922 58.0896 52.9702 56.6345 52.9702C55.179 52.9702 53.9192 53.4922 52.8896 54.5218C51.86 55.5514 51.3379 56.8113 51.3379 58.2664C51.3379 59.7218 51.86 60.9818 52.8898 62.0114C53.9196 63.0409 55.1795 63.563 56.6345 63.563V63.563Z" fill="white"/>
<path d="M65.9017 69.8795C65.872 69.451 65.812 68.9836 65.7235 68.49C65.6343 67.9928 65.5194 67.5227 65.3818 67.093C65.2397 66.6489 65.0464 66.2104 64.8075 65.7901C64.5595 65.3539 64.2683 64.9741 63.9415 64.6615C63.5997 64.3345 63.1813 64.0716 62.6974 63.8798C62.2153 63.6891 61.6809 63.5925 61.1093 63.5925C60.8848 63.5925 60.6677 63.6846 60.2485 63.9575C59.9904 64.1258 59.6886 64.3204 59.3517 64.5357C59.0637 64.7192 58.6734 64.8912 58.1914 65.0469C57.7211 65.199 57.2437 65.2762 56.7724 65.2762C56.3011 65.2762 55.8238 65.199 55.353 65.0469C54.8715 64.8913 54.4813 64.7194 54.1936 64.5358C53.8599 64.3226 53.5579 64.128 53.296 63.9574C52.8772 63.6844 52.66 63.5923 52.4355 63.5923C51.8637 63.5923 51.3295 63.6891 50.8475 63.88C50.364 64.0714 49.9454 64.3343 49.6033 64.6617C49.2767 64.9744 48.9852 65.3541 48.7376 65.7901C48.4989 66.2104 48.3056 66.6487 48.1633 67.0932C48.0259 67.5228 47.911 67.9928 47.8217 68.49C47.7333 68.983 47.6733 69.4505 47.6436 69.88C47.6144 70.3008 47.5996 70.7375 47.5996 71.1786C47.5996 72.3265 47.9645 73.2558 48.6841 73.9411C49.3948 74.6174 50.3351 74.9605 51.4787 74.9605H62.0671C63.2107 74.9605 64.1507 74.6176 64.8615 73.9411C65.5813 73.2563 65.9462 72.3268 65.9462 71.1784C65.946 70.7353 65.9311 70.2983 65.9017 69.8795V69.8795Z" fill="#F24274"/>
</g>
<defs>
<linearGradient id="paint0_linear" x1="94.2539" y1="162.106" x2="38.8711" y2="162.106" gradientUnits="userSpaceOnUse">
<stop stop-color="#03B5FF"/>
<stop offset="1" stop-color="#008CD5"/>
</linearGradient>
<clipPath id="clip0">
<rect width="21.9902" height="21.9902" fill="white" transform="translate(45.7949 52.9702)"/>
</clipPath>
</defs>
</svg>
