<svg width="131" height="100" viewBox="0 0 131 100" fill="none" xmlns="http://www.w3.org/2000/svg">
<path opacity="0.1" d="M65.6863 84C65.6863 84 37.4373 46.2515 106.866 0C106.866 0 133.435 69.8443 65.6863 84Z" fill="#008CD5"/>
<path opacity="0.3" d="M25.1842 76.4854C25.1842 76.4854 30.0776 60.6688 1.69612 53.5007C1.69612 53.5007 1.13359 79.7492 25.1842 76.4854Z" fill="#03B5FF"/>
<path opacity="0.3" d="M76.694 82.0518C76.694 82.0518 77.7329 53.3604 128.294 57.8645C128.294 57.8645 114.197 101.155 76.694 82.0518Z" fill="#03B5FF"/>
<g clip-path="url(#clip0)">
<path d="M77 50.3587C76.9996 49.7748 76.9796 49.194 76.9414 48.6168C74.284 48.6168 29.1052 48.6168 27.675 48.6168L25.4097 41.2546C24.5355 38.4137 21.8009 36.4297 18.7597 36.4297C17.789 36.4297 17.002 37.2167 17.002 38.1874C17.002 39.1582 17.789 39.9452 18.7597 39.9452C20.2482 39.9452 21.6318 40.9307 22.0495 42.2884C24.9602 51.7478 24.6775 50.8335 24.7143 50.9415C24.7709 51.1069 25.066 51.9308 28.0204 60.2033C29.0999 63.226 32.496 65.257 36.4711 65.257H42.5297L40.8886 69.3591C35.7757 68.4969 31.1812 72.4589 31.1812 77.5613C31.1812 82.1765 34.9185 85.9985 39.5013 85.9985C43.5293 85.9985 46.8435 83.0644 47.6361 79.3191H53.866C54.1957 80.8771 54.9605 82.3177 56.1025 83.4879C59.3713 86.8374 64.6293 86.8383 67.899 83.4879C69.4607 81.8876 70.3208 79.7829 70.3208 77.5613C70.3208 72.458 65.7255 68.4971 60.6134 69.3591L58.9721 65.257H65.0308C69.0016 65.257 72.3945 63.2304 73.4779 60.2131C77.1082 50.397 77 50.8137 77 50.3587V50.3587ZM53.8691 75.8035H47.6328C47.1732 73.6758 45.899 71.8478 44.1523 70.6658L46.3161 65.257H55.1858L57.3496 70.6658C55.603 71.8478 54.3286 73.6758 53.8691 75.8035V75.8035Z" fill="url(#paint0_linear)"/>
<path d="M76.4686 45.101C74.3002 34.5141 65.4773 26 54.5014 26H51.689C50.9314 26 50.259 26.4854 50.0206 27.2045L44.0859 45.101H76.4686Z" fill="#F24274"/>
</g>
<defs>
<linearGradient id="paint0_linear" x1="77.0003" y1="86.0003" x2="17.002" y2="86.0003" gradientUnits="userSpaceOnUse">
<stop stop-color="#03B5FF"/>
<stop offset="1" stop-color="#008CD5"/>
</linearGradient>
<clipPath id="clip0">
<rect width="60" height="60" fill="white" transform="translate(17 26)"/>
</clipPath>
</defs>
</svg>
