<svg width="49" height="49" viewBox="0 0 49 49" fill="none" xmlns="http://www.w3.org/2000/svg">
<circle cx="24.5" cy="24.5" r="23.5" stroke="url(#paint0_linear)" stroke-width="2"/>
<g clip-path="url(#clip0)">
<path d="M17.7276 22.2881C17.9553 22.4487 18.6417 22.926 19.7868 23.7194C20.9319 24.5129 21.8091 25.1239 22.4185 25.5524C22.4854 25.5994 22.6277 25.7015 22.8453 25.8588C23.0629 26.0163 23.2438 26.1436 23.3876 26.2406C23.5316 26.3377 23.7057 26.4465 23.9101 26.567C24.1143 26.6874 24.3069 26.778 24.4877 26.8379C24.6685 26.8984 24.8359 26.9283 24.9899 26.9283H25H25.0101C25.1641 26.9283 25.3316 26.8983 25.5124 26.8379C25.6932 26.778 25.8859 26.6873 26.09 26.567C26.2942 26.4464 26.4682 26.3376 26.6122 26.2406C26.7562 26.1436 26.9369 26.0163 27.1546 25.8588C27.3722 25.7013 27.5146 25.5994 27.5816 25.5524C28.1975 25.1239 29.7647 24.0357 32.2824 22.2879C32.7712 21.9465 33.1796 21.5346 33.5077 21.0524C33.836 20.5705 34 20.0649 34 19.5359C34 19.0939 33.8409 18.7155 33.5228 18.4008C33.2047 18.086 32.8279 17.9287 32.3928 17.9287H17.6071C17.0915 17.9287 16.6947 18.1028 16.4168 18.451C16.1389 18.7992 16 19.2345 16 19.7567C16 20.1786 16.1842 20.6358 16.5525 21.1279C16.9207 21.6201 17.3125 22.0069 17.7276 22.2881Z" fill="url(#paint1_linear)"/>
<path d="M32.9954 23.3626C30.7992 24.8491 29.1316 26.0043 27.9933 26.8281C27.6117 27.1092 27.302 27.3287 27.0642 27.4859C26.8264 27.6433 26.5102 27.804 26.115 27.968C25.72 28.1322 25.3518 28.2141 25.0103 28.2141H25H24.9899C24.6484 28.2141 24.2801 28.1322 23.885 27.968C23.49 27.804 23.1736 27.6433 22.9358 27.4859C22.6982 27.3287 22.3884 27.1092 22.0068 26.8281C21.1027 26.1652 19.4387 25.0099 17.0146 23.3626C16.6328 23.1083 16.2946 22.8168 16 22.4888V30.464C16 30.9062 16.1573 31.2844 16.4721 31.5991C16.7868 31.914 17.1652 32.0713 17.6072 32.0713H32.3929C32.8348 32.0713 33.2132 31.914 33.528 31.5991C33.8428 31.2843 34 30.9063 34 30.464V22.4888C33.712 22.8101 33.3773 23.1015 32.9954 23.3626Z" fill="url(#paint2_linear)"/>
</g>
<defs>
<linearGradient id="paint0_linear" x1="49" y1="49" x2="0" y2="49" gradientUnits="userSpaceOnUse">
<stop stop-color="#FF6784"/>
<stop offset="1" stop-color="#F24274"/>
</linearGradient>
<linearGradient id="paint1_linear" x1="34" y1="26.9283" x2="16" y2="26.9283" gradientUnits="userSpaceOnUse">
<stop stop-color="#FF6784"/>
<stop offset="1" stop-color="#F24274"/>
</linearGradient>
<linearGradient id="paint2_linear" x1="34" y1="32.0713" x2="16" y2="32.0713" gradientUnits="userSpaceOnUse">
<stop stop-color="#FF6784"/>
<stop offset="1" stop-color="#F24274"/>
</linearGradient>
<clipPath id="clip0">
<rect width="18" height="18" fill="white" transform="translate(16 16)"/>
</clipPath>
</defs>
</svg>
