<svg width="16" height="12" viewBox="0 0 16 12" fill="none" xmlns="http://www.w3.org/2000/svg">
<path d="M7.99982 3.81836C9.20347 3.81836 10.1816 4.79653 10.1816 6.00018C10.1816 7.20383 9.20347 8.182 7.99982 8.182C6.79617 8.182 5.818 7.20383 5.818 6.00018C5.818 4.79653 6.79621 3.81836 7.99982 3.81836Z" fill="#7A7A7A"/>
<path d="M7.99998 0.545532C11.6364 0.545532 14.7418 2.80733 16 6.00008C14.7418 9.1928 11.6364 11.4546 7.99998 11.4546C4.35999 11.4546 1.25816 9.1928 -3.43323e-05 6.00008C1.25816 2.80733 4.35999 0.545532 7.99998 0.545532ZM7.99998 9.63643C10.0073 9.63643 11.6364 8.00732 11.6364 6.00005C11.6364 3.99277 10.0073 2.3637 7.99998 2.3637C5.99271 2.3637 4.36361 3.99281 4.36361 6.00008C4.36361 8.00736 5.99271 9.63643 7.99998 9.63643Z" fill="#7A7A7A"/>
</svg>
