<svg width="106" height="68" viewBox="0 0 106 68" fill="none" xmlns="http://www.w3.org/2000/svg">
<g clip-path="url(#clip0)">
<path d="M100.481 16.2176C97.7551 14.7159 94.251 14.3625 91.4013 15.6668C89.5668 16.5034 88.5774 17.8337 87.3716 19.3354C87.2222 19.273 87.0934 19.1847 86.9491 19.112C83.3522 17.3504 79.2401 17.6726 76.04 20.146C72.4998 22.8845 71.2476 27.4624 72.4483 31.7286C73.6335 35.9376 76.4832 39.7621 79.9924 42.2927C87.2325 47.5098 97.6675 44.7713 102.568 37.6316C106.814 31.4428 108.159 20.4526 100.481 16.2176Z" fill="#FF4331"/>
<path d="M87.3253 19.6212C86.8924 19.829 86.5626 20.198 86.609 20.7124C86.712 21.7933 88.5156 21.9803 89.0464 21.0814C89.7317 19.9382 88.3043 19.1587 87.3253 19.6212Z" fill="#ADE026"/>
<path d="M100.481 16.2177C98.8011 15.2927 96.8224 14.8043 94.8848 14.8718C95.6011 15.5162 96.2349 16.3112 96.7657 17.231C98.7548 20.6761 99.0124 24.9319 97.7654 28.6836C96.3947 32.8147 93.1225 35.8026 89.3556 37.746C85.6196 39.6738 80.3274 40.2818 76.2822 38.8424C77.3798 40.1519 78.6372 41.321 79.9924 42.2979C87.2325 47.515 97.6675 44.7766 102.568 37.6369C106.814 31.4429 108.159 20.4527 100.481 16.2177Z" fill="#E02412"/>
<path d="M88.1858 20.094C87.3098 17.7869 87.0006 15.303 87.0418 12.8452C87.0882 10.1743 87.5623 7.51379 88.4538 4.99878C88.9536 3.59577 89.5978 2.24473 90.3913 0.987229C90.85 0.259746 89.7008 -0.415773 89.2474 0.311709C87.753 2.68122 86.7687 5.37811 86.2277 8.12695C85.6969 10.829 85.5578 13.6246 85.9185 16.3579C86.104 17.7557 86.408 19.1327 86.913 20.4526C87.0418 20.7903 87.3613 21.0242 87.7272 20.9203C88.0415 20.8319 88.3146 20.437 88.1858 20.094Z" fill="#703002"/>
<path d="M76.2874 31.0323C75.6175 29.437 75.6072 27.8105 76.1122 26.2413C76.3338 25.5554 76.6945 24.859 77.1686 24.1731C77.2974 23.9861 77.3128 23.9653 77.4159 23.8406C77.5447 23.6847 77.6787 23.5288 77.8178 23.3833C78.127 23.0507 78.462 22.7442 78.8124 22.4532C79.3792 21.9855 79.2968 21.0034 78.8124 20.5149C78.2507 19.9485 77.4623 20.0473 76.8903 20.5149C75.2825 21.84 74.0509 23.6483 73.448 25.6593C72.7627 27.9301 73.0358 30.2528 73.9427 32.4093C74.2313 33.09 75.2258 33.2407 75.803 32.9029C76.4987 32.4924 76.576 31.713 76.2874 31.0323Z" fill="white"/>
<path d="M91.9681 20.0058C92.8081 19.5745 93.6532 19.1484 94.4931 18.7171C94.7869 18.5664 95.0342 18.2078 95.1166 17.8961C95.2043 17.5687 95.1682 17.1322 94.9775 16.8412C94.792 16.5502 94.5137 16.2904 94.1633 16.2125C93.7923 16.1293 93.4574 16.1761 93.1173 16.3528C92.2773 16.784 91.4322 17.2101 90.5922 17.6414C90.2985 17.7921 90.0512 18.1507 89.9687 18.4625C89.8811 18.7898 89.9172 19.2263 90.1079 19.5173C90.2934 19.8083 90.5716 20.0681 90.922 20.1461C91.2931 20.2292 91.628 20.1772 91.9681 20.0058Z" fill="white"/>
<g opacity="0.5">
<path opacity="0.5" d="M75.6432 34.1969C78.7454 35.7817 82.9194 33.7604 84.9652 29.6813C87.0109 25.6074 86.1555 21.019 83.0482 19.4342C79.9512 17.8545 75.7721 19.8707 73.7315 23.9446C71.6857 28.0289 72.5411 32.6172 75.6432 34.1969Z" fill="white"/>
</g>
</g>
<g clip-path="url(#clip1)">
<path d="M23.245 32.3124C21.0227 32.567 20.0407 30.3026 18.165 29.5285C19.283 26.3508 21.648 19.6932 17.5568 20.0089C14.4239 20.2533 11.3215 28.8902 15.5724 30.3433C14.0093 30.9951 10.0201 36.4985 11.2196 39.812C12.6535 43.7706 15.8714 35.687 16.9622 34.3223C18.8752 37.1028 21.648 39.1941 24.227 38.7833L23.245 32.3124Z" fill="#AAAAAA"/>
<path d="M46.0196 67.0515C37.0082 64.2947 27.5414 62.913 21.7105 49.2447C18.3567 41.3886 17.8979 33.777 23.9293 29.9237C30.0967 25.9855 36.9266 25.6833 43.4304 26.4336C46.3221 26.7663 49.0812 27.7135 51.9525 27.958C55.0719 28.2194 58.3237 29.153 60.9402 32.3172L46.0196 67.0515Z" fill="#8E3222"/>
<path d="M29.135 51.1119C30.3821 68.2227 46.2575 68.2295 53.3185 66.2468C58.1164 64.899 63.7163 61.9623 66.4891 54.4016C68.1065 49.9915 68.3919 43.1676 66.574 38.6726C62.3571 28.2261 55.1194 29.3227 48.67 29.2854C43.1891 29.2548 36.1723 30.8708 31.884 37.4538C29.6957 40.808 28.7714 46.0839 29.135 51.1119Z" fill="#F17171"/>
<path d="M33.5422 56.4115C29.0772 50.1307 33.3859 40.8454 37.2562 37.851C41.9148 34.2455 47.3788 32.239 52.4656 32.1066C56.6757 31.998 64.2362 33.8075 64.892 43.0657C65.1095 46.1144 64.4876 52.368 63.6279 55.1112C61.5892 61.5923 53.7262 63.1845 49.9681 62.5463C44.7997 61.6738 37.8237 62.4376 33.5422 56.4115Z" fill="#F49294"/>
<path d="M51.1743 50.6875C51.8132 53.4612 53.3864 53.9705 54.8034 52.5989C56.6247 50.8335 56.7334 44.7632 54.6131 43.5342C52.2005 42.1321 50.3452 47.0854 51.1743 50.6875Z" fill="white"/>
</g>
<g clip-path="url(#clip2)">
<path d="M11.0877 54.5439C11.0877 57.6057 8.60388 60.0877 5.54199 60.0877C2.48382 60.0877 0 57.6057 0 54.5439C0 51.482 2.48382 49 5.54572 49C8.60761 49 11.0877 51.482 11.0877 54.5439Z" fill="#009F86"/>
<g opacity="0.5">
<path opacity="0.5" d="M4.57605 49.0886C3.12529 49.7571 2.11461 51.2197 2.11461 52.9261C2.11461 55.2604 4.00545 57.1514 6.34009 57.1514C8.67474 57.1514 10.5656 55.2604 10.5656 52.9261C10.5656 52.5937 10.5246 52.2687 10.45 51.9584C10.8565 52.7304 11.0914 53.6094 11.0914 54.5438C11.0914 57.6057 8.60761 60.0877 5.54572 60.0877C2.48382 60.0877 0 57.6057 0 54.5438C0 51.8144 1.97662 49.5503 4.57605 49.0886Z" fill="#009F86"/>
</g>
<path d="M8.66355 52.6011C8.66355 53.6759 7.63422 54.5438 6.3662 54.5438C5.09818 54.5438 4.06885 53.6722 4.06885 52.6011C4.06885 51.53 5.09818 50.6583 6.3662 50.6583C7.63422 50.6583 8.66355 51.5263 8.66355 52.6011Z" fill="white"/>
<path d="M9.64067 54.5512C9.64067 54.7802 9.43555 54.9649 9.17822 54.9649C8.92461 54.9649 8.71576 54.7802 8.71576 54.5512C8.71576 54.3222 8.92088 54.1376 9.17822 54.1376C9.43555 54.1376 9.64067 54.3222 9.64067 54.5512Z" fill="white"/>
<path d="M9.37587 50.8283C8.19735 49.5429 6.34381 49.0148 4.6469 49.3767C4.15834 49.4801 3.82642 50.0748 3.97933 50.5439C4.14715 51.0536 4.63198 51.3195 5.15784 51.205C5.24362 51.1865 5.32567 51.1717 5.41144 51.157C5.53452 51.1348 5.20259 51.1754 5.32567 51.168C5.36296 51.1644 5.40026 51.1607 5.44128 51.157C5.60165 51.1459 5.76574 51.1422 5.92611 51.1496C6.01189 51.1533 6.09767 51.1644 6.18344 51.1717C6.30652 51.1828 5.97459 51.1385 6.09767 51.1607C6.13496 51.168 6.17225 51.1717 6.20955 51.1791C6.37737 51.2087 6.5452 51.253 6.7093 51.3047C6.78016 51.3269 6.85475 51.3527 6.92561 51.3786C6.95544 51.3897 7.08224 51.4414 6.94425 51.3823C6.79508 51.3195 6.95544 51.3897 6.98528 51.4044C7.13073 51.4746 7.27245 51.5522 7.41044 51.6371C7.47384 51.6777 7.53724 51.7184 7.60064 51.7627C7.71998 51.8476 7.62302 51.7885 7.56708 51.7331C7.59318 51.759 7.62675 51.7812 7.65658 51.8033C7.78711 51.9141 7.91019 52.0323 8.0258 52.1579C8.36518 52.5272 9.04021 52.5235 9.3796 52.1579C9.74135 51.7738 9.73762 51.2198 9.37587 50.8283Z" fill="white"/>
</g>
<g clip-path="url(#clip3)">
<path d="M23 5.87748C23 7.46671 24.2892 8.75496 25.8784 8.75496C27.4657 8.75496 28.7549 7.46671 28.7549 5.87748C28.7549 4.28825 27.4657 3 25.8765 3C24.2873 3 23 4.28825 23 5.87748Z" fill="#009F86"/>
<g opacity="0.5">
<path opacity="0.5" d="M26.3798 3.04602C27.1328 3.393 27.6574 4.15215 27.6574 5.03783C27.6574 6.2494 26.676 7.23092 25.4642 7.23092C24.2524 7.23092 23.271 6.2494 23.271 5.03783C23.271 4.86529 23.2923 4.69659 23.331 4.53556C23.12 4.93622 22.9981 5.39248 22.9981 5.87749C22.9981 7.46672 24.2873 8.75497 25.8765 8.75497C27.4657 8.75497 28.7549 7.46672 28.7549 5.87749C28.7549 4.4608 27.729 3.28565 26.3798 3.04602Z" fill="#009F86"/>
</g>
<path d="M24.2582 4.86914C24.2582 5.427 24.7925 5.87751 25.4506 5.87751C26.1088 5.87751 26.643 5.42508 26.643 4.86914C26.643 4.3132 26.1088 3.86078 25.4506 3.86078C24.7925 3.86078 24.2582 4.31128 24.2582 4.86914Z" fill="white"/>
<path d="M23.751 5.88133C23.751 6.00019 23.8575 6.09604 23.9911 6.09604C24.1227 6.09604 24.2311 6.00019 24.2311 5.88133C24.2311 5.76248 24.1246 5.66663 23.9911 5.66663C23.8575 5.66663 23.751 5.76248 23.751 5.88133Z" fill="white"/>
<path d="M23.8885 3.94892C24.5002 3.28179 25.4622 3.00765 26.343 3.19552C26.5966 3.2492 26.7689 3.55785 26.6895 3.80131C26.6024 4.06586 26.3507 4.20389 26.0778 4.14446C26.0333 4.13487 25.9907 4.12721 25.9462 4.11954C25.8823 4.10804 26.0546 4.12912 25.9907 4.12529C25.9713 4.12337 25.952 4.12146 25.9307 4.11954C25.8475 4.11379 25.7623 4.11187 25.679 4.1157C25.6345 4.11762 25.59 4.12337 25.5455 4.12721C25.4816 4.13296 25.6539 4.10995 25.59 4.12146C25.5706 4.12529 25.5513 4.12721 25.5319 4.13104C25.4448 4.14638 25.3577 4.16938 25.2725 4.19622C25.2358 4.20772 25.197 4.22114 25.1603 4.23456C25.1448 4.24031 25.079 4.26715 25.1506 4.23648C25.228 4.20389 25.1448 4.24031 25.1293 4.24798C25.0538 4.2844 24.9802 4.32466 24.9086 4.36875C24.8757 4.38984 24.8428 4.41093 24.8099 4.43393C24.748 4.47803 24.7983 4.44735 24.8273 4.4186C24.8138 4.43202 24.7963 4.44352 24.7809 4.45502C24.7131 4.51253 24.6492 4.57388 24.5892 4.63906C24.4131 4.83076 24.0627 4.82884 23.8865 4.63906C23.6988 4.43968 23.7007 4.15213 23.8885 3.94892Z" fill="white"/>
</g>
<defs>
<clipPath id="clip0">
<rect width="34" height="45" fill="white" transform="translate(72)"/>
</clipPath>
<clipPath id="clip1">
<rect width="56.8245" height="47.1227" fill="white" transform="translate(11 20)"/>
</clipPath>
<clipPath id="clip2">
<rect width="11.0877" height="11.0877" fill="white" transform="translate(0 49)"/>
</clipPath>
<clipPath id="clip3">
<rect width="5.75496" height="5.75496" fill="white" transform="matrix(-1 0 0 1 28.7549 3)"/>
</clipPath>
</defs>
</svg>
