<svg width="116" height="89" viewBox="0 0 116 89" fill="none" xmlns="http://www.w3.org/2000/svg">
<g clip-path="url(#clip0)">
<path d="M0.527625 48.7667C3.66758 57.8306 12.8178 57.1332 12.9585 64.6003C13.0968 72.0651 18.0307 77.5176 24.402 75.8621C30.7758 74.2043 35.372 72.6287 38.6385 79.9174C41.9051 87.2037 51.4282 90.4935 54.8706 84.4681C55.7289 82.97 56.6552 81.3451 57.5603 79.7507C57.8065 79.3163 58.0551 78.8819 58.2966 78.4545C58.3529 78.3559 58.4092 78.2572 58.4655 78.1586C62.1073 71.7481 60.4423 63.5437 54.4579 59.2465C52.0355 57.5065 49.1887 56.5955 46.0558 57.6756C36.2443 61.0499 39.3796 50.8753 33.2661 46.9046C26.2241 42.3304 20.6196 48.1163 15.7584 44.169C8.99307 38.679 -2.61233 39.7028 0.527625 48.7667Z" fill="#F9B10E"/>
<path d="M12.5692 52.2067L57.5603 79.7529C57.8065 79.3185 58.0551 78.8841 58.2966 78.4567L13.3454 50.9363C12.996 50.7226 12.5363 50.8307 12.323 51.1829C12.1072 51.5328 12.2174 51.993 12.5692 52.2067Z" fill="#D6931D"/>
<path d="M14.4991 6.7651C13.0147 18.5482 23.5484 22.8007 19.6112 31.1625C15.6739 39.5219 18.1596 48.2806 26.135 49.9454C34.1127 51.6103 40.076 52.3875 39.7078 62.2686C39.3373 72.1473 48.1006 81.0304 55.22 76.2378C56.9928 75.0473 58.911 73.7534 60.787 72.4831C61.3006 72.1356 61.8118 71.7904 62.3136 71.4499C62.4309 71.3724 62.5481 71.2926 62.663 71.2151C70.2162 66.1055 72.8661 56.0882 68.5818 48.0317C66.8465 44.7701 64.1873 42.1942 60.121 41.6705C47.3853 40.0221 56.4394 30.4557 51.8338 22.6927C46.5294 13.7485 37.1401 17.0876 33.911 10.0361C29.418 0.22547 15.9835 -5.01563 14.4991 6.7651Z" fill="#00E2A7"/>
<path d="M25.9708 17.198L60.787 72.4831C61.3006 72.1356 61.8118 71.7904 62.3136 71.4499L27.5303 16.2142C27.2583 15.7844 26.6908 15.6529 26.2593 15.9253C25.8301 16.1977 25.7012 16.766 25.9708 17.198Z" fill="#00B98E"/>
<path d="M81.7771 80.5302V80.5279H68.6381H55.4991L42.9744 89H68.6381H94.2994L81.7771 80.5302Z" fill="#CDD1D1"/>
<path d="M21.2762 9.59228V66.986C21.2762 69.6371 23.4195 71.7833 26.0647 71.7833H55.5342H68.6404H81.7443H111.214C113.857 71.7833 116.002 69.6371 116.002 66.986V9.59228C116.002 6.94356 113.859 4.79968 111.214 4.79968H68.6381H26.0623C23.4195 4.79734 21.2762 6.94356 21.2762 9.59228Z" fill="#F2F2F2"/>
<path d="M110.808 10.1041C110.053 9.57105 109.12 9.24231 108.086 9.24231H68.6381H29.1906C26.74 9.24231 24.7562 11.0269 24.7562 13.2271V60.9488C24.7562 61.8599 25.1103 62.6888 25.6801 63.3604C26.4915 64.309 27.7554 64.9336 29.1906 64.9336H68.6381H108.086C110.536 64.9336 112.52 63.1514 112.52 60.9488V13.2271C112.52 11.9544 111.845 10.8344 110.808 10.1041Z" fill="#F5FBFF"/>
<path d="M70.5962 68.8693C70.5962 69.9518 69.7215 70.83 68.6381 70.83C67.5547 70.83 66.6801 69.9518 66.6801 68.8693C66.6801 67.7868 67.5571 66.9086 68.6381 66.9086C69.7215 66.9086 70.5962 67.7868 70.5962 68.8693Z" fill="#D6D6D6"/>
<path d="M81.8033 72.6146C81.8033 72.3281 81.7845 72.0487 81.7423 71.7786H68.6385H55.5346C55.4948 72.0487 55.4713 72.3281 55.4713 72.6146V74.1714H81.8033V72.6146Z" fill="#CDD1D1"/>
<path d="M55.4686 74.1738V79.9714C55.4686 80.1616 55.4803 80.3447 55.4967 80.5302H68.6357H81.7747C81.7912 80.3447 81.8005 80.1616 81.8005 79.9714V74.1738H55.4686Z" fill="#D9E1E3"/>
<path d="M108.086 10.5221C108.803 10.5221 109.49 10.7381 110.072 11.149C110.815 11.6727 111.242 12.4311 111.242 13.2271V60.9488C111.242 62.4399 109.826 63.6539 108.083 63.6539H68.6381H29.1906C28.1892 63.6539 27.263 63.2429 26.6533 62.5315C26.3695 62.198 26.0342 61.6556 26.0342 60.9488V13.2271C26.0342 11.7361 27.4506 10.5221 29.1906 10.5221H68.6381H108.086ZM108.086 9.24231H68.6381H29.1906C26.74 9.24231 24.7562 11.0269 24.7562 13.2271V60.9488C24.7562 61.8599 25.1103 62.6888 25.6801 63.3604C26.4915 64.309 27.7554 64.9336 29.1906 64.9336H68.6381H108.086C110.536 64.9336 112.52 63.1514 112.52 60.9488V13.2271C112.52 11.9544 111.845 10.8344 110.808 10.1041C110.053 9.5734 109.117 9.24231 108.086 9.24231Z" fill="white"/>
<path d="M104.442 42.0274C104.442 42.2975 104.005 42.5182 103.468 42.5182H35.6675C35.1305 42.5182 34.692 42.2975 34.692 42.0274V40.2287C34.692 39.9587 35.1281 39.738 35.6675 39.738H103.468C104.005 39.738 104.442 39.9587 104.442 40.2287V42.0274Z" fill="#00E2A7"/>
<path d="M104.442 49.3278C104.442 49.5979 104.005 49.8186 103.468 49.8186H35.6675C35.1305 49.8186 34.692 49.5979 34.692 49.3278V47.5292C34.692 47.2591 35.1281 47.0384 35.6675 47.0384H103.468C104.005 47.0384 104.442 47.2591 104.442 47.5292V49.3278Z" fill="#00E2A7"/>
<path d="M104.442 56.8655C104.442 57.1355 104.005 57.3562 103.468 57.3562H35.6675C35.1305 57.3562 34.692 57.1355 34.692 56.8655V55.0668C34.692 54.7967 35.1281 54.576 35.6675 54.576H103.468C104.005 54.576 104.442 54.7967 104.442 55.0668V56.8655Z" fill="#00E2A7"/>
<path d="M104.441 18.7126C104.441 18.9826 104.193 19.2033 103.888 19.2033H65.3363C65.0315 19.2033 64.7829 18.9826 64.7829 18.7126V16.9139C64.7829 16.6438 65.0315 16.4231 65.3363 16.4231H103.888C104.193 16.4231 104.441 16.6438 104.441 16.9139V18.7126Z" fill="#00E2A7"/>
<path d="M104.441 26.4826C104.441 26.7526 104.193 26.9733 103.888 26.9733H65.3363C65.0315 26.9733 64.7829 26.7526 64.7829 26.4826V24.6839C64.7829 24.4138 65.0315 24.1931 65.3363 24.1931H103.888C104.193 24.1931 104.441 24.4138 104.441 24.6839V26.4826Z" fill="#00E2A7"/>
<path d="M104.441 34.255C104.441 34.5251 104.193 34.7458 103.888 34.7458H65.3363C65.0315 34.7458 64.7829 34.5251 64.7829 34.255V32.4563C64.7829 32.1863 65.0315 31.9656 65.3363 31.9656H103.888C104.193 31.9656 104.441 32.1863 104.441 32.4563V34.255Z" fill="#00E2A7"/>
<path d="M57.9426 15.7985H35.3157V34.5321H57.9426V15.7985Z" fill="#00E2A7"/>
</g>
<defs>
<clipPath id="clip0">
<rect width="116" height="89" fill="white"/>
</clipPath>
</defs>
</svg>
