<svg width="12" height="12" viewBox="0 0 12 12" fill="none" xmlns="http://www.w3.org/2000/svg">
<g clip-path="url(#clip0)">
<path d="M1.15176 4.19189C1.30356 4.299 1.76114 4.61714 2.52452 5.14614C3.28792 5.67513 3.87274 6.08245 4.27899 6.3681C4.32363 6.39941 4.41845 6.46748 4.56352 6.57239C4.70861 6.67737 4.82917 6.76221 4.9251 6.82692C5.0211 6.89161 5.13715 6.96418 5.27338 7.04451C5.40955 7.12477 5.53792 7.18514 5.65845 7.22511C5.77901 7.2654 5.89061 7.28536 5.99327 7.28536H6H6.00676C6.10942 7.28536 6.22106 7.26538 6.34162 7.22511C6.4621 7.18514 6.59059 7.1247 6.72665 7.04451C6.86278 6.96408 6.97883 6.89158 7.07483 6.82692C7.17083 6.76221 7.29129 6.67737 7.43643 6.57239C7.58148 6.46738 7.67642 6.39941 7.72105 6.3681C8.1317 6.08245 9.17644 5.35697 10.8549 4.19174C11.1808 3.96416 11.4531 3.68956 11.6718 3.36811C11.8907 3.04681 12 2.70974 12 2.3571C12 2.06242 11.8939 1.81016 11.6818 1.60036C11.4698 1.39051 11.2186 1.28564 10.9285 1.28564H1.07138C0.727657 1.28564 0.463135 1.4017 0.277867 1.63381C0.0926224 1.86596 0 2.15614 0 2.50432C0 2.78557 0.122808 3.09034 0.368308 3.41845C0.613784 3.74658 0.875022 4.00441 1.15176 4.19189Z" fill="url(#svg-mail_2-bg)"/>
<path d="M11.3303 4.90825C9.86614 5.89923 8.75439 6.66939 7.99556 7.21855C7.7411 7.40598 7.53468 7.55229 7.37615 7.65713C7.21762 7.76204 7.00679 7.86918 6.74334 7.97851C6.47999 8.08799 6.23457 8.14257 6.00684 8.14257H6.00002H5.99329C5.76561 8.14257 5.52004 8.08799 5.2567 7.97851C4.99335 7.86918 4.78237 7.76204 4.62389 7.65713C4.46545 7.55229 4.25896 7.40598 4.00452 7.21855C3.40181 6.77662 2.29245 6.00642 0.676408 4.90825C0.421878 4.73872 0.196432 4.5444 0 4.32568V9.64249C0 9.93732 0.104866 10.1894 0.314714 10.3993C0.524516 10.6092 0.776793 10.7141 1.07145 10.7141H10.9286C11.2232 10.7141 11.4755 10.6092 11.6853 10.3993C11.8952 10.1894 12 9.93734 12 9.64249V4.32568C11.808 4.53987 11.5849 4.73419 11.3303 4.90825Z" fill="url(#svg-mail_2-bg-2)"/>
</g>
<defs>
<linearGradient id="svg-mail_2-bg" x1="12" y1="7.28536" x2="0" y2="7.28536" gradientUnits="userSpaceOnUse">
<stop stop-color="#FF6784"/>
<stop offset="1" stop-color="#F24274"/>
</linearGradient>
<linearGradient id="svg-mail_2-bg-2" x1="12" y1="10.7141" x2="0" y2="10.7141" gradientUnits="userSpaceOnUse">
<stop stop-color="#FF6784"/>
<stop offset="1" stop-color="#F24274"/>
</linearGradient>
<clipPath id="clip0">
<rect width="12" height="12" fill="white"/>
</clipPath>
</defs>
</svg>
