<svg width="103" height="97" viewBox="0 0 103 97" fill="none" xmlns="http://www.w3.org/2000/svg">
<g clip-path="url(#clip0)">
<path d="M26.4511 81.379C20.1466 69.0553 15.5112 58.1554 12.663 48.9262C8.93977 36.8696 8.27757 27.6438 10.6966 21.509C10.8588 21.1032 11.3149 20.9036 11.7237 21.0626C12.1292 21.2215 12.3285 21.6815 12.1697 22.0907C7.93971 32.8181 13.9333 54.1444 29.4986 83.8173L26.4511 81.379Z" fill="#F24274"/>
<path d="M10.2372 37.9011C10.2372 37.9011 4.15906 40.5085 0 29.6323C0 29.6323 10.4331 28.2829 10.2372 37.9011Z" fill="#E8749B"/>
<path d="M12.0954 43.62C12.0954 43.62 9.15602 37.6915 19.7716 32.9264C19.7716 32.9264 21.6974 43.2784 12.0954 43.62Z" fill="#E8749B"/>
<path d="M10.2912 26.6258C10.2912 26.6258 5.54768 22.0163 13.9671 13.9843C13.9705 13.9843 19.2344 23.1019 10.2912 26.6258Z" fill="#E8749B"/>
<path d="M15.474 55.2368C15.474 55.2368 10.6358 59.7483 3.04413 50.9215C3.04413 50.9215 12.4062 46.1192 15.474 55.2368Z" fill="#E8749B"/>
<path d="M18.2444 60.7764C18.2444 60.7764 14.3253 55.4465 23.9577 48.916C23.9577 48.916 27.6437 58.7777 18.2444 60.7764Z" fill="#E8749B"/>
<path d="M21.2852 68.734C21.2852 68.734 16.5315 73.3368 8.77759 64.6554C8.77759 64.6588 18.0485 59.6806 21.2852 68.734Z" fill="#E8749B"/>
<path d="M84.5089 50.8605C86.9077 46.1732 88.6714 42.027 89.7559 38.5132C91.1715 33.9273 91.4249 30.4169 90.5026 28.0834C90.4418 27.9278 90.2661 27.8534 90.1107 27.9143C89.9552 27.9751 89.8809 28.151 89.9417 28.3066C91.5499 32.3885 89.2694 40.5018 83.3501 51.7906L84.5089 50.8605Z" fill="#F24274"/>
<path d="M90.6782 34.3197C90.6782 34.3197 92.9892 35.3106 94.5738 31.1745C94.5738 31.1745 90.6039 30.6605 90.6782 34.3197Z" fill="#E8749B"/>
<path d="M89.9721 36.4942C89.9721 36.4942 91.0904 34.2385 87.053 32.4258C87.0496 32.4258 86.3198 36.3657 89.9721 36.4942Z" fill="#E8749B"/>
<path d="M90.658 30.0314C90.658 30.0314 92.4622 28.2795 89.2592 25.2223C89.2592 25.2189 87.2557 28.6887 90.658 30.0314Z" fill="#E8749B"/>
<path d="M88.6883 40.9144C88.6883 40.9144 90.5296 42.629 93.4183 39.2741C93.4149 39.2741 89.8539 37.4445 88.6883 40.9144Z" fill="#E8749B"/>
<path d="M87.6308 43.0213C87.6308 43.0213 89.1207 40.9921 85.4583 38.5098C85.4583 38.5098 84.0562 42.2604 87.6308 43.0213Z" fill="#E8749B"/>
<path d="M86.4753 46.0481C86.4753 46.0481 88.2828 47.8 91.2324 44.4958C91.2324 44.4992 87.7085 42.6053 86.4753 46.0481Z" fill="#E8749B"/>
<path d="M67.8186 3.52054C67.8186 3.52054 67.5619 3.83844 66.9909 4.32544C65.1124 5.92508 59.8283 9.34081 48.9965 9.34081C40.0364 9.34081 34.634 7.86292 32.046 6.88554C30.7689 6.40193 30.1743 6.04345 30.1743 6.04345C30.1743 6.04345 27.4883 -0.872563 37.7795 0.0912818C48.0707 1.05513 53.811 4.7617 58.0613 3.02002C62.3115 1.27833 69.2241 0.757518 67.8186 3.52054Z" fill="#D7E6F7"/>
<path d="M66.9909 4.32546C65.1124 5.92511 59.8283 9.34084 48.9965 9.34084C40.0364 9.34084 34.634 7.86294 32.046 6.88557C32.0427 6.87881 32.0393 6.87881 32.0393 6.87881C32.0393 6.87881 27.4883 0.470084 37.7795 1.43731C48.0707 2.40116 53.6116 5.24196 58.0376 4.01771C62.1021 2.89153 67.3625 1.96489 66.9909 4.32546Z" fill="#95AFD1"/>
<path d="M74.0521 18.7663C73.6906 18.418 73.1163 18.4281 72.7683 18.7866C70.5823 21.0423 66.9368 20.6365 62.4534 18.1102C62.4467 18.1068 62.4399 18.1034 62.4331 18.1001C60.6729 17.1092 58.9431 17.0787 57.5578 17.3527V18.3638V19.1789V20.048C58.3484 20.2171 59.5343 20.606 60.8013 21.509C60.852 21.5462 60.9026 21.5868 60.9567 21.6308C62.521 22.9362 64.6833 27.4612 67.4267 29.1217C69.4066 30.3223 71.3594 30.143 72.4811 29.7474C72.8494 29.6155 73.0859 29.2671 73.0859 28.8917C73.0859 28.8139 73.0757 28.7362 73.0555 28.6618C72.9271 28.1748 72.4338 27.8839 71.9473 28.0091C68.9032 28.797 65.9976 26.5379 63.4873 22.0332C63.0548 21.2554 62.5277 20.6399 61.9601 20.1529C61.4601 19.7234 60.9297 19.3953 60.406 19.1451C60.8925 19.2634 61.4736 19.4833 62.1189 19.7504C64.2812 20.6534 67.153 22.1076 69.491 22.0975C71.8088 22.0873 73.3798 20.9172 74.1299 19.9939C74.265 19.8282 74.3326 19.6253 74.3326 19.4224C74.3292 19.1823 74.2346 18.9421 74.0521 18.7663Z" fill="#00B98E"/>
<path d="M62.4534 18.1102C62.4467 18.1068 62.4399 18.1034 62.4332 18.1001C60.6729 17.1092 58.9431 17.0787 57.5578 17.3527V20.048C58.3484 20.2171 59.5343 20.606 60.8013 21.509C60.852 21.5462 60.9026 21.5868 60.9567 21.6308C61.4128 21.1844 61.7338 20.6703 61.9568 20.1529C61.4567 19.7234 60.9263 19.3953 60.4026 19.1451C60.8891 19.2634 61.4703 19.4833 62.1156 19.7504C62.3217 19.1552 62.4129 18.5769 62.4534 18.1102Z" fill="#07936E"/>
<path d="M67.8186 3.52056C67.8186 3.52056 66.1395 13.6156 56.5578 19.1653C56.5578 19.1653 50.3344 21.3466 45.6415 19.9161C44.5029 19.5677 43.4556 19.0097 42.6075 18.1541C42.6075 18.1541 32.1879 10.2472 30.1709 6.04347C30.1709 6.04347 31.4717 2.82388 39.2458 2.59391C40.6851 2.54995 42.1683 2.76639 43.7292 3.09782C49.9357 4.41677 57.345 7.5518 67.8186 3.52056Z" fill="#F0F6FC"/>
<path d="M66.5652 4.67041C66.5652 4.67041 64.2644 12.6145 59.8114 15.1882C59.8114 15.1882 58.6626 15.0732 57.5612 14.4915C57.5578 14.4915 62.4534 12.5232 66.5652 4.67041Z" fill="white"/>
<path d="M50.7533 94.5076C13.2543 94.5076 12.6799 66.0927 24.38 48.4358C36.0801 30.7822 42.8204 17.5217 42.8204 17.5217L43.7833 17.6841C45.2023 17.9242 46.6348 18.0831 48.0674 18.1643C51.2838 18.3469 54.5171 18.1339 57.693 17.5217C57.693 17.5217 59.6255 20.836 63.021 26.3587C66.4165 31.8813 71.275 39.609 77.1267 48.4358C80.8905 54.114 83.3839 60.9015 83.7859 67.503C84.6407 81.4263 76.1942 94.5076 50.7533 94.5076Z" fill="#F0F6FC"/>
<path d="M57.7673 22.0907C57.7673 22.0907 69.0789 38.5708 75.7279 49.8866C81.3533 59.4608 83.4514 69.1771 78.1774 75.9612C78.1774 75.9612 81.9919 65.8053 73.89 50.5563C70.1499 43.5117 60.2168 30.329 57.7673 22.0907Z" fill="white"/>
<path d="M76.3023 86.9862C71.0621 91.5653 62.8183 94.5076 50.7533 94.5076C13.2543 94.5076 12.6799 66.0927 24.38 48.4358C36.0801 30.7822 42.8204 17.5217 42.8204 17.5217L43.7833 17.6841C44.2935 17.7686 44.8002 17.8464 45.3138 17.9106C46.2294 18.029 47.1484 18.1136 48.0674 18.1643C48.0674 18.1643 47.4693 35.1821 37.8505 48.6049C28.2316 62.0311 30.2689 77.7739 50.2939 81.7983C64.2035 84.5952 84.617 80.2156 83.7859 67.4962C84.2353 74.8215 82.1135 81.9099 76.3023 86.9862Z" fill="#D7E6F7"/>
<path d="M48.1315 17.6773C48.3545 14.1432 43.1514 12.9663 40.5837 8.67801C37.8977 4.20036 43.7326 3.10124 43.7326 3.10124C42.1717 2.76981 40.6851 2.55337 39.2492 2.59733C36.7051 2.67173 34.8536 3.06742 33.5157 3.56456C30.7655 4.58928 30.1742 6.0435 30.1742 6.0435C31.8939 9.62833 39.7188 15.9052 41.9892 17.6773H48.1315Z" fill="#D7E6F7"/>
<path d="M59.6762 18.6479C59.683 19.0537 59.5478 19.5035 59.112 19.9161C59.112 19.9161 50.2364 17.1768 41.2933 20.4031C41.2933 20.4031 40.7425 19.6997 40.8 18.6885C40.8236 18.2759 40.9486 17.8092 41.2561 17.3222C41.2561 17.3222 49.8985 14.8703 59.2201 17.3628C59.2235 17.3628 59.6661 17.9343 59.6762 18.6479Z" fill="#00B98E"/>
<path d="M59.6762 18.6478C59.683 19.0537 59.5478 19.5035 59.112 19.916C59.112 19.916 50.2364 17.1767 41.2933 20.403C41.2933 20.403 40.7425 19.6996 40.8 18.6884C42.8981 17.9816 51.3547 16.1621 59.6762 18.6478Z" fill="#07936E"/>
<path d="M60.3215 17.2613C60.1425 17.4878 59.8147 17.6806 59.2235 17.6806C59.2235 17.6806 51.0777 14.5354 41.2595 17.64C41.2595 17.64 40.6175 17.6062 40.2662 17.1429C40.1344 16.9704 40.0432 16.7438 40.0364 16.4361C40.0364 16.4361 50.7331 12.6788 60.5411 16.5646C60.5411 16.5646 60.5783 16.9467 60.3215 17.2613Z" fill="#00B98E"/>
<path d="M60.3215 17.2613C60.1425 17.4879 59.8147 17.6806 59.2235 17.6806C59.2235 17.6806 51.0777 14.5355 41.2595 17.6401C41.2595 17.6401 40.6175 17.6062 40.2661 17.1429C41.8507 16.6356 51.4155 13.8422 60.3215 17.2613Z" fill="#07936E"/>
<path d="M73.5927 66.9348C76.1233 74.6253 71.9439 82.9144 64.2576 85.4474C63.2069 85.7924 62.146 86.0156 61.0885 86.117C59.7607 86.2489 58.4397 86.1914 57.1592 85.9682C56.0172 85.7687 54.9056 85.4339 53.8515 84.974C53.5305 84.8353 53.213 84.6831 52.8988 84.5208C51.5304 83.8072 50.2736 82.8772 49.1823 81.7578C48.9694 81.5413 48.7633 81.3147 48.564 81.0814C47.3443 79.6644 46.378 77.9869 45.7564 76.1032C45.6989 75.9307 45.6449 75.7582 45.5976 75.5824C43.415 68.0407 47.5775 60.0662 55.0915 57.5906C56.9396 56.9819 58.8214 56.762 60.6526 56.8838C61.0074 56.9075 61.3588 56.9447 61.7068 56.9954C63.2305 57.2084 64.7036 57.665 66.0719 58.3279C66.3726 58.4733 66.6699 58.6322 66.9605 58.7979C67.9943 59.3932 68.9606 60.1101 69.8289 60.9455C70.7242 61.8045 71.5148 62.7852 72.177 63.8742C72.6602 64.6689 73.0758 65.5178 73.4069 66.4208C73.4744 66.5899 73.5352 66.7624 73.5927 66.9348Z" fill="#EECD5A"/>
<g opacity="0.2">
<path opacity="0.2" d="M72.1804 63.8742L61.0919 86.1204C59.7641 86.2523 58.4431 86.1948 57.1626 85.9716L69.8323 60.9489C70.7243 61.8045 71.5182 62.7852 72.1804 63.8742Z" fill="#F8F9FA"/>
</g>
<g opacity="0.2">
<path opacity="0.2" d="M61.7101 56.9954L49.189 81.7611C48.9762 81.5447 48.7701 81.3181 48.5708 81.0847L60.6594 56.8838C61.0108 56.9108 61.3621 56.9447 61.7101 56.9954Z" fill="#F8F9FA"/>
</g>
<g opacity="0.2">
<path opacity="0.2" d="M66.9638 58.7979L53.8549 84.9739C53.5339 84.8352 53.2163 84.6831 52.9021 84.5207L66.0719 58.3278C66.376 58.4766 66.6733 58.6322 66.9638 58.7979Z" fill="#F8F9FA"/>
</g>
<path d="M70.7986 67.8547C70.856 68.0272 70.9067 68.1996 70.9574 68.3687C72.6298 74.3615 69.3019 80.6856 63.3386 82.6505C57.3754 84.6154 50.9425 81.5041 48.7329 75.6906C48.6721 75.5249 48.6113 75.3524 48.5539 75.1833C46.5335 69.0451 49.8817 62.4064 56.0138 60.384C62.1494 58.3684 68.7782 61.7165 70.7986 67.8547Z" fill="#DA8928"/>
<path d="M70.9573 68.3687C72.6298 74.3615 69.3018 80.6857 63.3386 82.6505C63.2068 82.6945 63.0717 82.7351 62.9399 82.7723C61.5952 83.1646 60.2303 83.2999 58.9025 83.2119C57.5713 83.1206 56.2773 82.8061 55.0712 82.2853C54.7637 82.1534 54.463 82.0114 54.1691 81.8524C52.8278 81.1354 51.625 80.1615 50.6418 78.9676C50.4053 78.6836 50.1823 78.3826 49.9729 78.0714C49.4796 77.3409 49.064 76.5428 48.7363 75.6872C47.0639 69.6944 50.3918 63.3669 56.355 61.402C57.1085 61.1551 57.872 60.986 58.6322 60.8947C59.0207 60.8474 59.4093 60.8203 59.7944 60.8135C61.3722 60.7831 62.9196 61.0773 64.3522 61.6523C64.6596 61.7774 64.9671 61.9127 65.2644 62.0649C66.4233 62.6465 67.4875 63.421 68.4031 64.3612C69.2951 65.2777 70.0485 66.3497 70.6127 67.5503C70.7344 67.8209 70.8492 68.0948 70.9573 68.3687Z" fill="#E7AB2B"/>
<g opacity="0.2">
<path opacity="0.2" d="M70.6128 67.5571L62.94 82.7757C61.5953 83.168 60.2303 83.3032 58.9025 83.2153L68.4065 64.3679C69.2951 65.2844 70.0452 66.3531 70.6128 67.5571Z" fill="#F8F9FA"/>
</g>
<g opacity="0.2">
<path opacity="0.2" d="M59.7911 60.8237L50.6385 78.9744C50.402 78.6904 50.179 78.3894 49.9695 78.0782L58.6288 60.9049C59.0174 60.8542 59.4059 60.8305 59.7911 60.8237Z" fill="#F8F9FA"/>
</g>
<g opacity="0.2">
<path opacity="0.2" d="M65.261 62.0716L55.0678 82.2887C54.7603 82.1568 54.4596 82.0147 54.1657 81.8558L64.3488 61.659C64.6596 61.7841 64.9637 61.9194 65.261 62.0716Z" fill="#F8F9FA"/>
</g>
<path d="M96.8544 81.6934C98.8646 87.8079 95.5435 94.3993 89.4316 96.4149C88.5971 96.6888 87.7524 96.8647 86.9145 96.9459C85.8604 97.0507 84.8096 97.0067 83.7927 96.8275C82.8838 96.6686 82.002 96.4014 81.1641 96.0361C80.9074 95.9245 80.654 95.8062 80.4073 95.6743C79.3194 95.1061 78.3194 94.3655 77.4544 93.4794C77.2855 93.3069 77.1199 93.1277 76.9612 92.9417C75.9915 91.8155 75.2246 90.483 74.7313 88.9815C74.6874 88.8462 74.6434 88.7075 74.6063 88.5689C72.8731 82.5727 76.1807 76.2317 82.1541 74.2634C83.6238 73.7798 85.1205 73.6039 86.5733 73.702C86.8537 73.7223 87.1341 73.7493 87.4112 73.7899C88.6241 73.959 89.7931 74.3209 90.881 74.8518C91.1209 74.9668 91.3574 75.092 91.5871 75.2272C92.4115 75.7007 93.1784 76.2722 93.8677 76.9351C94.5806 77.6182 95.209 78.3995 95.736 79.2619C96.1212 79.8943 96.4489 80.5707 96.7158 81.2876C96.7598 81.4195 96.8071 81.5548 96.8544 81.6934Z" fill="#EECD5A"/>
<g opacity="0.2">
<path opacity="0.2" d="M95.7293 79.2585L86.9111 96.9459C85.857 97.0508 84.8062 97.0068 83.7893 96.8275L93.8609 76.9318C94.5738 77.6149 95.2056 78.3927 95.7293 79.2585Z" fill="#F8F9FA"/>
</g>
<g opacity="0.2">
<path opacity="0.2" d="M87.4044 73.79L77.4476 93.4794C77.2787 93.307 77.1132 93.1277 76.9544 92.9417L86.5665 73.702C86.8503 73.7223 87.1273 73.7494 87.4044 73.79Z" fill="#F8F9FA"/>
</g>
<g opacity="0.2">
<path opacity="0.2" d="M91.5837 75.2238L81.1607 96.0361C80.904 95.9245 80.6506 95.8062 80.4039 95.6743L90.8776 74.8484C91.1141 74.9668 91.3506 75.0919 91.5837 75.2238Z" fill="#F8F9FA"/>
</g>
<path d="M94.6312 82.424C94.6751 82.5593 94.7157 82.6979 94.7562 82.8332C96.0874 87.5949 93.4386 92.6272 88.6984 94.1897C83.9582 95.7521 78.843 93.2799 77.0861 88.6568C77.0355 88.5249 76.9882 88.3897 76.9442 88.2544C75.3394 83.3743 77.9984 78.0951 82.8771 76.4887C87.7558 74.8789 93.0264 77.5439 94.6312 82.424Z" fill="#DA8928"/>
<path d="M94.7562 82.8332C96.0874 87.5949 93.4386 92.6272 88.6984 94.1897C88.5937 94.2235 88.4856 94.2573 88.3808 94.2877C87.3098 94.5989 86.2286 94.7071 85.1711 94.6361C84.1136 94.565 83.0832 94.3114 82.127 93.8988C81.8838 93.794 81.6439 93.679 81.4108 93.5539C80.3465 92.9823 79.387 92.2112 78.6065 91.2609C78.4173 91.0343 78.2416 90.7942 78.0727 90.5507C77.6808 89.969 77.3497 89.3366 77.0895 88.6568C75.7584 83.8951 78.4038 78.8628 83.1474 77.3004C83.7454 77.1042 84.3535 76.9689 84.9583 76.8979C85.2657 76.8607 85.5766 76.8404 85.8807 76.8337C87.1341 76.81 88.3673 77.0433 89.5059 77.4999C89.7525 77.598 89.9924 77.7062 90.2323 77.828C91.1547 78.2913 91.9993 78.9068 92.7291 79.6542C93.4386 80.3813 94.0366 81.2335 94.486 82.1906C94.5839 82.3969 94.6751 82.6134 94.7562 82.8332Z" fill="#E7AB2B"/>
<g opacity="0.2">
<path opacity="0.2" d="M94.4826 82.1873L88.3842 94.2877C87.3132 94.5989 86.232 94.7071 85.1745 94.6361L92.7291 79.6508C93.4386 80.3779 94.0332 81.2302 94.4826 82.1873Z" fill="#F8F9FA"/>
</g>
<g opacity="0.2">
<path opacity="0.2" d="M85.8806 76.8337L78.6031 91.2643C78.4139 91.0377 78.2382 90.7976 78.0693 90.5541L84.9549 76.8979C85.2657 76.8574 85.5732 76.8371 85.8806 76.8337Z" fill="#F8F9FA"/>
</g>
<g opacity="0.2">
<path opacity="0.2" d="M90.2323 77.8246L82.127 93.8988C81.8838 93.7939 81.6439 93.679 81.4108 93.5538L89.5059 77.4965C89.7492 77.598 89.9924 77.7062 90.2323 77.8246Z" fill="#F8F9FA"/>
</g>
<path d="M102.622 56.0315C103.919 59.9714 101.777 64.2191 97.8409 65.5144C97.3037 65.6902 96.7597 65.8052 96.2192 65.856C95.5401 65.9236 94.861 65.8932 94.2055 65.7782C93.621 65.6767 93.05 65.5042 92.5095 65.2709C92.3439 65.1999 92.1817 65.1221 92.0229 65.0375C91.3202 64.6723 90.6783 64.1954 90.1208 63.6239C90.0127 63.5123 89.9046 63.3973 89.8032 63.2789C89.1782 62.5518 88.6849 61.6962 88.3673 60.729C88.3369 60.6411 88.3099 60.5531 88.2862 60.4618C87.1679 56.5997 89.2998 52.5109 93.148 51.2461C94.094 50.935 95.0603 50.82 95.9962 50.8842C96.1786 50.8978 96.3577 50.9147 96.5368 50.9417C97.3172 51.05 98.0706 51.2833 98.7734 51.6249C98.9288 51.6993 99.0808 51.7805 99.2295 51.865C99.7599 52.1694 100.253 52.538 100.699 52.9641C101.159 53.4038 101.564 53.9077 101.902 54.4623C102.149 54.8681 102.361 55.3044 102.534 55.7677C102.561 55.8557 102.591 55.9436 102.622 56.0315Z" fill="#EECD5A"/>
<g opacity="0.2">
<path opacity="0.2" d="M101.899 54.4623L96.2192 65.8593C95.5401 65.927 94.861 65.8965 94.2055 65.7816L100.696 52.9641C101.152 53.4038 101.557 53.9043 101.899 54.4623Z" fill="#F8F9FA"/>
</g>
<g opacity="0.2">
<path opacity="0.2" d="M96.5334 50.9384L90.1174 63.6239C90.0093 63.5123 89.9012 63.3973 89.7998 63.279L95.9928 50.8809C96.1752 50.8944 96.3543 50.9113 96.5334 50.9384Z" fill="#F8F9FA"/>
</g>
<g opacity="0.2">
<path opacity="0.2" d="M99.2261 51.8616L92.5095 65.2709C92.3439 65.1999 92.1817 65.1221 92.0229 65.0375L98.77 51.6181C98.9254 51.6959 99.0741 51.7771 99.2261 51.8616Z" fill="#F8F9FA"/>
</g>
<path d="M101.189 56.5016C101.219 56.5895 101.243 56.6774 101.27 56.7654C102.128 59.8328 100.422 63.076 97.3679 64.0804C94.3136 65.0883 91.0195 63.492 89.8876 60.5159C89.8572 60.4314 89.8235 60.3434 89.7964 60.2555C88.7626 57.1103 90.4755 53.7115 93.6176 52.6766C96.7597 51.6418 100.155 53.3564 101.189 56.5016Z" fill="#DA8928"/>
<path d="M101.27 56.7654C102.128 59.8328 100.422 63.076 97.3679 64.0805C97.3003 64.1041 97.2327 64.1244 97.1618 64.1447C96.4725 64.3443 95.7732 64.4153 95.0941 64.3713C94.4116 64.324 93.7494 64.1616 93.1311 63.8978C92.9757 63.8302 92.8203 63.7558 92.6682 63.6746C91.9824 63.306 91.3641 62.8089 90.8607 62.1967C90.7391 62.0513 90.6242 61.8958 90.5195 61.7368C90.2661 61.3614 90.0532 60.9522 89.8877 60.5159C89.0295 57.4485 90.7357 54.2053 93.7899 53.1975C94.1751 53.069 94.567 52.9844 94.9556 52.9371C95.1549 52.9134 95.3542 52.8999 95.5502 52.8965C96.3577 52.8829 97.1516 53.0317 97.8848 53.326C98.0436 53.3902 98.199 53.4613 98.3511 53.5357C98.9457 53.8333 99.4896 54.2289 99.9593 54.7126C100.415 55.1826 100.801 55.7305 101.091 56.346C101.159 56.4847 101.216 56.6233 101.27 56.7654Z" fill="#E7AB2B"/>
<g opacity="0.2">
<path opacity="0.2" d="M101.094 56.3494L97.1652 64.1447C96.4759 64.3443 95.7766 64.4153 95.0975 64.3713L99.966 54.7159C100.419 55.1826 100.804 55.7339 101.094 56.3494Z" fill="#F8F9FA"/>
</g>
<g opacity="0.2">
<path opacity="0.2" d="M95.5502 52.8998L90.8607 62.1967C90.7391 62.0513 90.6242 61.8957 90.5195 61.7368L94.9556 52.9404C95.1549 52.9167 95.3542 52.9032 95.5502 52.8998Z" fill="#F8F9FA"/>
</g>
<g opacity="0.2">
<path opacity="0.2" d="M98.3544 53.5391L93.1345 63.8945C92.9791 63.8268 92.8237 63.7524 92.6716 63.6713L97.8882 53.326C98.0436 53.3902 98.199 53.4613 98.3544 53.5391Z" fill="#F8F9FA"/>
</g>
</g>
<defs>
<clipPath id="clip0">
<rect width="103" height="97" fill="white"/>
</clipPath>
</defs>
</svg>
