<svg width="49" height="49" viewBox="0 0 49 49" fill="none" xmlns="http://www.w3.org/2000/svg">
<circle cx="24.5" cy="24.5" r="23.5" stroke="url(#paint0_linear)" stroke-width="2"/>
<g clip-path="url(#clip0)">
<path d="M31.6422 28.0471L29.5416 25.9465C28.7913 25.1962 27.516 25.4964 27.2159 26.4716C26.9908 27.1469 26.2406 27.522 25.5654 27.3719C24.0649 26.9968 22.0393 25.0462 21.6642 23.4707C21.4391 22.7955 21.8892 22.0453 22.5644 21.8202C23.5397 21.5201 23.8398 20.2447 23.0896 19.4945L20.989 17.3939C20.3888 16.8687 19.4885 16.8687 18.9633 17.3939L17.5379 18.8193C16.1125 20.3198 17.688 24.296 21.214 27.822C24.7401 31.3481 28.7163 32.9987 30.2168 31.4982L31.6422 30.0727C32.1674 29.4725 32.1674 28.5723 31.6422 28.0471Z" fill="url(#paint1_linear)"/>
</g>
<defs>
<linearGradient id="paint0_linear" x1="49" y1="49" x2="0" y2="49" gradientUnits="userSpaceOnUse">
<stop stop-color="#00DA92"/>
<stop offset="1" stop-color="#009F86"/>
</linearGradient>
<linearGradient id="paint1_linear" x1="32.0361" y1="32.0526" x2="17.0151" y2="32.0526" gradientUnits="userSpaceOnUse">
<stop stop-color="#00DA92"/>
<stop offset="1" stop-color="#009F86"/>
</linearGradient>
<clipPath id="clip0">
<rect width="15.0526" height="15.0526" fill="white" transform="translate(17 17)"/>
</clipPath>
</defs>
</svg>
