<svg width="14" height="14" viewBox="0 0 14 14" fill="none" xmlns="http://www.w3.org/2000/svg">
<path d="M7 0C4.10498 0 1.75 2.35525 1.75 5.25C1.75 9.12313 6.59384 13.7266 6.80006 13.9208C6.85645 13.9735 6.92822 14 7 14C7.07178 14 7.14355 13.9735 7.19996 13.9208C7.40616 13.7266 12.25 9.12313 12.25 5.25C12.25 2.35525 9.89502 0 7 0ZM7 8.16668C5.39183 8.16668 4.08332 6.85817 4.08332 5.25C4.08332 3.64183 5.39186 2.33332 7 2.33332C8.60814 2.33332 9.91668 3.64186 9.91668 5.25C9.91668 6.85814 8.60817 8.16668 7 8.16668Z" fill="url(#svg-pin_2-bg)"/>
<defs>
<linearGradient id="svg-pin_2-bg" x1="12.25" y1="14" x2="1.75" y2="14" gradientUnits="userSpaceOnUse">
<stop stop-color="#03B5FF"/>
<stop offset="1" stop-color="#008CD5"/>
</linearGradient>
</defs>
</svg>
