<svg width="99" height="105" viewBox="0 0 99 105" fill="none" xmlns="http://www.w3.org/2000/svg">
<path d="M43.8015 5.18204C41.7406 5.4485 39.6587 6.53513 39.6587 6.53513C39.6587 6.53513 31.3857 6.51015 25.5807 11.2356C19.7758 15.9651 14.2352 25.7657 14.2352 25.7657C14.2352 25.7657 18.8565 33.089 24.3509 35.358C24.3509 35.358 17.3455 48.7515 13.5385 60.3548C10.5499 69.4559 6.62118 79.0566 7.94336 80.2889C10.2309 82.4123 30.5588 86.6464 39.1215 89.4941C47.6841 92.346 66.6646 98.9158 69.7329 97.8874C72.8012 96.8591 78.0563 66.3584 78.2788 50.4752C78.2788 50.4752 86.9715 51.2704 91.8447 49.6467C91.8447 49.6467 92.5079 43.1144 91.1269 35.2623C90.0566 29.163 85.8298 19.3624 79.9073 17.4514C79.9073 17.4514 79.6639 14.4788 77.7373 14.3955C75.8149 14.3123 67.2858 14.05 60.9772 12.3472C54.6685 10.6485 46.8404 4.79069 43.8015 5.18204Z" fill="#00A1EF"/>
<path d="M45.0356 5.27783C48.255 8.5419 47.5876 10.2738 51.3652 13.2423C55.1387 16.2066 62.5932 19.0252 67.7476 18.2342C72.5578 17.4931 75.3532 14.6495 77.985 14.4372L45.0356 5.27783Z" fill="#0B6884"/>
<path d="M24.245 35.1095C24.245 35.1095 29.0824 25.5019 32.6421 20.4365Z" fill="#857382"/>
<path d="M23.6289 34.7611C25.022 32.286 26.4536 29.8516 27.9377 27.4506C28.6833 26.252 29.4323 25.0571 30.2164 23.8844C30.997 22.7118 31.7985 21.554 32.6491 20.4407C31.893 21.6282 31.193 22.8528 30.5139 24.0848C29.8314 25.3168 29.1838 26.5711 28.5433 27.8291C27.2692 30.3451 26.0406 32.8983 24.868 35.4625L23.6289 34.7611Z" fill="#164E91"/>
<path d="M78.9503 50.4501C78.9503 50.4501 79.2861 40.1509 78.6145 34.213Z" fill="#857382"/>
<path d="M78.1948 50.401C78.4292 47.7188 78.6009 45.0155 78.7014 42.3158C78.7474 40.9659 78.7851 39.616 78.7767 38.2661C78.7684 36.9163 78.7349 35.5629 78.6218 34.213C78.873 35.5489 79.0489 36.8987 79.1954 38.2486C79.3462 39.5985 79.4466 40.9519 79.5429 42.3088C79.723 45.019 79.8318 47.7258 79.8737 50.4501L78.1948 50.401Z" fill="#164E91"/>
<path d="M79.8738 17.7679C77.5653 22.3101 68.8809 25.3535 57.166 21.8938C45.4511 18.434 40.8382 11.1065 40.8382 6.11047" stroke="#164E91" stroke-miterlimit="10"/>
<path d="M8.93811 76.0548C13.9401 78.2067 30.7833 81.9883 38.2941 84.4543C45.805 86.9243 65.2824 93.6314 70.6395 94.5817" stroke="#164E91" stroke-miterlimit="10"/>
<path d="M46.874 35.9784C45.8163 39.5006 42.131 41.5199 38.6388 40.4915C35.1466 39.459 33.1738 35.7703 34.2315 32.2481C35.2893 28.7259 38.9746 26.7066 42.4668 27.735C45.959 28.7633 47.9318 32.4562 46.874 35.9784Z" fill="white"/>
<path d="M43.2937 34.9209C42.8362 36.4488 41.237 37.3232 39.7259 36.8777C38.2107 36.4322 37.3586 34.8293 37.8161 33.3055C38.2736 31.7776 39.8728 30.9033 41.3839 31.3487C42.8949 31.7942 43.7512 33.3929 43.2937 34.9209Z" fill="#164E91"/>
<path d="M58.4461 39.3924C57.3884 42.9146 59.3612 46.6075 62.8534 47.6358C66.3456 48.6683 70.0309 46.6449 71.0886 43.1227C72.1464 39.6005 70.1736 35.9076 66.6814 34.8793C63.1892 33.8509 59.4997 35.8702 58.4461 39.3924Z" fill="white"/>
<path d="M62.0265 40.4499C61.5689 41.9778 62.4252 43.5765 63.9363 44.022C65.4473 44.4675 67.0465 43.5932 67.504 42.0652C67.9615 40.5373 67.1053 38.9386 65.5942 38.4931C64.0832 38.0476 62.484 38.9261 62.0265 40.4499Z" fill="#164E91"/>
<path d="M67.6972 55.1965C65.2501 63.3566 55.1596 67.5741 45.1573 64.6223C35.1591 61.6705 29.0352 52.661 31.4864 44.505C33.9335 36.3448 44.0282 32.1273 54.0263 35.0792C64.0245 38.031 70.1442 47.0405 67.6972 55.1965Z" fill="white"/>
<path d="M48.746 49.7175C48.725 49.7841 48.6999 49.8507 48.6789 49.9174C48.7754 49.9423 48.8678 49.9631 48.9643 49.9923C49.3924 50.1172 49.8122 50.2671 50.2319 50.4253C50.2571 50.342 50.2739 50.2588 50.2991 50.1796C51.9402 44.7173 56.125 40.5914 61.1996 38.6805C59.1555 37.1317 56.7336 35.8827 54.0263 35.0833C51.3232 34.284 48.6117 34.0133 46.0471 34.2007C49.1868 38.568 50.383 44.2718 48.746 49.7175Z" fill="#CEC7CD"/>
<path d="M57.636 52.7983C56.8595 52.5693 56.1795 52.6734 55.6381 52.9774C55.6171 52.7484 55.6381 52.5152 55.7052 52.2821C55.9991 51.3037 57.0358 50.7458 58.0222 51.0372C59.0086 51.3287 59.5668 52.357 59.2772 53.3354C59.2268 53.5019 59.1555 53.6518 59.0673 53.7934C58.7609 53.3479 58.295 52.9898 57.636 52.7983Z" fill="#3E403F"/>
<path d="M40.9556 47.8731C41.7322 48.1021 42.24 48.56 42.5297 49.1054C42.6724 48.9264 42.7857 48.7183 42.8571 48.4851C43.1509 47.5067 42.5884 46.4784 41.602 46.1869C40.6157 45.8955 39.5789 46.4534 39.2851 47.4318C39.2347 47.5983 39.2137 47.7648 39.2095 47.9272C39.709 47.7232 40.2967 47.6774 40.9556 47.8731Z" fill="#3E403F"/>
<path d="M50.2612 57.1282C49.8079 58.6353 46.6851 59.0475 46.6851 59.0475C46.6851 59.0475 44.2968 57.0116 44.7501 55.5003C45.2034 53.989 46.5298 54.0515 48.0492 54.5011C49.5729 54.9508 50.7145 55.6211 50.2612 57.1282Z" fill="#3E403F"/>
<path d="M59.3066 57.7527C58.8617 59.2432 57.2793 60.0883 55.7766 59.647C54.2739 59.2016 53.4177 57.6361 53.8668 56.1457C54.3159 54.6552 55.8941 53.8058 57.3968 54.2513C58.8995 54.6968 59.7515 56.2622 59.3066 57.7527Z" fill="#EFBFAC"/>
<path d="M42.5422 52.8025C42.0973 54.293 40.5149 55.1423 39.0123 54.6968C37.5096 54.2514 36.6533 52.6859 37.1025 51.1955C37.5516 49.705 39.1298 48.8557 40.6324 49.3011C42.1351 49.7466 42.9872 51.312 42.5422 52.8025Z" fill="#EFBFAC"/>
<path d="M1 81.9536C1 70.3057 11.8244 46.9405 17.2367 36.7139L6.76139 23.714C10.2531 17.1273 21.4268 3.4341 38.1872 1.35411C59.1377 -1.24587 78.9429 9.66601 82.5 12.5C97.7692 24.6659 99.1183 43.1272 96.8486 53.3538L81.6595 55.4338C80.2628 66.8737 77.2599 91.5215 76.4219 98.5935C75.3744 107.433 66.5 103.5 61.2327 102.753C58.3097 102.339 30.3307 93.2202 16.1891 89.7535C11.1261 88.8869 1 86.1135 1 81.9536Z" stroke="#03B5FF" stroke-dasharray="8 4"/>
</svg>
