<svg width="12" height="13" viewBox="0 0 12 13" fill="none" xmlns="http://www.w3.org/2000/svg">
<path d="M11.3151 9.22098L9.69189 7.59775C9.11217 7.01803 8.12664 7.24994 7.89476 8.00356C7.72084 8.52533 7.14112 8.81519 6.61937 8.69923C5.45992 8.40937 3.89467 6.90209 3.60481 5.68467C3.4309 5.1629 3.77873 4.58318 4.30048 4.40928C5.05412 4.1774 5.28601 3.19187 4.70628 2.61215L3.08306 0.988924C2.61929 0.583119 1.92362 0.583119 1.51781 0.988924L0.416341 2.0904C-0.68513 3.24984 0.532286 6.32237 3.25698 9.04706C5.98167 11.7718 9.0542 13.0472 10.2136 11.8877L11.3151 10.7862C11.7209 10.3224 11.7209 9.62678 11.3151 9.22098Z" fill="url(#paint0_linear)"/>
<defs>
<linearGradient id="paint0_linear" x1="11.6195" y1="12.3162" x2="0.0123291" y2="12.3162" gradientUnits="userSpaceOnUse">
<stop stop-color="#00DA92"/>
<stop offset="1" stop-color="#009F86"/>
</linearGradient>
</defs>
</svg>
