<svg width="175" height="90" viewBox="0 0 175 90" fill="none" xmlns="http://www.w3.org/2000/svg">
<g clip-path="url(#clip0)">
<path d="M108.631 49.8968C108.645 49.1262 109.244 47.8114 108.061 46.5623C107.222 45.6656 106.482 44.6575 106.129 44.165C106.001 43.9651 104.568 45.1398 104.599 45.1877C104.835 45.5358 105.915 47.31 106.073 48.2996C106.244 49.4146 108.159 50.635 108.159 50.635C108.159 50.635 108.627 50.663 108.631 49.8968Z" fill="#F4A671"/>
<path d="M106.871 45.1575L104.599 45.187C104.599 45.187 101.046 39.5871 100.937 37.8107C100.833 36.1139 97.4178 28.6897 101.415 24.0543C101.595 23.8442 101.791 23.6399 102.004 23.4423C102.01 23.4342 102.018 23.4275 102.026 23.4209C102.026 23.4209 102.033 23.432 102.046 23.4533C102.128 23.5883 102.445 24.1613 102.817 25.4259C103.4 27.4036 104.121 31.0752 104.291 37.4162C104.291 37.4162 105.871 42.8443 106.871 45.1575Z" fill="#F4A671"/>
<path d="M99.782 15.4281C99.782 15.4281 99.5366 16.0896 99.8988 16.3491C100.261 16.6087 98.9791 17.7981 98.7322 18.7973C98.4846 19.7965 98.7943 20.3274 98.7943 20.3274C98.7943 20.3274 98.7574 19.7228 98.9799 19.4271C98.9799 19.4271 98.7411 20.1136 99.1366 20.6239C99.5321 21.1334 99.3 21.393 99.3 21.393C99.3 21.393 100.555 21.4137 100.86 20.5664C100.86 20.5664 100.786 20.969 100.695 21.1172C100.695 21.1172 101.92 20.6895 102.239 19.8503C102.559 19.0112 101.961 18.0289 101.59 17.8969C101.218 17.765 100.612 16.7621 100.724 16.4907C100.834 16.2186 99.782 15.4281 99.782 15.4281Z" fill="#E5456F"/>
<path d="M100.07 86.67L98.5991 87.2164C98.5991 87.2164 92.2131 78.3815 91.4265 70.6084C91.2861 69.2206 91.3326 67.8763 91.6365 66.6345C91.6365 66.6345 91.5744 66.2791 91.465 65.6501C91.4147 65.3566 91.3519 65.0034 91.2816 64.5985C91.0739 63.412 90.7885 61.7883 90.4618 59.9396C89.7106 55.6855 88.737 50.2471 87.9807 46.2488L88.377 46.122L92.6634 44.7423L93.549 41.9357L96.7405 41.0973C96.7405 41.0973 97.4532 42.4888 98.0912 49.0606C98.2088 49.9226 98.316 50.8731 98.3958 51.904C98.6442 55.0506 98.6627 58.9537 98.092 63.4165C97.9456 64.5587 97.7608 65.7378 97.5316 66.9501C97.3638 67.8387 97.3386 69.0488 97.4089 70.4388C97.7312 76.7946 100.07 86.67 100.07 86.67Z" fill="#FFB27D"/>
<path d="M98.3965 51.9055L91.465 65.65C91.4147 65.3565 91.3519 65.0033 91.2816 64.5985C91.0739 63.412 90.7885 61.7882 90.4618 59.9395C89.7106 55.6854 88.737 50.247 87.9807 46.2488L88.377 46.122L92.6634 44.7423L93.549 41.9357L97.3615 40.8045C97.3615 40.8045 97.4539 42.4887 98.0912 49.0605C98.2087 49.924 98.3159 50.8746 98.3965 51.9055Z" fill="#0F705E"/>
<path d="M102.976 11.2839L96.0545 16.8734C96.0545 16.8734 95.8527 15.6604 95.14 15.8469C94.0288 16.1367 92.324 13.1657 93.6355 10.4779C93.722 10.3024 94.7873 7.64179 98.1962 7.30701C102.579 7.64253 102.976 11.2839 102.976 11.2839Z" fill="#E5456F"/>
<path d="M100.483 26.215C99.6386 26.6051 98.6198 26.8713 97.3867 26.9384C92.7654 27.1913 91.7164 23.1503 91.5249 20.4676C92.191 20.2272 92.7743 20.2493 93.1107 20.2678C93.4382 20.2855 93.7805 20.3194 94.0629 20.354C94.6284 20.0598 95.6435 18.6285 96.2305 16.2349L96.4301 16.327L99.765 17.8903C99.765 17.8903 99.4109 18.9729 99.1492 20.0082C98.9451 20.8186 98.7987 21.6017 98.9207 21.8207C99.1839 21.9277 99.3406 21.994 99.3406 21.994C99.3406 21.994 99.3406 21.9955 99.3421 21.9977C99.3761 22.0847 100.101 23.9275 100.483 26.215Z" fill="#FFB27D"/>
<path d="M101.639 29.2398C101.604 29.3312 101.566 29.4212 101.525 29.5141C100.354 32.0286 97.1731 40.3363 97.1731 40.3363C97.4821 42.2093 84.0781 42.0759 84.0404 40.371C83.633 38.9175 85.0443 36.7562 86.29 35.2061C86.5946 34.8279 86.8889 34.4879 87.1439 34.2018C87.3073 34.0182 87.4537 33.822 87.5816 33.6148C87.9032 33.0957 88.1072 32.5087 88.1723 31.8959C88.3445 30.2692 88.3563 28.7125 88.3526 27.4471C88.3504 26.8321 88.346 26.2872 88.3526 25.8366C88.607 25.6478 88.8531 25.4745 89.0831 25.3094C89.4335 25.055 89.7432 24.816 89.9702 24.5742C90.2216 24.3109 90.379 24.041 90.3968 23.7372C90.4093 23.5071 90.4027 23.2712 90.379 23.0352C90.3679 22.9238 90.3532 22.8132 90.3362 22.7019C90.1558 21.5316 89.6664 20.4705 89.6664 20.4705C90.9069 19.9698 93.1114 20.2684 93.1114 20.2684C93.1114 20.2684 93.1092 20.3908 93.1085 20.5914C93.1004 21.3945 93.1085 23.4577 93.3665 23.8486C93.6888 24.3338 99.5957 26.4649 99.9085 25.8049C100.215 25.1567 99.3739 22.1156 99.3422 22.0013C99.3414 21.9984 99.3414 21.9977 99.3414 21.9977C99.405 22.022 99.4664 22.0471 99.5262 22.0707C99.8271 22.1931 100.087 22.3332 100.337 22.4239C101.944 23.0094 102.095 23.5418 102.095 23.5418C100.904 24.3109 102.561 26.8011 101.639 29.2398Z" fill="#00DA92"/>
<path d="M99.765 17.8918C99.765 17.8918 99.4101 18.9729 99.1492 20.0096C97.1997 19.4669 96.6082 17.4236 96.4301 16.3278L99.765 17.8918Z" fill="#ED985F"/>
<path d="M100.175 19.037C100.175 19.037 95.5119 17.9604 96.229 15.0742C96.9461 12.1879 96.8264 10.1048 99.8345 10.6704C102.843 11.2359 103.145 12.4792 103.141 13.5013C103.136 14.5218 101.407 19.2427 100.175 19.037Z" fill="#FFB27D"/>
<path d="M103.402 11.862C102.901 10.8156 102.311 10.8716 101.941 11.0567C99.7502 9.03473 97.6011 10.6865 97.6011 10.6865C96.7746 12.6805 94.9818 13.4946 94.9818 13.4946C94.9818 13.4946 95.6982 14.2261 97.7748 14.2099C98.4092 14.2047 99.0472 13.9149 99.6268 13.5145C98.5075 14.639 97.1952 15.3234 97.1952 15.3234C99.7946 14.8271 101.537 11.8258 101.716 11.5073C101.936 11.8317 102.358 12.5219 102.392 13.1052C102.44 13.8972 102.168 15.4362 102.622 15.4944C102.622 15.4937 104.154 13.4304 103.402 11.862Z" fill="#E5456F"/>
<path d="M104.671 89.363H97.2654C97.2654 89.363 96.9882 88.1846 97.4746 87.383C97.9049 86.6736 97.8694 86.2423 97.5508 85.6553C97.8864 85.7924 98.1903 85.9443 98.6686 85.9171C99.0375 85.8957 99.4471 85.6361 99.7893 85.4377C100.108 85.8005 101.453 87.4361 101.88 87.7414C102.364 88.088 104.522 87.9648 104.671 89.363Z" fill="#233862"/>
<path d="M91.454 35.8463C89.5207 35.7098 87.6799 35.5395 86.29 35.2069C86.5946 34.8286 86.8889 34.4887 87.1439 34.2026C87.3073 34.019 87.4537 33.8228 87.5816 33.6156C87.9032 33.0964 88.1072 32.5095 88.1723 31.8967C88.3445 30.27 88.3563 28.7133 88.3527 27.4479C90.039 25.5645 91.4547 24.0344 91.4547 24.0344C91.4547 24.0344 94.5974 26.9074 95.0839 29.7693C95.5696 32.6297 96.4892 36.2009 91.454 35.8463Z" fill="#25B782"/>
<path d="M92.2324 20.1932C92.2324 20.1932 94.5146 22.8899 94.0252 26.9376H94.9707C94.9707 26.9376 95.506 24.1074 93.1107 20.2677C93.1107 20.2677 92.798 20.2235 92.6967 20.2146C92.5791 20.205 92.2324 20.1932 92.2324 20.1932Z" fill="#0F846E"/>
<path d="M100.46 29.0827L99.5418 28.8571C100.776 25.6044 99.8294 22.8169 99.5262 22.0692C99.8271 22.1916 100.097 22.3103 100.337 22.4224C101.611 26.5682 100.46 29.0827 100.46 29.0827Z" fill="#0F846E"/>
<path d="M100.859 27.4479C100.859 27.4479 96.3058 26.2651 95.0217 25.9362C93.7368 25.6073 93.6355 26.3639 93.6355 26.3639C93.6355 26.3639 93.4566 28.8298 93.4366 29.0834C93.1402 32.9541 87.58 33.6156 87.58 33.6156C87.58 33.6156 86.1436 35.4008 84.9119 37.1559C82.7998 40.1652 83.06 45.2489 83.06 45.2489C83.0149 45.8639 83.0082 46.5328 83.0533 47.2576C83.2204 49.9293 83.525 61.281 83.8436 64.6399C83.959 65.8573 84.0595 66.7238 84.1009 67.0696C84.1017 67.0711 84.1017 67.0718 84.1017 67.0733C84.1142 67.1788 84.0773 67.2783 84.0233 67.3705C83.5546 68.1639 83.1665 68.9898 82.8478 69.8356C79.7229 78.1418 83.3291 88.3712 83.3291 88.3712L84.265 87.9951C84.265 87.9951 86.3173 76.611 87.9844 71.5818C88.2675 70.7286 88.5389 70.0583 88.7873 69.6579C89.5125 68.4906 90.1853 66.5837 90.7959 64.3154C91.9499 60.0274 92.8792 54.4481 93.4973 50.1424C93.5823 50.1461 94.2602 44.3596 96.4877 41.6976L97.36 40.8068L100.126 34.0285C100.126 34.0285 100.889 29.5229 101.12 28.7663C101.352 28.0083 100.859 27.4479 100.859 27.4479Z" fill="#0F846E"/>
<path d="M94.0953 26.5939C94.0953 26.3756 94.2728 26.1994 94.4909 26.1994C94.7097 26.1994 94.8864 26.3764 94.8864 26.5939C94.8864 26.8122 94.7089 26.9884 94.4909 26.9884C94.2728 26.9884 94.0953 26.8115 94.0953 26.5939Z" fill="#ED7D2B"/>
<path d="M94.167 26.5939C94.167 26.3756 94.3444 26.1994 94.5625 26.1994C94.7813 26.1994 94.958 26.3764 94.958 26.5939C94.958 26.8122 94.7806 26.9884 94.5625 26.9884C94.3437 26.9884 94.167 26.8115 94.167 26.5939Z" fill="#F99746"/>
<path d="M94.3289 26.5195C94.3385 26.4892 94.3711 26.4723 94.4014 26.4826C94.4317 26.4922 94.448 26.5246 94.4383 26.5548C94.4287 26.5851 94.3962 26.602 94.3659 26.5917C94.3356 26.5821 94.3193 26.5497 94.3289 26.5195Z" fill="#2B478B"/>
<path d="M94.6867 26.633C94.6963 26.6028 94.7289 26.5858 94.7592 26.5962C94.7895 26.6058 94.8065 26.6382 94.7961 26.6684C94.7865 26.6987 94.754 26.7156 94.7237 26.7053C94.6934 26.6957 94.6771 26.6633 94.6867 26.633Z" fill="#2B478B"/>
<path d="M99.8004 27.8741C99.8004 27.6559 99.9778 27.4796 100.196 27.4796C100.415 27.4796 100.591 27.6566 100.591 27.8741C100.591 28.0924 100.414 28.2686 100.196 28.2686C99.9771 28.2694 99.8004 28.0924 99.8004 27.8741Z" fill="#ED7D2B"/>
<path d="M99.8713 27.8741C99.8713 27.6559 100.049 27.4796 100.267 27.4796C100.486 27.4796 100.662 27.6566 100.662 27.8741C100.662 28.0924 100.485 28.2686 100.267 28.2686C100.048 28.2694 99.8713 28.0924 99.8713 27.8741Z" fill="#F99746"/>
<path d="M100.033 27.8004C100.043 27.7701 100.075 27.7539 100.106 27.7635C100.136 27.7731 100.152 27.8055 100.143 27.8358C100.133 27.866 100.101 27.8822 100.07 27.8726C100.041 27.8623 100.024 27.8306 100.033 27.8004Z" fill="#2B478B"/>
<path d="M100.391 27.9139C100.401 27.8837 100.433 27.8675 100.464 27.8771C100.494 27.8867 100.51 27.9191 100.501 27.9493C100.491 27.9796 100.458 27.9958 100.428 27.9862C100.399 27.9766 100.382 27.9442 100.391 27.9139Z" fill="#2B478B"/>
<path d="M93.5468 14.0461C93.5468 14.0461 93.3013 14.7076 93.6636 14.9672C94.0258 15.2267 92.7447 16.4162 92.497 17.4154C92.2493 18.4146 92.5591 18.9448 92.5591 18.9448C92.5591 18.9448 92.5221 18.3401 92.7447 18.0444C92.7447 18.0444 92.5051 18.7309 92.9014 19.2412C93.2969 19.7507 93.0648 20.0103 93.0648 20.0103C93.0648 20.0103 94.3193 20.031 94.6247 19.1837C94.6247 19.1837 94.5507 19.587 94.4598 19.7345C94.4598 19.7345 95.6848 19.3068 96.0042 18.4677C96.3235 17.6285 95.7262 16.6462 95.3543 16.5143C94.9825 16.3823 94.377 15.3794 94.4886 15.108C94.5995 14.8374 93.5468 14.0461 93.5468 14.0461Z" fill="#E5456F"/>
<path d="M102.818 25.4259C101.76 25.5807 101.332 26.2068 101.332 26.2068C101.332 26.2068 101.241 24.8795 101.416 24.0543C101.476 23.766 101.57 23.5389 101.711 23.4526C101.775 23.4128 101.877 23.4128 102.004 23.443C102.018 23.4459 102.032 23.4496 102.047 23.454C102.128 23.5883 102.446 24.1605 102.818 25.4259Z" fill="#00DA92"/>
<path d="M117.625 50.0495C115.741 50.1475 114.454 47.2318 113.661 47.1935C113.531 47.1876 113.283 47.2237 112.966 47.2702C113.747 48.5488 114.344 50.0517 114.675 51.7035C115.805 57.3277 113.425 62.5456 109.36 63.3567C105.407 64.1458 101.316 60.4749 100.058 55.0978C100.022 54.9473 99.9897 54.7954 99.9587 54.642C99.6297 53.002 99.5994 51.3967 99.8219 49.9248C99.8219 49.9204 99.8227 49.916 99.8234 49.9116C99.6534 49.9565 99.521 49.9956 99.4434 50.0325C98.7256 50.3732 98.6627 53.5573 96.8862 54.19C95.1097 54.822 93.9128 51.4269 96.0279 48.7819C97.318 47.1684 99.6031 46.3904 101.19 46.0284C101.52 45.4915 101.899 45.01 102.322 44.5934C102.338 44.5779 102.353 44.5617 102.37 44.5462C101.204 43.9172 100.316 42.7948 100.036 41.3967C99.9402 40.924 99.9225 40.4528 99.972 39.9964C99.9683 39.9956 99.9646 39.9941 99.9602 39.9934C99.1573 39.7515 98.5126 39.0886 98.3359 38.2118C98.0824 36.9457 98.9052 35.7135 100.175 35.4598C101.094 35.2762 101.995 35.656 102.52 36.3602C102.872 36.1869 103.253 36.0556 103.658 35.9745C104.017 35.9037 104.374 35.875 104.723 35.8868C104.945 35.0513 105.625 34.3714 106.531 34.19C107.801 33.9371 109.036 34.7578 109.291 36.0247C109.457 36.8557 109.16 37.672 108.577 38.2067C108.817 38.6255 108.994 39.0893 109.094 39.5878C109.359 40.9078 109.03 42.2086 108.291 43.2144C108.954 43.4423 109.598 43.7837 110.208 44.2225C111.8 43.9186 114.403 43.6716 116.33 44.7291C119.303 46.3572 119.508 49.9506 117.625 50.0495Z" fill="#CCCCCC"/>
<path d="M100.056 55.0978C100.021 54.9473 99.9883 54.7954 99.9572 54.6421C99.6282 53.0021 99.5979 51.3967 99.8204 49.9248C100.054 49.6535 100.365 49.4522 100.716 49.6188C101.494 49.9868 101.371 53.7033 102.559 54.5609C103.439 55.1951 101.238 55.2032 100.056 55.0978Z" fill="#E8E8E8"/>
<path d="M104.573 44.0027C104.126 44.1679 103.174 44.4629 102.321 44.5934C102.336 44.5779 102.352 44.5617 102.368 44.5462C101.202 43.9172 100.315 42.7949 100.034 41.3967C99.9387 40.9241 99.9209 40.4529 99.9705 39.9964C99.9668 39.9957 99.9631 39.9942 99.9586 39.9935C100.005 39.975 100.065 40.003 100.143 40.1129C100.439 40.5318 102.04 43.9216 104.572 43.5338C104.573 43.533 105.234 43.7572 104.573 44.0027Z" fill="#E8E8E8"/>
<path d="M105.773 36.181C105.773 36.181 106.367 35.0786 107.247 35.364C108.128 35.6501 108.251 36.9162 107.678 37.2628C107.677 37.2635 106.824 36.476 105.773 36.181Z" fill="#E8E8E8"/>
<path d="M101.638 36.8262C101.638 36.8262 100.368 36.2429 99.7952 36.9169C99.2222 37.5909 100.368 38.4508 100.368 38.4508C100.368 38.4508 100.921 37.307 101.638 36.8262Z" fill="#E8E8E8"/>
<path d="M102.156 43.0176L101.747 44.5278C101.747 44.5278 100.311 44.0057 99.5698 43.7262C99.3481 43.6407 99.2224 43.5846 99.2224 43.5846C98.6309 43.3538 97.9271 43.0581 97.159 42.7396L97.1479 42.7373C95.8386 42.1629 94.3771 41.4941 93.1639 40.8238C92.3122 40.3437 91.5855 39.8629 91.1102 39.4278C91.0614 39.3851 91.0237 39.3445 90.9764 39.2907C89.8637 38.1315 88.8361 35.1273 88.1833 31.9866C88.0924 31.553 88.0118 31.1209 87.9297 30.7006C87.6473 29.138 87.4707 27.6175 87.4329 26.3256C87.4034 25.5535 87.4167 24.8566 87.495 24.2955C87.5194 24.0971 87.5424 23.9098 87.5852 23.7365C88.1811 20.573 89.8364 20.4204 89.8364 20.4204C89.8711 20.4152 89.9059 20.4101 89.9517 20.4071C90.2334 20.413 90.4847 20.6497 90.7146 21.0634C91.0059 21.5781 91.2676 22.3811 91.5123 23.3383C91.8812 24.8596 92.208 26.8019 92.4926 28.7258C92.6523 29.7811 92.8009 30.8341 92.9628 31.8104C93.0478 32.4011 93.1395 32.9586 93.2275 33.4711C93.4005 34.4496 93.5727 35.2475 93.7613 35.7666C93.881 36.1036 94.3076 36.6205 94.8887 37.2215C95.8971 38.2716 97.4104 39.593 98.7381 40.6896C99.2882 41.1497 99.8108 41.5708 100.246 41.9196C100.948 42.4859 102.156 43.0176 102.156 43.0176Z" fill="#FFB27D"/>
<path d="M91.7008 23.3582C89.5931 22.3701 87.5823 23.7314 87.5823 23.7314C88.1922 20.5207 89.9302 20.3791 89.9302 20.3791C90.6459 20.2331 91.2166 21.4874 91.7008 23.3582Z" fill="#00DA92"/>
<path d="M101.184 42.6805C101.184 42.6805 102.057 43.0271 102.554 43.1149C103.05 43.2026 103.816 42.9571 104.445 43.3663C105.074 43.7756 105.522 44.0477 105.522 44.0477C105.522 44.0477 105.675 44.28 105.341 44.3736C105.15 44.4275 104.185 43.8184 104.145 43.9806C104.103 44.1428 104.758 44.5064 105.138 44.527C105.519 44.5477 106.212 44.8802 106.212 45.1258C106.212 45.3714 105.089 45.9524 104.432 45.9111C103.776 45.8706 102.427 44.7165 102.086 44.6347C101.745 44.5528 100.309 43.9813 100.309 43.9813L101.184 42.6805Z" fill="#FFB27D"/>
<path d="M88.771 89.3637H81.3656C81.3656 89.3637 81.1882 88.2377 81.5748 87.3838C81.9452 86.5645 82.595 86.1582 82.456 85.1671C82.9262 85.6501 83.5738 86.1162 84.6443 85.9724C84.7752 86.1847 85.5418 87.4287 85.9802 87.7429C86.4637 88.0887 88.6217 87.9656 88.771 89.3637Z" fill="#233862"/>
<path d="M165.356 82.5928C165.356 82.5928 166.79 83.9187 166.511 84.8611C166.231 85.8035 164.936 86.4318 164.762 87.5829C164.586 88.7347 163.887 89.363 163.257 89.363C162.627 89.363 160.255 89.363 160.255 89.363C160.255 89.363 159.791 88.5526 160.911 88.3085C162.03 88.0644 162.452 86.7105 162.383 85.4547C162.312 84.1981 162.488 82.5235 162.488 82.5235L164.867 81.9653L165.356 82.5928Z" fill="#2B2028"/>
<path d="M147.478 89.2347C147.368 89.29 147.048 89.3313 146.594 89.3637H139.332C139.366 89.1314 139.556 88.4648 140.62 88.2922C141.874 88.0895 144.047 87.3624 144.533 85.7629C144.548 85.7106 144.561 85.6582 144.574 85.6051C144.959 83.8951 147.758 86.1287 147.758 86.1287C147.758 86.1287 147.766 86.1973 147.779 86.313C147.843 86.9398 148.009 88.9692 147.478 89.2347Z" fill="#2B2028"/>
<path d="M140.953 43.4961C140.953 43.4961 141.378 48.7863 141.878 55.1457C142.557 63.7844 143.373 74.395 143.455 76.4052C143.594 79.8954 144.155 85.479 144.155 85.479C144.155 85.479 145.483 86.8056 148.143 86.2467C148.143 86.2467 150.513 78.276 151.191 69.843C151.201 69.7051 151.211 69.5657 151.222 69.4264C151.852 60.8414 152.831 42.7639 152.831 42.7639L140.953 43.4961Z" fill="#3D383C"/>
<path d="M140.953 43.4961C140.953 43.4961 141.378 48.7863 141.878 55.1457L151.19 69.843C151.2 69.7051 151.21 69.5657 151.222 69.4264C151.851 60.8414 152.83 42.7639 152.83 42.7639L140.953 43.4961Z" fill="#2B2028"/>
<path d="M142.894 44.1244C142.894 44.1244 150.556 63.2838 155.595 72.2875C160.633 81.2913 162.207 83.8036 162.207 83.8036C162.207 83.8036 165.094 82.6518 165.356 81.8665C165.356 81.8665 163.429 64.4843 160.055 60.2471C158.149 57.8527 155.909 50.6674 155.804 48.1551C155.699 45.6427 155.122 40.6696 155.122 40.6696L142.894 44.1244Z" fill="#3D383C"/>
<path d="M127.857 41.4727C127.857 41.4727 125.154 42.7668 124.789 43.0994C124.425 43.4312 123.527 45.0624 123.596 45.1855C123.665 45.3087 123.799 45.3463 124.045 45.1774C124.289 45.0085 124.978 44.3021 125.003 44.4334C125.028 44.5646 123.167 46.7488 123.496 47.2112C123.825 47.6735 125.691 47.5371 126.756 46.7813C127.821 46.0254 128.884 43.2476 129.044 43.0964C130.404 41.8089 127.857 41.4727 127.857 41.4727Z" fill="#FFB27D"/>
<path d="M127.736 42.8598C126.986 42.2086 126.966 42.0434 126.966 42.0434C126.966 42.0434 131.76 33.7734 132.176 32.9785C132.592 32.1828 135.161 19.7633 135.161 19.7633L144.045 17.1942C144.045 17.1942 137.787 33.3332 136.695 35.3279C134.889 38.6241 128.993 43.4748 128.993 43.4748C128.993 43.4748 128.325 43.3715 127.736 42.8598Z" fill="#0094EF"/>
<path d="M139.519 13.9621C139.519 13.9621 136.393 19.4484 133.338 20.1651C133.338 20.1651 133.465 18.3224 134.209 17.0614C133.905 16.703 133.637 16.3734 133.406 16.0792C132.636 15.0962 132.271 14.4937 132.271 14.4937L133.308 11.713L134.012 9.82593C134.35 10.438 134.723 10.9601 135.111 11.4062C137.112 13.7025 139.519 13.9621 139.519 13.9621Z" fill="#FFB27D"/>
<path d="M135.11 11.4063C135.11 11.4063 135.483 14.1561 133.404 16.0785C132.634 15.0956 132.269 14.4931 132.269 14.4931L133.307 11.7123C134.418 11.3746 135.11 11.4063 135.11 11.4063Z" fill="#ED975D"/>
<path d="M131.446 14.8986C131.446 14.8986 136.117 13.0824 134.938 10.1984C133.76 7.31438 133.568 5.13755 130.536 6.17509C127.504 7.21262 127.378 8.54733 127.537 9.60552C127.695 10.6637 130.2 15.2968 131.446 14.8986Z" fill="#FFB27D"/>
<path d="M155.575 42.1171C153.692 44.819 139.602 48.4293 139.771 46.56C139.834 45.8432 139.92 44.5823 139.769 42.8715C139.734 42.4703 139.684 42.0448 139.619 41.5972C139.26 39.138 138.411 35.9789 136.514 32.3206C136.372 32.0463 136.224 31.7705 136.071 31.4903C135.288 30.0745 134.625 28.5775 134.117 27.113C133.141 24.2991 132.746 21.6068 133.24 19.8473C133.242 19.8378 133.244 19.8304 133.247 19.823C136.192 18.4647 137.333 13.1974 137.333 13.1974C137.333 13.1974 147.38 14.9959 153.008 28.3534C153.008 28.3534 153.549 29.8201 154.166 31.8111C154.917 34.2254 155.781 37.4088 155.93 39.6792C156.003 40.7573 155.914 41.6304 155.575 42.1171Z" fill="#00A2F1"/>
<path d="M135.609 4.84111C135.641 4.77695 135.736 4.70764 135.969 4.63684C135.969 4.63684 135.751 4.56384 135.498 4.61915C135.368 4.29985 135.049 3.75638 134.451 3.75195C134.451 3.75195 134.794 3.84118 134.92 4.18334C134.101 3.66568 132.582 3.51524 128.791 4.77474C123.794 6.43465 126.291 9.32824 127.048 9.55979C127.805 9.79207 129.199 8.30324 130.453 8.09972C131.707 7.89619 132.385 9.63869 132.863 9.78323C133.341 9.92776 133.069 9.53103 133.57 9.13431C134.07 8.73758 134.358 9.67114 134.347 10.3274C134.335 10.9837 135.312 11.6054 135.312 11.6054C135.312 11.6054 135.312 11.6054 135.884 10.5582C136.457 9.51112 136.301 5.7083 135.754 5.02398C135.705 4.96352 135.657 4.90231 135.609 4.84111Z" fill="#1C1C1C"/>
<path d="M155.93 39.6785C143.807 36.0306 141.879 21.6135 141.879 21.6135C141.879 21.6135 148.781 26.8749 154.166 31.8104C154.917 34.2246 155.781 37.408 155.93 39.6785Z" fill="#0094EF"/>
<path d="M159.254 40.1519C159.254 40.1519 158.98 42.4394 159.047 42.8133C159.113 43.1864 159.55 44.2969 159.658 44.3036C159.767 44.3095 160.097 44.3227 160.088 44.0941C160.079 43.8655 159.93 43.6517 160.026 43.6893C160.122 43.7269 160.149 44.5904 160.586 44.5683C161.023 44.5462 162.31 44.0617 162.258 43.0588C162.206 42.0559 160.835 40.219 160.803 40.0524C160.525 38.6403 159.254 40.1519 159.254 40.1519Z" fill="#FFB27D"/>
<path d="M159.981 40.5376C159.019 40.9771 158.662 40.5288 158.662 40.5288C158.662 40.5288 153.059 31.1969 152.469 30.4469C151.88 29.6962 141.537 25.2696 141.537 25.2696C141.537 25.2696 137.328 23.665 137.162 21.1179C137.017 18.905 138.277 17.5452 139.656 16.7252C141.3 15.7481 143.38 15.8919 144.891 17.0622C148.284 19.6903 155.009 24.9768 156.091 26.4103C158.5 29.6011 161.17 39.6019 161.17 39.6019C161.17 39.6019 160.736 40.1925 159.981 40.5376Z" fill="#00A2F1"/>
<path d="M135.898 46.8661L133.376 49.3791L133.341 49.357L129.557 46.9892C129.557 46.9892 131.515 47.6197 131.78 47.5459C132.03 47.4766 134.765 46.5386 135.41 46.6168C135.449 46.622 135.481 46.6301 135.504 46.6434C135.898 46.8661 135.898 46.8661 135.898 46.8661Z" fill="#4A75CB"/>
<path d="M133.263 50.0613C133.162 50.0391 132.861 49.9684 132.453 49.8644C131.278 49.5643 129.206 48.9883 128.388 48.5164C127.654 48.0931 123.777 45.844 121.106 44.2645C122.171 43.6959 123.223 43.6163 124.104 43.7269C127.222 45.5527 131.296 47.9501 131.795 48.2996C132.615 48.8748 133.733 49.5709 133.733 49.5709C133.733 49.5709 133.729 49.6026 133.717 49.6498C133.679 49.8039 133.563 50.1254 133.263 50.0613Z" fill="#E58638"/>
<path d="M133.263 50.0613C133.162 50.0391 132.861 49.9683 132.453 49.8644C131.278 49.5642 129.206 48.9883 128.388 48.5164C127.654 48.0931 123.777 45.844 121.106 44.2645C119.765 43.4718 118.728 42.8472 118.545 42.7071C118 42.289 116.951 41.2448 117.209 41.0472C117.467 40.8503 117.971 41.0486 118.16 41.0191C118.163 41.0184 118.165 41.0184 118.168 41.0177C118.212 41.011 118.286 40.9992 118.386 40.9933C118.746 40.9719 119.461 41.0214 120.478 41.6076C120.478 41.6076 122.092 42.5478 124.105 43.7262C127.223 45.552 131.297 47.9493 131.796 48.2988C132.616 48.874 133.734 49.5701 133.734 49.5701C133.734 49.5701 133.729 49.6018 133.717 49.649C133.679 49.8039 133.563 50.1254 133.263 50.0613Z" fill="#00A2F1"/>
<path d="M133.263 50.0606C133.162 50.0392 132.861 49.9677 132.453 49.8637C132.506 49.3991 132.18 49.0289 132.18 49.0289L133.717 49.6498C133.679 49.8039 133.563 50.1255 133.263 50.0606Z" fill="#4A75CB"/>
<g opacity="0.5">
<g opacity="0.5">
<path opacity="0.5" d="M129.932 48.0857C129.908 48.0717 129.9 48.0408 129.914 48.0164L129.941 47.9707C129.955 47.9471 129.986 47.939 130.011 47.953C130.034 47.967 130.043 47.998 130.028 48.0223L130.001 48.068C129.986 48.0916 129.955 48.0998 129.932 48.0857Z" fill="#4A75CB"/>
<path opacity="0.5" d="M129.707 47.953C129.683 47.939 129.675 47.908 129.689 47.8836L129.717 47.8379C129.731 47.8143 129.762 47.8062 129.786 47.8202C129.81 47.8342 129.818 47.8652 129.804 47.8895L129.776 47.9353C129.762 47.9589 129.731 47.967 129.707 47.953Z" fill="#4A75CB"/>
<path opacity="0.5" d="M129.482 47.8203C129.459 47.8063 129.45 47.7753 129.464 47.751L129.492 47.7052C129.506 47.6816 129.537 47.6735 129.561 47.6875C129.585 47.7016 129.593 47.7325 129.579 47.7569L129.552 47.8026C129.538 47.8269 129.507 47.8343 129.482 47.8203Z" fill="#4A75CB"/>
<path opacity="0.5" d="M129.257 47.6883C129.234 47.6743 129.226 47.6433 129.24 47.619L129.267 47.5733C129.281 47.5497 129.312 47.5416 129.337 47.5556C129.36 47.5696 129.368 47.6006 129.354 47.6249L129.327 47.6706C129.313 47.6942 129.282 47.7023 129.257 47.6883Z" fill="#4A75CB"/>
<path opacity="0.5" d="M129.033 47.5555C129.009 47.5415 129.001 47.5105 129.015 47.4862L129.042 47.4405C129.056 47.4169 129.087 47.4088 129.112 47.4228C129.135 47.4368 129.144 47.4678 129.13 47.4921L129.102 47.5378C129.088 47.5614 129.057 47.5695 129.033 47.5555Z" fill="#4A75CB"/>
<path opacity="0.5" d="M128.809 47.4228C128.785 47.4088 128.777 47.3778 128.791 47.3535L128.818 47.3078C128.832 47.2842 128.863 47.2761 128.888 47.2901C128.911 47.3041 128.92 47.3351 128.906 47.3594L128.878 47.4051C128.863 47.4294 128.832 47.4376 128.809 47.4228Z" fill="#4A75CB"/>
<path opacity="0.5" d="M128.584 47.2908C128.56 47.2768 128.552 47.2459 128.566 47.2215L128.594 47.1758C128.608 47.1522 128.639 47.1441 128.663 47.1581C128.687 47.1721 128.695 47.2031 128.681 47.2274L128.653 47.2731C128.639 47.2967 128.608 47.3048 128.584 47.2908Z" fill="#4A75CB"/>
<path opacity="0.5" d="M128.359 47.1581C128.336 47.1441 128.327 47.1131 128.341 47.0888L128.369 47.0431C128.383 47.0195 128.414 47.0114 128.438 47.0254C128.462 47.0394 128.47 47.0704 128.456 47.0947L128.429 47.1404C128.415 47.1647 128.383 47.1721 128.359 47.1581Z" fill="#4A75CB"/>
<path opacity="0.5" d="M128.135 47.0261C128.111 47.0121 128.103 46.9811 128.117 46.9568L128.144 46.9111C128.158 46.8875 128.189 46.8793 128.214 46.8934C128.237 46.9074 128.245 46.9383 128.231 46.9627L128.204 47.0084C128.19 47.032 128.158 47.0401 128.135 47.0261Z" fill="#4A75CB"/>
</g>
<g opacity="0.5">
<path opacity="0.5" d="M125.488 45.465C125.464 45.451 125.456 45.42 125.47 45.3957L125.497 45.35C125.511 45.3264 125.542 45.3182 125.567 45.3323C125.591 45.3463 125.599 45.3772 125.585 45.4016L125.557 45.4473C125.542 45.4716 125.511 45.479 125.488 45.465Z" fill="#4A75CB"/>
<path opacity="0.5" d="M125.263 45.333C125.239 45.319 125.231 45.288 125.245 45.2637L125.273 45.2179C125.287 45.1943 125.318 45.1862 125.342 45.2002C125.366 45.2143 125.374 45.2452 125.36 45.2696L125.333 45.3153C125.318 45.3389 125.287 45.347 125.263 45.333Z" fill="#4A75CB"/>
<path opacity="0.5" d="M125.038 45.2003C125.015 45.1863 125.007 45.1553 125.021 45.131L125.048 45.0853C125.062 45.0617 125.093 45.0535 125.117 45.0676C125.141 45.0816 125.149 45.1125 125.135 45.1369L125.108 45.1826C125.094 45.2062 125.062 45.2143 125.038 45.2003Z" fill="#4A75CB"/>
<path opacity="0.5" d="M124.814 45.0675C124.79 45.0535 124.782 45.0225 124.796 44.9982L124.823 44.9525C124.837 44.9289 124.868 44.9208 124.893 44.9348C124.916 44.9488 124.924 44.9798 124.91 45.0041L124.883 45.0498C124.869 45.0742 124.837 45.0823 124.814 45.0675Z" fill="#4A75CB"/>
<path opacity="0.5" d="M124.589 44.9356C124.565 44.9216 124.557 44.8906 124.571 44.8663L124.598 44.8205C124.613 44.7969 124.644 44.7888 124.668 44.8028C124.692 44.8169 124.7 44.8478 124.686 44.8722L124.658 44.9179C124.644 44.9415 124.613 44.9496 124.589 44.9356Z" fill="#4A75CB"/>
<path opacity="0.5" d="M124.364 44.8028C124.34 44.7888 124.332 44.7578 124.346 44.7335L124.374 44.6878C124.388 44.6642 124.419 44.6561 124.443 44.6701C124.467 44.6841 124.475 44.7151 124.461 44.7394L124.433 44.7851C124.419 44.8095 124.388 44.8168 124.364 44.8028Z" fill="#4A75CB"/>
<path opacity="0.5" d="M124.139 44.6708C124.116 44.6568 124.107 44.6258 124.122 44.6015L124.149 44.5558C124.163 44.5322 124.194 44.5241 124.218 44.5381C124.242 44.5521 124.25 44.5831 124.236 44.6074L124.209 44.6531C124.195 44.6767 124.164 44.6848 124.139 44.6708Z" fill="#4A75CB"/>
<path opacity="0.5" d="M123.915 44.5381C123.892 44.524 123.883 44.4931 123.898 44.4687L123.925 44.423C123.939 44.3994 123.97 44.3913 123.994 44.4053C124.018 44.4193 124.026 44.4503 124.012 44.4746L123.985 44.5204C123.97 44.544 123.939 44.5521 123.915 44.5381Z" fill="#4A75CB"/>
<path opacity="0.5" d="M123.691 44.4054C123.667 44.3914 123.659 44.3604 123.673 44.336L123.7 44.2903C123.714 44.2667 123.745 44.2586 123.77 44.2726C123.793 44.2866 123.801 44.3176 123.787 44.3419L123.76 44.3877C123.745 44.412 123.714 44.4201 123.691 44.4054Z" fill="#4A75CB"/>
</g>
<g opacity="0.5">
<path opacity="0.5" d="M122.821 43.8928C122.797 43.8788 122.789 43.8479 122.803 43.8235L122.831 43.7778C122.845 43.7542 122.876 43.7461 122.9 43.7601C122.924 43.7741 122.932 43.8051 122.918 43.8294L122.891 43.8751C122.877 43.8995 122.845 43.9069 122.821 43.8928Z" fill="#4A75CB"/>
<path opacity="0.5" d="M123.26 44.1524C123.236 44.1384 123.228 44.1074 123.243 44.0831L123.27 44.0373C123.284 44.0137 123.315 44.0056 123.339 44.0196C123.363 44.0336 123.371 44.0646 123.357 44.089L123.33 44.1347C123.316 44.1583 123.284 44.1664 123.26 44.1524Z" fill="#4A75CB"/>
<path opacity="0.5" d="M122.596 43.7608C122.573 43.7468 122.565 43.7158 122.579 43.6915L122.606 43.6458C122.62 43.6222 122.651 43.6141 122.676 43.6281C122.699 43.6421 122.707 43.6731 122.693 43.6974L122.666 43.7431C122.652 43.7667 122.62 43.7748 122.596 43.7608Z" fill="#4A75CB"/>
<path opacity="0.5" d="M122.372 43.6281C122.348 43.6141 122.34 43.5831 122.354 43.5588L122.381 43.5131C122.395 43.4895 122.426 43.4814 122.451 43.4954C122.474 43.5094 122.483 43.5404 122.469 43.5647L122.441 43.6104C122.427 43.634 122.396 43.6421 122.372 43.6281Z" fill="#4A75CB"/>
<path opacity="0.5" d="M122.147 43.4954C122.123 43.4814 122.115 43.4504 122.129 43.4261L122.157 43.3804C122.171 43.3568 122.202 43.3486 122.226 43.3627C122.25 43.3767 122.258 43.4076 122.244 43.432L122.216 43.4777C122.202 43.502 122.171 43.5101 122.147 43.4954Z" fill="#4A75CB"/>
<path opacity="0.5" d="M121.922 43.3634C121.899 43.3494 121.89 43.3184 121.904 43.2941L121.932 43.2483C121.946 43.2247 121.977 43.2166 122.001 43.2306C122.025 43.2446 122.033 43.2756 122.019 43.3L121.992 43.3457C121.978 43.3693 121.947 43.3774 121.922 43.3634Z" fill="#4A75CB"/>
<path opacity="0.5" d="M121.698 43.2306C121.674 43.2166 121.666 43.1856 121.68 43.1613L121.708 43.1156C121.722 43.092 121.753 43.0839 121.777 43.0979C121.801 43.1119 121.809 43.1429 121.795 43.1672L121.768 43.2129C121.753 43.2372 121.722 43.2446 121.698 43.2306Z" fill="#4A75CB"/>
<path opacity="0.5" d="M121.473 43.0987C121.45 43.0846 121.442 43.0537 121.456 43.0293L121.483 42.9836C121.497 42.96 121.528 42.9519 121.553 42.9659C121.576 42.9799 121.584 43.0109 121.57 43.0352L121.543 43.081C121.528 43.1046 121.497 43.1127 121.473 43.0987Z" fill="#4A75CB"/>
<path opacity="0.5" d="M121.249 42.9659C121.225 42.9519 121.217 42.9209 121.231 42.8966L121.258 42.8509C121.272 42.8273 121.303 42.8192 121.328 42.8332C121.352 42.8472 121.36 42.8782 121.346 42.9025L121.318 42.9482C121.304 42.9718 121.272 42.9799 121.249 42.9659Z" fill="#4A75CB"/>
<path opacity="0.5" d="M121.024 42.834C121 42.8199 120.992 42.789 121.006 42.7646L121.034 42.7189C121.048 42.6953 121.079 42.6872 121.103 42.7012C121.127 42.7152 121.135 42.7462 121.121 42.7705L121.093 42.8163C121.079 42.8399 121.048 42.848 121.024 42.834Z" fill="#4A75CB"/>
<path opacity="0.5" d="M120.804 42.7034C120.78 42.6894 120.772 42.6584 120.786 42.6341L120.813 42.5884C120.827 42.5648 120.858 42.5567 120.883 42.5707C120.906 42.5847 120.915 42.6156 120.901 42.64L120.873 42.6857C120.859 42.71 120.828 42.7181 120.804 42.7034Z" fill="#4A75CB"/>
<path opacity="0.5" d="M120.579 42.5714C120.555 42.5574 120.547 42.5265 120.561 42.5021L120.589 42.4564C120.603 42.4328 120.634 42.4247 120.658 42.4387C120.682 42.4527 120.69 42.4837 120.676 42.508L120.648 42.5537C120.634 42.5773 120.603 42.5855 120.579 42.5714Z" fill="#4A75CB"/>
<path opacity="0.5" d="M120.355 42.4387C120.33 42.4247 120.323 42.3937 120.337 42.3694L120.365 42.3237C120.379 42.3001 120.41 42.2919 120.434 42.306C120.458 42.32 120.466 42.3509 120.452 42.3753L120.424 42.421C120.41 42.4453 120.379 42.4527 120.355 42.4387Z" fill="#4A75CB"/>
<path opacity="0.5" d="M118.628 41.2839C118.606 41.3104 118.572 41.3193 118.541 41.3082C118.533 41.3053 118.526 41.3016 118.519 41.2964L118.167 41.0184C118.212 41.0118 118.285 41 118.385 40.9941L118.615 41.1755C118.649 41.202 118.655 41.2507 118.628 41.2839Z" fill="#4A75CB"/>
<path opacity="0.5" d="M124.281 45.0189L124.213 44.9783C124.168 44.9518 124.153 44.8935 124.18 44.8485L124.349 44.5646C124.375 44.5196 124.434 44.5049 124.479 44.5314L124.547 44.572C124.592 44.5985 124.607 44.6575 124.58 44.7018L124.411 44.9857C124.385 45.0299 124.326 45.0454 124.281 45.0189Z" fill="#4A75CB"/>
<path opacity="0.5" d="M124.728 45.2814L124.66 45.2408C124.615 45.2143 124.6 45.1553 124.627 45.111L124.795 44.8271C124.822 44.7822 124.88 44.7674 124.925 44.794L124.993 44.8345C125.038 44.8611 125.053 44.92 125.026 44.9643L124.858 45.2482C124.832 45.2932 124.773 45.3079 124.728 45.2814Z" fill="#4A75CB"/>
</g>
<g opacity="0.5">
<path opacity="0.5" d="M127.474 46.6367C127.451 46.6227 127.442 46.5917 127.456 46.5674L127.484 46.5217C127.498 46.4981 127.529 46.4899 127.553 46.504C127.577 46.518 127.585 46.5489 127.571 46.5733L127.544 46.619C127.529 46.6426 127.498 46.6507 127.474 46.6367Z" fill="#4A75CB"/>
<path opacity="0.5" d="M127.249 46.504C127.226 46.49 127.218 46.459 127.232 46.4347L127.259 46.389C127.273 46.3654 127.304 46.3573 127.329 46.3713C127.352 46.3853 127.36 46.4162 127.346 46.4406L127.319 46.4863C127.305 46.5099 127.273 46.518 127.249 46.504Z" fill="#4A75CB"/>
<path opacity="0.5" d="M127.025 46.3712C127.001 46.3572 126.993 46.3262 127.007 46.3019L127.034 46.2562C127.048 46.2326 127.079 46.2244 127.104 46.2385C127.127 46.2525 127.136 46.2834 127.121 46.3078L127.094 46.3535C127.08 46.3778 127.049 46.386 127.025 46.3712Z" fill="#4A75CB"/>
<path opacity="0.5" d="M126.8 46.2392C126.776 46.2252 126.768 46.1942 126.782 46.1699L126.81 46.1242C126.824 46.1006 126.855 46.0925 126.879 46.1065C126.903 46.1205 126.911 46.1515 126.897 46.1758L126.869 46.2215C126.855 46.2451 126.824 46.2532 126.8 46.2392Z" fill="#4A75CB"/>
<path opacity="0.5" d="M126.575 46.1065C126.552 46.0925 126.543 46.0615 126.557 46.0372L126.585 45.9915C126.599 45.9679 126.63 45.9598 126.654 45.9738C126.679 45.9878 126.686 46.0188 126.672 46.0431L126.645 46.0888C126.631 46.1132 126.6 46.1205 126.575 46.1065Z" fill="#4A75CB"/>
<path opacity="0.5" d="M126.351 45.9745C126.328 45.9605 126.319 45.9295 126.333 45.9052L126.361 45.8595C126.375 45.8359 126.406 45.8278 126.43 45.8418C126.454 45.8558 126.462 45.8868 126.448 45.9111L126.421 45.9568C126.406 45.9804 126.375 45.9885 126.351 45.9745Z" fill="#4A75CB"/>
<path opacity="0.5" d="M126.126 45.8418C126.103 45.8278 126.095 45.7968 126.109 45.7725L126.136 45.7268C126.15 45.7032 126.181 45.6951 126.206 45.7091C126.229 45.7231 126.237 45.7541 126.223 45.7784L126.196 45.8241C126.181 45.8477 126.15 45.8558 126.126 45.8418Z" fill="#4A75CB"/>
<path opacity="0.5" d="M125.902 45.7091C125.878 45.6951 125.87 45.6641 125.884 45.6398L125.911 45.594C125.925 45.5704 125.956 45.5623 125.981 45.5763C126.004 45.5903 126.013 45.6213 125.999 45.6457L125.971 45.6914C125.956 45.7157 125.925 45.7238 125.902 45.7091Z" fill="#4A75CB"/>
<path opacity="0.5" d="M125.677 45.5771C125.653 45.563 125.645 45.5321 125.659 45.5077L125.687 45.462C125.701 45.4384 125.732 45.4303 125.756 45.4443C125.78 45.4583 125.788 45.4893 125.774 45.5136L125.746 45.5594C125.732 45.583 125.701 45.5911 125.677 45.5771Z" fill="#4A75CB"/>
</g>
</g>
<path d="M124.295 46.2046C124.445 46.2319 124.559 46.0696 124.483 45.9369C124.407 45.8042 124.29 45.6508 124.124 45.5557C123.784 45.3595 123.684 45.9804 123.794 46.0505C123.86 46.0918 124.093 46.1684 124.295 46.2046Z" fill="#2B478B"/>
<path d="M124.261 45.4657L123.843 46.1706C123.843 46.1706 123.427 46.0866 122.859 45.7695C122.511 45.5756 122.301 45.3964 122.191 45.2865C122.121 45.2164 122.091 45.1751 122.091 45.1751L122.53 44.4355C122.572 44.4304 122.624 44.4377 122.684 44.4547C123.182 44.5955 124.204 45.3993 124.204 45.3993L124.261 45.4657Z" fill="#2B478B"/>
<path d="M122.684 44.4554L122.191 45.2872C122.121 45.2172 122.091 45.1759 122.091 45.1759L122.53 44.4363C122.572 44.4311 122.624 44.4385 122.684 44.4554Z" fill="#4A75CB"/>
<path d="M132.198 48.9042C132.219 48.8969 133.663 49.2221 134.448 49.795L133.455 49.7795L132.18 49.0274C132.18 49.0289 132.095 48.9426 132.198 48.9042Z" fill="#2B478B"/>
<path d="M129.251 46.0357C129.251 46.0357 128.358 46.6493 128.202 46.7319C128.046 46.8152 127.797 46.7923 127.797 46.7923H127.796L126.259 46.5342C126.259 46.5342 124.621 45.58 124.268 45.3632C124.236 45.3433 124.215 45.33 124.206 45.3234C124.102 45.2489 124.068 45.1826 124.104 45.1619C124.139 45.1413 126.833 46.2105 127.13 46.3307C127.133 46.3322 127.136 46.3329 127.139 46.3344C127.428 46.4502 127.487 46.3897 127.487 46.3897L128.972 45.9827C128.993 45.9723 129.022 45.9701 129.052 45.9731C129.143 45.9827 129.251 46.0357 129.251 46.0357Z" fill="#4A75CB"/>
<path d="M129.053 45.9731C128.647 46.0977 127.524 46.4399 127.426 46.4524C127.321 46.4657 124.871 45.58 124.269 45.3632C124.237 45.3433 124.216 45.33 124.207 45.3234C124.103 45.2489 124.069 45.1826 124.105 45.1619C124.14 45.1413 126.834 46.2105 127.131 46.3307C127.429 46.4509 127.488 46.3897 127.488 46.3897L128.974 45.9827C128.995 45.9723 129.023 45.9701 129.053 45.9731Z" fill="#4A75CB"/>
<path d="M129.251 46.0357C129.251 46.0357 128.358 46.6493 128.202 46.7318C128.046 46.8152 127.797 46.7923 127.797 46.7923H127.796C127.505 46.6389 127.281 46.4612 127.139 46.3344C127.429 46.4502 127.487 46.3897 127.487 46.3897L128.973 45.9827C128.994 45.9723 129.022 45.9701 129.053 45.9731C129.143 45.9827 129.251 46.0357 129.251 46.0357Z" fill="#4A75CB"/>
<path d="M133.411 49.3939L129.557 46.9892C129.557 46.9892 131.547 47.6367 131.815 47.5644C132.067 47.4966 134.833 46.5755 135.487 46.6581C134.744 46.9575 133.001 47.6993 132.881 48.1101C132.766 48.5024 133.19 49.1115 133.411 49.3939Z" fill="#00A2F1"/>
<path d="M40.863 2.62075C40.8556 2.40838 40.6907 0.11946 37.1954 0C37.1954 0 38.9142 0.204262 39.2114 0.957895C39.2114 0.957895 38.0411 0.0265467 37.0882 0.325935C36.1352 0.625323 35.5749 2.29113 35.5697 2.83903C35.5638 3.38692 36.0938 5.15302 36.6986 5.30271C36.9278 5.35949 37.1917 5.34474 37.4312 5.30345C37.2701 5.55417 37.1126 5.8307 36.9618 6.13967C35.5675 8.99566 37.0054 11.786 38.186 11.4778C38.9431 11.2802 39.1575 12.5691 39.1575 12.5691L46.5141 6.62857C46.5141 6.62857 43.812 1.05155 40.863 2.62075Z" fill="#1C1C1C"/>
<path d="M43.4246 86.7496L41.8618 87.33C41.8618 87.33 35.0744 77.9405 34.239 69.6786C34.0896 68.2038 34.1392 66.7747 34.4622 65.4547C34.4622 65.4547 34.3957 65.0764 34.2796 64.409C34.2257 64.0971 34.1599 63.7218 34.0845 63.2919C33.8634 62.0309 33.5603 60.3054 33.2128 58.3402C32.4144 53.8191 31.3794 48.0385 30.5758 43.7896L30.9972 43.6546L35.5527 42.1887L36.4945 39.2059L39.8871 38.3151C39.8871 38.3151 40.6449 39.7936 41.3221 46.7791C41.447 47.6949 41.5609 48.7059 41.6459 49.8017C41.9098 53.1458 41.929 57.2945 41.3228 62.0375C41.1668 63.2513 40.9709 64.5049 40.727 65.7932C40.5481 66.737 40.5214 68.0238 40.5968 69.5016C40.9391 76.2541 43.4246 86.7496 43.4246 86.7496Z" fill="#2B2028"/>
<path d="M41.6466 49.8017L34.2804 64.409C34.2264 64.0971 34.1606 63.7218 34.0852 63.2919C33.8641 62.0309 33.561 60.3054 33.2136 58.3402C32.4151 53.8191 31.3801 48.0385 30.5765 43.7896L30.9979 43.6546L35.5534 42.1887L36.4953 39.2059L39.8879 38.3151C39.8879 38.3151 40.6456 39.7936 41.3228 46.7791C41.447 47.6957 41.5609 48.7059 41.6466 49.8017Z" fill="#160912"/>
<path d="M38.4056 40.1903L38.2349 38.7317C35.3775 39.4883 27.7444 36.6168 27.7444 36.6168C27.7444 36.6168 24.9765 39.0436 25.3402 44.8603C25.5176 47.6994 25.8415 59.7641 26.18 63.3347C26.302 64.6288 26.4092 65.5491 26.4536 65.9171C26.4543 65.9185 26.4543 65.92 26.4543 65.9207C26.4676 66.0328 26.4284 66.139 26.3715 66.2371C25.8732 67.0807 25.4607 67.9582 25.1229 68.8571C21.802 77.6846 25.6345 88.5563 25.6345 88.5563L26.6288 88.1566C26.6288 88.1566 28.8097 76.0579 30.5818 70.7124C30.8827 69.8062 31.171 69.0938 31.4356 68.6676C32.206 67.4273 32.9209 65.4001 33.57 62.9895C34.7964 58.4316 35.7841 52.5028 36.4414 47.9265C36.5315 47.9302 38.4056 40.1903 38.4056 40.1903Z" fill="#2B2028"/>
<path d="M60.9132 38.3269C60.2981 38.8696 58.6665 37.0055 58.4417 36.7584C58.4299 36.7348 58.4181 36.723 58.4181 36.723L58.9149 35.3426C58.9149 35.3426 61.0551 35.26 61.41 35.614C61.7648 35.9672 61.5874 37.7488 60.9132 38.3269Z" fill="#ED985F"/>
<path d="M58.9149 35.3426L58.702 36.7702C58.702 36.7702 58.6074 36.7702 58.4418 36.7584C57.9213 36.723 56.6564 36.6522 55.2252 36.4989C53.0731 36.2865 50.5181 35.9089 49.5016 35.2843C47.9528 34.3412 45.4096 31.4505 43.7544 28.5606C43.7071 28.4898 43.6716 28.4191 43.6361 28.3483C42.7726 26.8145 42.1694 25.2932 42.1228 24.0779C42.0873 23.3346 42.1701 22.6975 42.3239 22.1437C42.5249 21.4122 42.8561 20.8348 43.1992 20.3983C43.2465 20.3275 43.2938 20.2567 43.3648 20.1977C43.9326 19.5252 44.4885 19.242 44.4885 19.242C44.7724 19.124 45.0799 19.2656 45.3993 19.6077V19.6195C45.6595 19.8909 45.9434 20.3039 46.2155 20.823C46.2273 20.8348 46.2391 20.8466 46.2391 20.8584C46.2983 20.9646 46.3574 21.0826 46.4284 21.2124C46.452 21.2359 46.4639 21.2713 46.4757 21.2949C46.6058 21.5663 46.7359 21.8495 46.866 22.1444C48.3202 25.3057 49.8698 30.0945 51.1591 31.5221C51.715 32.1356 54.2574 33.3383 56.2794 34.235C57.7328 34.8707 58.9149 35.3426 58.9149 35.3426Z" fill="#ED985F"/>
<path d="M43.8637 22.4976C42.967 22.9128 41.8839 23.1952 40.5732 23.266C35.6614 23.5344 34.5465 19.2398 34.3432 16.3889C35.0514 16.1331 35.671 16.1574 36.0288 16.1766C36.377 16.1957 36.7407 16.2311 37.0401 16.268C37.6412 15.9546 38.7205 14.4341 39.3445 11.8907L39.5567 11.9888L43.1008 13.6509C43.1008 13.6509 42.7245 14.8013 42.4465 15.9023C42.2299 16.7635 42.0739 17.5961 42.204 17.8291C42.4835 17.9427 42.6506 18.0135 42.6506 18.0135C42.6506 18.0135 42.6506 18.0149 42.6521 18.0171C42.6875 18.1071 43.4579 20.0657 43.8637 22.4976Z" fill="#FFB27D"/>
<path d="M45.0925 25.712C45.0555 25.81 45.0148 25.9052 44.9698 26.0032C43.7255 28.6756 41.4227 39.7456 41.4227 39.7456C41.7509 41.7359 26.4269 39.3548 26.3878 37.543C25.8481 35.6213 28.3025 32.5345 29.6872 30.9852C29.8609 30.7905 30.0162 30.5818 30.1515 30.3613C30.493 29.809 30.7104 29.1852 30.7791 28.534C31.0512 25.9649 30.9477 23.558 30.9706 22.0942C31.2412 21.8944 31.5029 21.71 31.7461 21.5345C32.1187 21.2632 32.4477 21.0102 32.6902 20.7536C32.9571 20.4734 33.1242 20.1873 33.1434 19.8643C33.1574 19.6202 33.15 19.3695 33.1242 19.1188C33.1123 19.0008 33.0975 18.8821 33.0798 18.7641C32.8883 17.5208 32.3679 16.3933 32.3679 16.3933C33.686 15.8617 36.0296 16.178 36.0296 16.178C36.0296 16.178 36.0273 16.3078 36.0259 16.5202C36.0185 17.3741 36.0259 19.5664 36.3001 19.9816C36.6432 20.4985 42.9212 22.7623 43.2531 22.0611C43.5799 21.3716 42.6854 18.1402 42.6521 18.0178C42.6506 18.0149 42.6506 18.0142 42.6506 18.0142C44.7531 18.8378 45.5043 19.5288 45.5043 19.5288C44.2371 20.3466 46.072 23.12 45.0925 25.712Z" fill="#FF6284"/>
<path d="M43.1008 13.6516C43.1008 13.6516 42.7238 14.8012 42.4466 15.9029C40.3751 15.3263 39.746 13.1546 39.5567 11.9902L43.1008 13.6516Z" fill="#ED985F"/>
<path d="M43.537 14.8684C43.537 14.8684 38.5808 13.7247 39.3423 10.6563C40.1038 7.58868 39.9774 5.37498 43.174 5.97597C46.3707 6.57696 46.6923 7.8984 46.6879 8.9846C46.6834 10.0701 44.8456 15.0867 43.537 14.8684Z" fill="#FFB27D"/>
<path d="M46.9673 7.24285C46.4343 6.13084 45.8074 6.19057 45.4148 6.38746C43.0861 4.23791 40.8017 5.99442 40.8017 5.99442C39.9227 8.113 38.0168 8.97871 38.0168 8.97871C38.0168 8.97871 38.7783 9.75668 40.985 9.73898C41.6593 9.73382 42.3372 9.42485 42.9537 8.99936C41.7642 10.1947 40.3692 10.9218 40.3692 10.9218C43.1319 10.3945 44.9838 7.20451 45.1738 6.8653C45.4082 7.20967 45.8555 7.94413 45.8932 8.56355C45.9442 9.40567 45.6536 11.0405 46.1371 11.1025C46.1379 11.1032 47.7658 8.91013 46.9673 7.24285Z" fill="#1C1C1C"/>
<path d="M45.505 19.5266C45.505 19.5266 46.6982 21.6032 46.8771 22.1378C46.8771 22.1378 45.3298 22.0781 44.7051 23.266C44.7044 23.266 44.5543 19.8068 45.505 19.5266Z" fill="#FF6284"/>
<path d="M37.2974 36.0261C34.2752 35.9944 31.7158 32.8641 30.1515 30.3621C30.493 29.8098 30.7104 29.1859 30.7791 28.5348C31.0512 25.9657 30.9477 23.5588 30.9706 22.095C31.2412 21.8952 31.5029 21.7108 31.7461 21.5353C32.1187 21.2639 32.4477 21.011 32.6902 20.7544C35.1653 24.9259 41.3946 36.0696 37.2974 36.0261Z" fill="#E5456F"/>
<path d="M31.4164 89.3667H23.5452C23.5452 89.3667 23.3567 88.1699 23.7678 87.2621C24.1618 86.3913 24.7784 85.9953 24.6312 84.9415C25.131 85.4548 25.9464 86.0299 27.0842 85.8773C27.2239 86.1029 27.9839 87.3093 28.4497 87.6434C28.9642 88.0121 31.2575 87.8808 31.4164 89.3667Z" fill="#E5456F"/>
<path d="M48.315 89.3667H40.4446C40.4446 89.3667 40.1503 88.1145 40.6671 87.2621C41.1247 86.5085 40.9488 86.0785 40.6102 85.4554C40.9665 85.6007 41.4278 85.7334 41.9357 85.7047C42.3275 85.6818 42.7423 85.5048 43.106 85.2939C43.4446 85.6789 44.8951 87.3189 45.3483 87.6441C45.8635 88.012 48.1568 87.8808 48.315 89.3667Z" fill="#E5456F"/>
<path d="M55.1239 31.4306L47.4656 41.3672L48.0881 41.8023L55.8402 31.8657L55.1239 31.4306Z" fill="#1C9365"/>
<path d="M55.8402 31.8657H63.6116L55.4765 41.8023H48.0881L55.8402 31.8657Z" fill="#25B782"/>
<path d="M55.1239 31.4306H62.8443L63.2797 31.8657H55.8403L55.1239 31.4306Z" fill="#CCDFED"/>
<path d="M55.3294 31.5552H62.984L63.1089 31.4306H55.1239L55.3294 31.5552Z" fill="#1C9365"/>
<path d="M54.2419 37.8955C54.2205 37.5002 53.6978 37.5179 53.3008 37.5164C52.6495 37.5135 51.6219 37.4692 51.0275 37.2414C51.0275 37.2414 52.9252 37.2141 52.5223 36.616C52.4491 36.5069 51.5058 36.5895 50.4523 36.5895C50.0206 36.5895 48.953 37.1802 49.0077 37.2074C48.2448 37.1072 47.5506 36.9597 47.3266 36.911C46.8062 36.6278 46.1792 36.2857 45.5176 35.9081C43.9207 35.0114 42.088 33.9149 40.8342 33.0064C40.1126 32.4873 39.5685 32.0271 39.38 31.6968C39.0843 31.1894 38.7531 30.3871 38.3864 29.3968C38.1971 28.8777 37.9961 28.3113 37.795 27.7096C37.4401 26.7185 37.0853 25.6456 36.7186 24.5719C36.0562 22.6141 35.3465 20.6437 34.673 19.1217C34.2353 18.1661 33.8095 17.3763 33.4073 16.8925C33.0879 16.5032 32.7804 16.3026 32.4847 16.3498C32.4374 16.3616 32.4019 16.3734 32.3664 16.3852C32.3664 16.3852 30.6638 16.8571 30.6402 20.278C30.6283 20.4668 30.6402 20.6673 30.652 20.8797C30.6756 21.4814 30.7939 22.213 30.9714 23.0145C31.2552 24.3596 31.7284 25.9162 32.3198 27.4972C32.4854 27.922 32.651 28.3585 32.8284 28.7943C34.1059 31.9556 35.7494 34.9045 37.1333 35.9074C37.1925 35.9546 37.2398 35.99 37.2989 36.0254C37.8785 36.3911 38.7302 36.7569 39.7112 37.099C41.107 37.571 42.7622 37.9957 44.2408 38.3497H44.2527C45.1161 38.5385 45.9079 38.7155 46.5703 38.8452C46.5703 38.8452 46.679 38.8725 46.8727 38.9109C46.9008 38.916 46.9296 38.9219 46.9607 38.9278C47.5876 39.0812 48.8762 39.4116 50.0945 39.8835C51.7978 40.556 53.0502 39.7198 53.6187 39.1284C53.9772 38.7538 54.2611 38.256 54.2419 37.8955Z" fill="#FFB27D"/>
<path d="M34.6678 19.1277C32.3915 18.5017 30.6349 20.2744 30.6349 20.2744C30.6638 16.8595 32.3678 16.3919 32.3678 16.3919C33.0539 16.1088 33.8486 17.2938 34.6678 19.1277Z" fill="#FF6284"/>
<path d="M88.8242 60.927C87.8942 60.093 88.6593 58.1241 88.3052 57.7355C88.2468 57.6721 88.1137 57.5733 87.943 57.4464C87.7093 58.4109 87.2835 59.3954 86.6633 60.3245C84.5526 63.4902 80.9863 64.8272 78.6982 63.3088C76.4729 61.8325 76.277 58.1993 78.2117 55.0882C78.2657 55.0012 78.3219 54.9149 78.3795 54.8279C78.9954 53.9046 79.7347 53.1377 80.5301 52.5507C80.5323 52.5485 80.5346 52.5471 80.5368 52.5456C80.4355 52.4873 80.3557 52.4438 80.3017 52.4247C79.8049 52.2491 78.2805 53.7136 77.1494 53.1805C76.019 52.6473 77.0518 50.4949 79.2859 50.2427C80.6484 50.0885 82.0863 50.7906 83.0008 51.3628C83.4074 51.2654 83.8118 51.216 84.2059 51.2182C84.2206 51.2182 84.2354 51.2175 84.2502 51.2182C83.9981 50.3783 84.109 49.4374 84.6339 48.6506C84.8113 48.3844 85.0243 48.155 85.2616 47.9641C85.2601 47.9618 85.2593 47.9596 85.2579 47.9574C84.9947 47.4693 85.0036 46.8565 85.3325 46.3631C85.8079 45.6508 86.7727 45.4569 87.4876 45.931C88.0051 46.2739 88.2498 46.8734 88.1647 47.4486C88.4117 47.5319 88.6519 47.6484 88.8796 47.7996C89.0815 47.9338 89.2618 48.0872 89.4208 48.2561C89.9169 47.9677 90.5549 47.9663 91.065 48.3047C91.7799 48.7796 91.9736 49.7412 91.4982 50.455C91.1862 50.9225 90.6635 51.1666 90.1394 51.1452C90.0551 51.4535 89.9206 51.7543 89.7335 52.0346C89.2382 52.7779 88.473 53.2343 87.6539 53.3612C87.8579 53.7778 87.9999 54.2387 88.0797 54.7298C88.9691 55.3308 90.3057 56.431 90.7145 57.8277C91.3459 59.9794 89.7542 61.7603 88.8242 60.927Z" fill="#EFCDAF"/>
<path d="M78.2124 55.0882C78.2664 55.0011 78.3226 54.9149 78.3802 54.8279C78.9961 53.9046 79.7353 53.1377 80.5308 52.5507C80.7674 52.5323 81.0084 52.5832 81.0949 52.8258C81.2871 53.3619 79.4847 55.0476 79.6392 56.0048C79.7531 56.7149 78.7166 55.6899 78.2124 55.0882Z" fill="#E2B99A"/>
<path d="M85.5403 51.9932C85.2534 51.862 84.6679 51.556 84.2066 51.2182C84.2214 51.2182 84.2362 51.2175 84.251 51.2182C83.9989 50.3783 84.1098 49.4374 84.6346 48.6506C84.8121 48.3844 85.025 48.155 85.2623 47.964C85.2608 47.9618 85.2601 47.9596 85.2586 47.9574C85.2896 47.9707 85.3037 48.012 85.2889 48.0997C85.2312 48.4345 84.3907 50.7728 85.7606 51.7742C85.7613 51.7728 85.9661 52.1872 85.5403 51.9932Z" fill="#E2B99A"/>
<path d="M89.7756 48.8843C89.7756 48.8843 90.5719 48.6447 90.8506 49.1896C91.1293 49.7353 90.5926 50.3864 90.1608 50.2817C90.1608 50.2817 90.1305 49.5133 89.7756 48.8843Z" fill="#FFF3E9"/>
<path d="M87.5327 47.2546C87.5327 47.2546 87.2111 46.3882 86.6256 46.4361C86.04 46.4848 86.1746 47.4235 86.1746 47.4235C86.1746 47.4235 86.9708 47.1463 87.5327 47.2546Z" fill="#FFF3E9"/>
<path d="M69.4957 55.8308C69.4957 55.8308 67.5003 53.2646 67.487 51.1704C67.4737 49.0761 67.5343 48.3807 67.8848 48.4751C68.2352 48.5695 69.8113 49.7376 70.3784 50.9005C70.9447 52.0634 71.9405 55.1059 71.9612 55.5203C71.9819 55.934 69.4957 55.8308 69.4957 55.8308Z" fill="#AFCDFB"/>
<path d="M69.605 55.0115C69.605 55.0115 68.3305 53.2388 68.2817 51.823C68.2337 50.4071 68.258 49.9381 68.4747 50.0089C68.692 50.0797 69.6827 50.899 70.053 51.6954C70.4234 52.4925 71.0932 54.5683 71.1139 54.8486C71.1346 55.1288 69.605 55.0115 69.605 55.0115Z" fill="#E57970"/>
<path d="M72.7153 54.7601C72.7153 54.7601 71.7586 51.2847 72.1364 50.3386C72.5142 49.3925 74.474 50.0245 74.6966 50.6911C74.9191 51.3584 74.7816 54.1746 74.7816 54.1746L72.7153 54.7601Z" fill="#AFCDFB"/>
<path d="M72.9696 50.764C72.9696 50.764 72.8314 53.5183 73.3141 54.5905L74.2427 54.3272C74.2427 54.3272 74.3868 51.2515 74.2626 51.0443C74.1392 50.8363 72.9696 50.764 72.9696 50.764Z" fill="#E57970"/>
<path d="M72.0825 50.5362C72.0825 50.5362 75.2998 52.6599 75.5593 52.4358C75.8188 52.2116 74.8407 50.0554 74.4608 49.8622C74.0822 49.6697 72.0596 49.2708 72.0825 50.5362Z" fill="#AFCDFB"/>
<path d="M66.1643 89.3558H110.026V53.281L66.1643 53.281V89.3558Z" fill="#D3671E"/>
<path d="M131.957 53.2815H88.0953V89.3563H131.957V53.2815Z" fill="#E5B589"/>
<path opacity="0.4" d="M131.957 53.2815V78.0253L88.0953 89.3563V53.2815H131.957Z" fill="#D86713"/>
<path d="M88.0953 53.2815L96.7746 62.7727H140.056L131.957 53.2815H88.0953Z" fill="#E5B589"/>
<path d="M66.1903 80.2073H73.1411L72.5282 78.2569L73.1411 76.8624H66.1903V80.2073Z" fill="#F1A34F"/>
<path opacity="0.4" d="M131.967 86.3941H125.016L125.628 84.4437L125.016 83.0493H131.967V86.3941Z" fill="#D86713"/>
<path d="M88.0954 57.3594L78.8506 66.5814H66.1903V53.2815H88.0954V57.3594Z" fill="#C95C12"/>
<path d="M66.1651 53.2815L56.3037 62.7727H78.248L88.0953 53.2815H66.1651Z" fill="#E5B589"/>
<path d="M55.3353 79.8526L54.5369 80.0075C53.5891 80.1911 52.6635 79.568 52.4794 78.6226L51.3047 72.5906C51.1376 71.7286 51.6403 70.8865 52.4476 70.6048C52.441 70.5841 52.4343 70.5635 52.4299 70.5406L52.3612 70.1859C52.3131 69.9404 52.4757 69.7 52.7227 69.6521L53.0783 69.5827C53.3252 69.5348 53.5662 69.697 53.6142 69.9426L53.683 70.298C53.6867 70.3142 53.6889 70.3312 53.6897 70.3474C53.6897 70.3504 53.6904 70.3533 53.6904 70.3563C54.5657 70.2877 55.3789 70.8887 55.5504 71.7669L56.7244 77.7997C56.9078 78.745 56.2831 79.669 55.3353 79.8526Z" fill="#CADDFF"/>
<path d="M55.6138 72.1166L51.3688 72.9387L52.1758 77.0845L56.4208 76.2624L55.6138 72.1166Z" fill="#BC2654"/>
<path d="M53.6889 70.3482L52.4469 70.6048C52.4402 70.5841 52.4336 70.5635 52.4292 70.5406L52.3604 70.1859C52.3124 69.9404 52.475 69.7 52.7219 69.6521L53.0775 69.5827C53.3244 69.5348 53.5654 69.697 53.6135 69.9426L53.6822 70.298C53.6859 70.3142 53.6874 70.3312 53.6889 70.3482Z" fill="#E5456F"/>
<path d="M76.8567 68.8254C76.8567 68.8254 76.331 69.5635 75.849 69.5739C75.367 69.5842 74.6336 69.2317 74.6336 69.2317C74.6336 69.2317 74.1908 68.2472 74.4909 67.8623C74.4909 67.8623 74.7918 67.7303 75.1068 67.9633C75.1607 68.0039 75.2154 68.054 75.2701 68.1189C75.3463 68.2104 75.432 68.2627 75.523 68.29C75.8667 68.3947 76.2756 68.1492 76.4279 68.3859C76.5173 68.5238 76.6142 68.627 76.694 68.7C76.7879 68.7848 76.8567 68.8254 76.8567 68.8254Z" fill="#EFC700"/>
<path d="M70.0005 74.1524C70.0005 74.1524 71.8591 69.6601 75.2051 69.5746C75.2051 69.5746 78.2938 69.9167 78.4653 74.1524H70.0005Z" fill="#EFC700"/>
<path d="M74.2891 69.7118C74.2891 69.7118 75.6302 70.0089 76.0442 69.8342C76.0442 69.8342 76.107 69.2752 75.5422 69.3534C75.1556 69.4072 74.9042 69.2214 74.7556 69.1469C74.5456 69.04 74.2329 69.4773 74.2891 69.7118Z" fill="#F1A34F"/>
<path d="M75.4558 68.8682C75.37 68.9323 75.1068 67.9634 75.1068 67.9634C75.1608 68.0039 75.2155 68.0541 75.2702 68.119C75.3463 68.2104 75.4321 68.2628 75.523 68.2901C75.5238 68.3188 75.5393 68.8062 75.4558 68.8682Z" fill="#E5C1A1"/>
<path d="M76.694 68.7007C76.6755 68.7118 76.0545 69.0827 75.971 69.0827C75.8852 69.0827 76.4286 68.3873 76.4286 68.3873C76.5173 68.5245 76.6141 68.6277 76.694 68.7007Z" fill="#E5C1A1"/>
<path d="M71.8169 72.8974C71.7829 72.8679 73.1321 70.9152 73.504 70.9005C73.8758 70.8865 74.7112 71.3282 75.316 71.3857C75.9207 71.4425 76.507 71.2714 76.6216 71.6283C76.7361 71.9845 77.0503 73.2491 76.8574 73.4512C76.6637 73.6532 72.5592 73.5301 71.8169 72.8974Z" fill="white"/>
<path d="M56.1522 75.9347C56.1012 76.035 56.0273 76.1161 55.9393 76.1743C55.8898 76.2068 55.8373 76.2326 55.7811 76.251C55.6251 76.3019 55.4506 76.2931 55.2947 76.2142L46.9599 71.991C46.6472 71.8325 46.5208 71.4476 46.6797 71.1349C46.7596 70.9786 46.8956 70.8694 47.0509 70.8186C47.2068 70.7677 47.3813 70.7765 47.5373 70.8554L55.872 75.0786C56.1848 75.2371 56.3112 75.622 56.1522 75.9347Z" fill="#E57970"/>
<path d="M49.7234 73.3906L49.1978 71.6968L47.8552 71.0169L48.6647 72.8545L49.7234 73.3906Z" fill="#B64C41"/>
<path d="M51.7586 74.4223L50.7 73.8862L49.8912 72.0479L51.233 72.7285L51.7586 74.4223Z" fill="#B64C41"/>
<path d="M53.7924 75.4532L52.733 74.9164L51.9243 73.0787L53.2668 73.7586L53.7924 75.4532Z" fill="#B64C41"/>
<path d="M55.9393 76.1744C55.8898 76.2068 55.8373 76.2326 55.7811 76.2511C55.6251 76.302 55.4506 76.2931 55.2946 76.2142L54.8052 75.9664L53.9965 74.1288L55.339 74.8087L55.9393 76.1744Z" fill="#B64C41"/>
<path d="M46.679 71.1349C46.679 71.1349 46.5104 70.2316 45.7748 69.9625C45.7748 69.9625 45.8613 70.0664 45.5072 70.1793C45.1531 70.2921 45.2559 70.5354 45.1302 70.646C45.1302 70.646 45.641 71.3223 46.679 71.1349Z" fill="#B64C41"/>
<path d="M46.5363 71.2537L46.5164 71.2441C46.4602 71.2153 46.4373 71.146 46.4661 71.09L46.5696 70.8864C46.5984 70.8304 46.6679 70.8075 46.7241 70.8363L46.7433 70.8459C46.7995 70.8746 46.8224 70.944 46.7936 71L46.6901 71.2035C46.6627 71.2603 46.5933 71.2824 46.5363 71.2537Z" fill="#4A75CB"/>
<path d="M56.1176 75.9171C56.1176 75.9171 56.9485 75.5196 57.5998 75.9539C57.5998 75.9539 57.4645 75.9458 57.5821 76.2976C57.6996 76.6493 57.4416 76.7098 57.4268 76.8764C57.4268 76.8764 56.5774 76.8646 56.1176 75.9171Z" fill="#B64C41"/>
<path d="M56.1049 76.1021L56.1248 76.1117C56.181 76.1405 56.2505 76.1176 56.2793 76.0616L56.3828 75.858C56.4117 75.802 56.3887 75.7319 56.3326 75.7039L56.3133 75.6943C56.2571 75.6656 56.1869 75.6884 56.1588 75.7445L56.0553 75.948C56.0257 76.004 56.0487 76.0741 56.1049 76.1021Z" fill="#4A75CB"/>
<path d="M66.9405 75.9997C66.843 76.0557 66.7365 76.0838 66.6308 76.0852C66.5716 76.086 66.5132 76.0786 66.4563 76.0631C66.2981 76.0211 66.1562 75.9193 66.0682 75.7674L61.3863 67.6965C61.2103 67.3934 61.3153 67.0018 61.6191 66.8271C61.7714 66.7393 61.9452 66.7216 62.1034 66.7636C62.2616 66.8057 62.4035 66.9074 62.4915 67.0593L67.1734 75.1303C67.3494 75.4334 67.2444 75.8249 66.9405 75.9997Z" fill="#F1A34F"/>
<path d="M62.9396 70.3732L63.4246 68.6669L62.6705 67.3668L62.3445 69.3482L62.9396 70.3732Z" fill="#F9DDBF"/>
<path d="M64.0825 72.3443L63.4882 71.3193L63.8134 69.3379L64.5675 70.6379L64.0825 72.3443Z" fill="#F9DDBF"/>
<path d="M65.2255 74.314L64.6304 73.2882L64.9557 71.3076L65.7105 72.6076L65.2255 74.314Z" fill="#F9DDBF"/>
<path d="M66.6308 76.0852C66.5717 76.086 66.5133 76.0786 66.4564 76.0631C66.2982 76.0211 66.1562 75.9193 66.0682 75.7674L65.7932 75.294L66.1185 73.3133L66.8726 74.6133L66.6308 76.0852Z" fill="#F9DDBF"/>
<path d="M61.6199 66.827C61.6199 66.827 61.9726 65.9776 61.5016 65.3522C61.5016 65.3522 61.5172 65.4864 61.1586 65.3884C60.8001 65.2903 60.7535 65.5506 60.5872 65.5742C60.5879 65.5749 60.6463 66.42 61.6199 66.827Z" fill="#F1A34F"/>
<path d="M61.4351 66.8492L61.4241 66.83C61.3923 66.7755 61.4115 66.7047 61.4662 66.673L61.6643 66.5587C61.719 66.527 61.79 66.5461 61.8218 66.6007L61.8329 66.6199C61.8647 66.6744 61.8455 66.7452 61.7907 66.7769L61.5926 66.8912C61.5372 66.9229 61.4662 66.9037 61.4351 66.8492Z" fill="#D3671E"/>
<path d="M66.9214 75.9665C66.9214 75.9665 67.8352 76.0845 68.1442 76.8034C68.1442 76.8034 68.0348 76.7231 67.9416 77.0815C67.8485 77.4406 67.5986 77.3513 67.4951 77.4826C67.4951 77.4826 66.7898 77.0107 66.9214 75.9665Z" fill="#F1A34F"/>
<path d="M66.8097 76.1147L66.8208 76.1339C66.8526 76.1884 66.9236 76.2076 66.9783 76.1759L67.1764 76.0616C67.2311 76.0299 67.2503 75.9591 67.2185 75.9045L67.2075 75.8854C67.1757 75.8308 67.1054 75.8116 67.05 75.8433L66.8519 75.9576C66.7964 75.9901 66.7779 76.0601 66.8097 76.1147Z" fill="#D3671E"/>
<path d="M51.7897 78.2642C51.6899 78.2119 51.61 78.1366 51.5531 78.0482C51.5213 77.998 51.4962 77.9449 51.4792 77.8889C51.4311 77.7325 51.4422 77.5593 51.5243 77.4044L55.892 69.1602C56.0561 68.8504 56.4435 68.731 56.754 68.8947C56.9092 68.9765 57.0164 69.1137 57.0652 69.27C57.1133 69.4264 57.1022 69.6004 57.0201 69.7552L52.6524 77.9995C52.4875 78.3085 52.1002 78.4279 51.7897 78.2642Z" fill="#4A75CB"/>
<path d="M54.443 71.8938L56.1493 71.3967L56.8531 70.0694L54.9975 70.8466L54.443 71.8938Z" fill="#699FF0"/>
<path d="M53.3762 73.9068L53.9306 72.8597L55.7862 72.0825L55.0832 73.4098L53.3762 73.9068Z" fill="#699FF0"/>
<path d="M52.3101 75.9186L52.8653 74.8714L54.7209 74.0942L54.0171 75.4223L52.3101 75.9186Z" fill="#699FF0"/>
<path d="M51.5524 78.0482C51.5206 77.998 51.4954 77.9449 51.4784 77.8889C51.4304 77.7326 51.4415 77.5593 51.5235 77.4044L51.7801 76.9207L53.6357 76.1434L52.9326 77.4708L51.5524 78.0482Z" fill="#699FF0"/>
<path d="M56.754 68.894C56.754 68.894 57.6625 68.7406 57.9435 68.0105C57.9435 68.0105 57.8378 68.0953 57.7306 67.7399C57.6234 67.3852 57.3772 67.484 57.2692 67.3564C57.2685 67.3572 56.5825 67.8557 56.754 68.894Z" fill="#699FF0"/>
<path d="M56.6365 68.7502L56.6468 68.731C56.6764 68.6749 56.7466 68.6536 56.8021 68.683L57.0046 68.79C57.0608 68.8195 57.0822 68.8895 57.0527 68.9448L57.0423 68.964C57.0127 69.0201 56.9425 69.0414 56.8871 69.0119L56.6845 68.905C56.6283 68.8755 56.6069 68.8055 56.6365 68.7502Z" fill="#4A75CB"/>
<path d="M51.8074 78.2296C51.8074 78.2296 52.1926 79.065 51.7461 79.7073C51.7461 79.7073 51.7564 79.5724 51.4023 79.6837C51.0482 79.7958 50.9912 79.537 50.8242 79.5193C50.8249 79.5208 50.8508 78.6735 51.8074 78.2296Z" fill="#4A75CB"/>
<path d="M51.6218 78.2148L51.6115 78.234C51.5819 78.29 51.6034 78.3593 51.6595 78.3888L51.8621 78.4957C51.9183 78.5252 51.9878 78.5039 52.0174 78.4478L52.0277 78.4286C52.0573 78.3726 52.0358 78.3033 51.9797 78.2738L51.7771 78.1669C51.7216 78.1374 51.6521 78.1588 51.6218 78.2148Z" fill="#4A75CB"/>
<path d="M60.5162 70.7707C60.5162 70.7707 60.8977 71.3068 61.2481 71.3141C61.5978 71.3215 62.1301 71.0656 62.1301 71.0656C62.1301 71.0656 62.4517 70.3518 62.2336 70.0723C62.2336 70.0723 62.0148 69.9765 61.7863 70.1453C61.7472 70.1748 61.7072 70.211 61.6681 70.2582C61.6126 70.3245 61.5505 70.3621 61.4847 70.382C61.2348 70.458 60.9384 70.2795 60.8282 70.4514C60.7632 70.5516 60.6929 70.6261 60.6353 70.6792C60.5658 70.7404 60.5162 70.7707 60.5162 70.7707Z" fill="#B64C41"/>
<path d="M65.4916 74.6361C65.4916 74.6361 64.1424 71.376 61.7146 71.3134C61.7146 71.3134 59.4731 71.5619 59.3489 74.6361H65.4916V74.6361Z" fill="#B64C41"/>
<path d="M62.38 71.4137C62.38 71.4137 61.4071 71.6297 61.1062 71.5029C61.1062 71.5029 61.0611 71.0966 61.4707 71.1541C61.7509 71.1932 61.9342 71.0582 62.0414 71.0037C62.1937 70.9262 62.4199 71.2433 62.38 71.4137Z" fill="#963333"/>
<path d="M61.5327 70.8016C61.5948 70.8481 61.7863 70.1453 61.7863 70.1453C61.7471 70.1748 61.7072 70.211 61.668 70.2582C61.6125 70.3245 61.5504 70.3621 61.4846 70.382C61.4832 70.4027 61.4721 70.7559 61.5327 70.8016Z" fill="#963333"/>
<path d="M60.6345 70.6799C60.6478 70.688 61.098 70.9572 61.1594 70.9572C61.2215 70.9572 60.8275 70.452 60.8275 70.452C60.7624 70.5516 60.6922 70.6268 60.6345 70.6799Z" fill="#963333"/>
<path d="M64.1734 73.7254C64.1986 73.7041 63.219 72.2868 62.9492 72.2764C62.6793 72.2661 62.0731 72.5869 61.634 72.6282C61.1948 72.6695 60.7698 72.5456 60.687 72.8044C60.6042 73.0632 60.3757 73.9806 60.5154 74.1273C60.6559 74.2741 63.6352 74.1841 64.1734 73.7254Z" fill="#963333"/>
<path d="M70.1877 70.9447C69.7862 70.9499 69.5851 70.3445 69.5851 70.3445L65.6728 71.5258C65.848 71.9535 65.5649 72.2831 65.5649 72.2831C65.5649 72.2831 64.8884 72.7337 65.0984 73.4269L65.9641 76.2792C66.1179 76.785 66.6576 77.0733 67.1647 76.92L71.2914 75.6737C71.7978 75.5211 72.0869 74.982 71.9339 74.4769L71.0681 71.6239C70.9469 71.2249 70.5839 70.9624 70.1877 70.9447Z" fill="#CADDFF"/>
<path d="M65.2817 71.3989L65.5168 72.1732C65.6018 72.4527 66.6731 72.3774 67.9099 72.0036C69.1467 71.6305 70.0805 71.1003 69.9954 70.8208L69.7603 70.0465L65.2817 71.3989Z" fill="#25B782"/>
<path d="M69.7602 70.0465C69.8452 70.326 68.9115 70.8562 67.6747 71.2293C66.4379 71.6025 65.3666 71.6784 65.2816 71.3989C65.1966 71.1187 66.1303 70.5893 67.3672 70.2161C68.604 69.843 69.6752 69.7671 69.7602 70.0465Z" fill="#00DA92"/>
<path d="M59.6919 72.494C59.4117 72.3584 59.4819 71.8687 59.4819 71.8687L56.3547 71.3348C56.3281 71.6925 56.0161 71.823 56.0161 71.823C56.0161 71.823 55.3892 71.9019 55.2946 72.4557L54.9035 74.7358C54.834 75.1398 55.109 75.527 55.5142 75.5963L58.8129 76.1589C59.218 76.2283 59.6061 75.9539 59.6756 75.5498L60.0667 73.2698C60.1207 72.952 59.9602 72.6437 59.6919 72.494Z" fill="#B7D2F9"/>
<path d="M56.1271 71.1121L56.0207 71.7308C55.9822 71.9542 56.7526 72.2728 57.741 72.4409C58.7294 72.6098 59.5619 72.5648 59.6003 72.3413L59.7068 71.7226L56.1271 71.1121Z" fill="#DBB100"/>
<path d="M59.7075 71.7227C59.669 71.9468 58.8366 71.9911 57.8482 71.8222C56.8597 71.6533 56.0894 71.3355 56.1278 71.1121C56.1663 70.8886 56.9987 70.8437 57.9872 71.0125C58.9756 71.1814 59.7459 71.4992 59.7075 71.7227Z" fill="#EFC700"/>
<path d="M49.7255 89.3563H69.1022V73.4202H49.7255V89.3563Z" fill="#D1A900"/>
<path d="M59.4136 89.3563H78.7903V73.4202H59.4136V89.3563Z" fill="#EFC700"/>
<path d="M59.4139 73.4194H78.8402V84.3375L59.4139 89.3563V73.4194Z" fill="#FFDC48"/>
<path d="M59.4139 73.4194L63.2479 77.6123H82.3681L78.7899 73.4194H59.4139Z" fill="#EFC700"/>
<path d="M49.7367 85.3146H52.8077L52.5371 84.4526L52.8077 83.8369H49.7367V85.3146Z" fill="#FFDC48"/>
<path d="M59.414 75.2209L55.3294 79.2951H49.7367V73.4194H59.414V75.2209Z" fill="#B29000"/>
<path d="M49.7256 73.4194L45.369 77.6123H55.064L59.4139 73.4194H49.7256Z" fill="#EFC700"/>
</g>
<g clip-path="url(#clip1)">
<path d="M166.286 65.4455C168.146 61.8612 169.514 58.691 170.354 56.0067C171.453 52.5001 171.648 49.8178 170.935 48.0326C170.887 47.9145 170.752 47.8565 170.631 47.9027C170.512 47.949 170.453 48.0827 170.5 48.2018C171.748 51.3218 169.979 57.5244 165.386 66.1546L166.286 65.4455Z" fill="#F24274"/>
<path d="M171.07 52.8001C171.07 52.8001 172.864 53.5585 174.091 50.3952C174.091 50.3962 171.012 50.0037 171.07 52.8001Z" fill="#E8749B"/>
<path d="M170.522 54.4634C170.522 54.4634 171.389 52.7391 168.257 51.3532C168.257 51.3532 167.688 54.364 170.522 54.4634Z" fill="#E8749B"/>
<path d="M171.054 49.5207C171.054 49.5207 172.454 48.1801 169.969 45.844C169.968 45.844 168.415 48.4958 171.054 49.5207Z" fill="#E8749B"/>
<path d="M169.525 57.8421C169.525 57.8421 170.952 59.1542 173.193 56.587C173.193 56.588 170.43 55.1913 169.525 57.8421Z" fill="#E8749B"/>
<path d="M168.707 59.4533C168.707 59.4533 169.864 57.9031 167.021 56.0037C167.021 56.0037 165.934 58.8719 168.707 59.4533Z" fill="#E8749B"/>
<path d="M167.81 61.7677C167.81 61.7677 169.213 63.1064 171.501 60.5815C171.501 60.5825 168.765 59.1346 167.81 61.7677Z" fill="#E8749B"/>
</g>
<g opacity="0.3" clip-path="url(#clip2)">
<path d="M16.6513 87.847C12.6825 80.1664 9.76448 73.3732 7.97153 67.6212C5.62772 60.1071 5.21085 54.3593 6.73369 50.5337C6.83578 50.2808 7.1229 50.1564 7.38026 50.2555C7.63548 50.3546 7.76097 50.6412 7.661 50.8962C4.99816 57.582 8.77123 70.8734 18.5697 89.3667L16.6513 87.847Z" fill="#F24274"/>
<path d="M6.44441 60.75C6.44441 60.75 2.61818 62.375 0 55.5965C0 55.5987 6.56777 54.7577 6.44441 60.75Z" fill="#E8749B"/>
<path d="M7.6142 64.3141C7.6142 64.3141 5.76383 60.6192 12.4465 57.6494C12.4465 57.6494 13.6588 64.1012 7.6142 64.3141Z" fill="#E8749B"/>
<path d="M6.47846 53.7227C6.47846 53.7227 3.49234 50.8499 8.7925 45.844C8.79462 45.844 12.1083 51.5265 6.47846 53.7227Z" fill="#E8749B"/>
<path d="M9.74107 71.5542C9.74107 71.5542 6.6954 74.3659 1.91632 68.8647C1.91632 68.8668 7.80988 65.8738 9.74107 71.5542Z" fill="#E8749B"/>
<path d="M11.4851 75.0067C11.4851 75.0067 9.01792 71.6849 15.0816 67.6148C15.0816 67.6148 17.402 73.761 11.4851 75.0067Z" fill="#E8749B"/>
<path d="M13.3993 79.9662C13.3993 79.9662 10.4068 82.8349 5.52563 77.4243C5.52563 77.4264 11.3618 74.3238 13.3993 79.9662Z" fill="#E8749B"/>
</g>
<defs>
<clipPath id="clip0">
<rect width="143.045" height="89.3667" fill="white" transform="translate(23.5023)"/>
</clipPath>
<clipPath id="clip1">
<rect width="8.70455" height="20.3106" fill="white" transform="matrix(-1 0 0 1 174.091 45.844)"/>
</clipPath>
<clipPath id="clip2">
<rect width="18.5697" height="43.5227" fill="white" transform="translate(0 45.844)"/>
</clipPath>
</defs>
</svg>
